<svg xmlns="http://www.w3.org/2000/svg" viewBox="0 0 1178.77 793.62"><defs><style>.cls-1{fill:#00b3e6;}.cls-2{opacity:0.36;}.cls-3{fill:#01060c;}.cls-4{fill:#2163b8;}</style></defs><title>Recurso 2</title><g id="Capa_2" data-name="Capa 2"><g id="Capa_1-2" data-name="Capa 1"><g id="Capa_2-2" data-name="Capa 2"><g id="Capa_1-2-2" data-name="Capa 1-2"><path class="cls-1" d="M543.66,139.34C542,60.91,476.89-1.58,398.48,0A142.45,142.45,0,0,0,270.66,86.38,142.4,142.4,0,0,0,139.39,5.47C60.94,7.11-1.52,72.25.09,150.68A142.73,142.73,0,0,0,52.7,258.08L274.16,469a6.88,6.88,0,0,0,9.7-.2L504.19,240.6h0a141.48,141.48,0,0,0,39.49-101.23Z"/><g class="cls-2"><path class="cls-3" d="M55.79,230.93A142,142,0,0,1,78.67,20.51,142.28,142.28,0,0,0,52.73,258.08L274.16,469a9,9,0,0,0,5.71,1.91C281.64,470.91,60.79,236.51,55.79,230.93Z"/></g><g class="cls-2"><path class="cls-3" d="M386.09,15.2C464.49,13.56,529.63,76,531.27,154.47a141.63,141.63,0,0,1-7.41,48.4c-3.94,11.66-15.17,32.74-15.17,32.74a141.32,141.32,0,0,0,35-96.27C542,60.91,476.89-1.58,398.48,0A142,142,0,0,0,289,55.34l.69-.83C314.65,29.69,348.15,16,386.09,15.2Z"/></g><path class="cls-4" d="M1177.27,793.62a1.5,1.5,0,1,0-1.5-1.5A1.5,1.5,0,0,0,1177.27,793.62Z"/></g></g></g></g></svg>