<svg xmlns="http://www.w3.org/2000/svg" xmlns:xlink="http://www.w3.org/1999/xlink" viewBox="0 0 1502 1122"><defs><style>.cls-1{isolation:isolate;}.cls-2{fill:#fff;}.cls-3{fill:#606060;opacity:0.12;mix-blend-mode:multiply;}.cls-4{fill:#dec2a7;}.cls-5{fill:#eacdb0;}.cls-6{fill:#a1bdcc;}.cls-7{fill:#8c9498;}.cls-8{fill:#3a3029;}.cls-9{fill:#8aad9f;}.cls-10{fill:#514943;}.cls-11{fill:#cab5a1;}.cls-12{fill:#9e6652;}.cls-13{fill:#59595b;}.cls-14{opacity:0.26;}.cls-15{fill:none;}.cls-16{fill:#6596c1;}.cls-17{fill:#5a8fb7;}.cls-18{fill:#c2969c;}.cls-19{fill:#754c3d;}.cls-20{fill:#bcac98;}.cls-21{fill:#d3c2a4;}.cls-22{fill:#37454d;}.cls-23{fill:#4f3c22;}.cls-24{fill:#dacaaf;}.cls-25{fill:#f2d263;}.cls-26{fill:#aeccdc;}.cls-27{fill:#b26650;}.cls-28{fill:#2e4661;}</style></defs><title>HomeIcon</title><g class="cls-1"><g id="background"><rect class="cls-2" width="1502" height="1122"/></g><g id="shadow"><path class="cls-3" d="M1283.77,880.8H324.46c-30.35,0-55.17,15-55.17,33.42h0c0,12.73,11.9,23.86,29.3,29.5H214.12c-30.35,0-55.18,15-55.18,33.43h0c0,18.38,24.83,33.42,55.18,33.42h29.43c-8.22,5.84-13.21,13.4-13.21,21.63v13.37c0,18.39,24.83,33.43,55.17,33.43h945c30.34,0,55.17-15,55.17-33.43V1032.2c0-18.38-24.83-33.43-55.17-33.43l-64.26.75a30.53,30.53,0,0,0,18.18-7c9.35-8.24,9.76-20.79,5.19-31.18-3-6.74-7.71-12.08-19.47-14.09l113.58.45c30.35,0,55.17-15,55.17-33.43h0C1338.94,895.84,1314.12,880.8,1283.77,880.8Z" transform="translate(0.06)"/></g><g id="object"><polygon class="cls-4" points="998.21 649.98 1011.5 662.18 1008.38 676.76 990.68 673.64 985.45 660.49 998.21 649.98"/><polygon class="cls-5" points="753.41 454.99 755.49 470.61 748.88 480.79 738.14 479.21 736.75 461.24 751.33 453.95 753.41 454.99"/><polygon class="cls-6" points="626.87 461 704.82 534.64 721.08 477.37 751.28 481.91 733.85 568.28 704.56 584.21 627 543.74 626.87 461"/><polygon class="cls-7" points="690.29 648.88 693 804.4 672.96 1005.3 656.18 1005.57 643.96 820.68 619.37 636 690.29 648.88"/><polygon class="cls-8" points="656.26 1002.88 656.37 1015.07 674.61 1026.97 683.57 1014.64 674.39 1002.6 656.26 1002.88"/><polygon class="cls-8" points="599.18 1008.75 613.6 1025.23 610 1034.92 583.32 1027.17 583.32 1008.75 599.18 1008.75"/><polygon class="cls-7" points="632.12 710.06 620.14 860.8 604.32 1011.06 581.76 1009.62 582.58 853.74 569 709.17 600.89 689.2 632.12 710.06"/><path class="cls-6" d="M568.53,446.65l45-8S645.75,466,673.07,544.27c27.81,79.71,30.39,199.25,30.39,199.25s-125.13-5.39-145.61-6.07l3.7-164.89Z" transform="translate(0.06)"/><path class="cls-5" d="M600.18,451.17l-25.66-.79a139.23,139.23,0,0,1,.22-21.32c-7.23-2.08-15.64-5.38-17.3-13a23.07,23.07,0,0,1,0-7.37l3.34-30.47c.39-3.52.81-7.13,2.46-10.24,2.89-5.45,8.94-8.17,14.73-9.65,14.78-3.77,31.24-1.58,43.37,7.77a23.52,23.52,0,0,1,7.77,9.4c2.43,5.94,1.23,12.78,0,19.15l-3.42,17.65c-1.32,6.77-3.32,14.5-9.34,17.44-3.19,1.55-7.07,1.45-9.92,3.62C601.43,437.18,602.57,445.2,600.18,451.17Z" transform="translate(0.06)"/><path class="cls-8" d="M629,366.47a53.89,53.89,0,0,0-1.45-11.17c-1.36-5.93-7.67-8.07-13.06-8-11.64.15-23-4.85-34.23.87-6.38,3.26-15.06,4.71-20.8,9a20.5,20.5,0,0,0-5.69,7.27c-4.94,9.85-4.5,22.76,1.08,31.65a38.38,38.38,0,0,0,4.27,5.49c3.19,3.51,7,7.87,11.28,8.88-.06-4.33-4-17.62-1.21-21.43,4.38-6.05,14.82-5.07,20.56-4.22,6.26.92,12,5.44,18.17,5.94,4.46.35,10-2.67,13.69-5.65C627.4,380.45,629.13,373.45,629,366.47Z" transform="translate(0.06)"/><path class="cls-2" d="M604.75,446.89,661.9,577.36l22.12,162-81.85,1.72s9.4-120,6-135.65-10.09-48.2-17.36-84.79c-1.67-8.43-13.9-73.05-14-72.66Z" transform="translate(0.06)"/><polygon class="cls-9" points="863.31 462.94 854.13 460.57 836.59 470.61 786.61 591.38 802.23 610.13 844.92 554.94 863.31 462.94"/><polygon class="cls-10" points="940 1002.72 940.97 1012.32 923.55 1024.29 913.39 1015.87 921.61 1005.09 939.03 993.12 940 1002.72"/><polygon class="cls-11" points="939.56 709.18 942.51 738.33 916.4 838.51 940.65 999.5 922.8 1005.66 875.73 848.49 868.26 802.77 868.53 705.98 939.56 709.18"/><polygon class="cls-11" points="802.27 741.67 839.82 1011.42 856.89 1011.42 859.96 838.51 891.02 717.15 802.27 741.67"/><polygon class="cls-10" points="856.79 1009.29 856.79 1018.98 838.33 1028.67 829.11 1018.98 838.33 1009.29 856.79 1009.29"/><path class="cls-9" d="M943.42,626.4c-9.71-56.3-24.74-110.94-30.18-168.28-14.36,0-34.19-6.67-49.14-2.7h0s-.25.06-.72.21a23.86,23.86,0,0,0-13.75,10l-.11.18c-5.32,5.83-11.44,14.83-17.15,28.72-14.58,35.4-72.88,243.63-73.93,297.77l.55.13a271.4,271.4,0,0,0,39.59,8.8h0c40.78,6.2,86.4,6.14,123.51,5.52,4.9-.09,56.84,1.61,56.11-1.75Q958.89,716.12,943.42,626.4Z" transform="translate(0.06)"/><polygon class="cls-9" points="911.03 460.72 925.78 469.8 961.53 567.44 1001.09 647.61 983.39 662.18 931.33 589.3 900.62 490.91 911.03 460.72"/><path class="cls-12" d="M839.38,368.9s-11.06,9.05-5.86,42.36,2.09,55.19,2.09,55.19,11.45,5.2,19.78,0,11.45-6.25,8.33-19.79-9.37-78.08-9.37-78.08Z" transform="translate(0.06)"/><path class="cls-12" d="M866.82,380.16a33.69,33.69,0,0,0-24,28.24,29.71,29.71,0,0,1,6.52-48.06,34.37,34.37,0,0,1,16.53,20Z" transform="translate(0.06)"/><path class="cls-5" d="M841.09,397.13c6.54-34.56,49.64-28.59,62-.6,7,15.91,5.39,47-14.4,52.22-.31,3.05-.7,8.79-3,10.84-2.53,2.21-10.49.1-13.62-.62a4.85,4.85,0,0,1-2.39-1.08c-.79-.79-.92-2.9-.94-5.24a29.09,29.09,0,0,1-7-1.39c-10-3.3-17.29-12.6-20.29-22.73S839.13,407.51,841.09,397.13Z" transform="translate(0.06)"/><path class="cls-12" d="M850.18,360.25S846,379,870,384.19s39.5,23.95,35.37,43.73-21.83,34.36-12.46,39.57,43.73,0,43.73,0,20.82-69.76-7.29-99.95S860.59,336.3,850.18,360.25Z" transform="translate(0.06)"/><path class="cls-13" d="M769,64.32V54.12l-4.7-9.61a3.24,3.24,0,0,0-4.71.1l-3.93,9.51v10.2c-3.71,0-9.74,2.91-9.74,6.49a6.59,6.59,0,0,0,6.71,6.48h3V423.05c0,19.51-10.32,35.74-25.13,35.39-11.48-.27-21.49-10-23.18-26a7,7,0,0,0-7-6.24h-.27a6.93,6.93,0,0,0-7,7.65c2.93,22.66,20.91,38.87,38,38.87,13.34,0,24.27-6.18,30.64-17.33,7.89-13.79,7.39-29,7.39-44.09v-334h2.07a6.59,6.59,0,0,0,6.71-6.48C777.81,67.23,772.73,64.32,769,64.32Z" transform="translate(0.06)"/><g class="cls-14"><polygon points="769.08 258.15 755.6 244.14 755.6 221 769.08 221 769.08 258.15"/></g><path class="cls-15" d="M864.1,290.49l1.57.77,2.26-.77H864.1Z" transform="translate(0.06)"/><path class="cls-16" d="M663.28,288.48l2.4-14.8A347.91,347.91,0,0,1,723.34,131l37.45-53.9A243,243,0,0,0,530.11,288.86c19.73-5.9,42.58-9.28,67-9.28A241.35,241.35,0,0,1,663.28,288.48Z" transform="translate(0.06)"/><path class="cls-16" d="M859.12,258.72l6.41,31.77h2.4c20.86-6.9,45.57-10.91,72.18-10.91s51.39,4,72.49,10.84A243.09,243.09,0,0,0,771.25,76.86c-2.61,0-5.2,0-7.79.14l29.92,43.73C830.05,165.84,846.88,211.53,859.12,258.72Z" transform="translate(0.06)"/><path class="cls-17" d="M665.68,273.68l-2.4,14.8.64.18C689.17,277.44,723.76,271,762,271c40.23,0,76.53,7.13,102.13,19.48h1.43l-6.41-31.77c-12.24-47.19-29.07-92.88-65.74-138L763.46,77c-.89,0-1.78.06-2.67.1L723.34,131A347.91,347.91,0,0,0,665.68,273.68Z" transform="translate(0.06)"/><path class="cls-2" d="M663.28,288.48l-.08.51.72-.33Z" transform="translate(0.06)"/><polygon class="cls-5" points="730.5 476.86 723.88 465.12 724.26 446.66 730.5 448.75 732.59 458.12 744.04 468.53 740.66 479.21 730.5 476.86"/><polygon class="cls-5" points="730.71 461.73 732.21 449.63 744.53 440.47 752.97 447.01 751 457.07 730.71 461.73"/><polygon class="cls-6" points="568.76 446.66 544.98 466.05 485.47 573.68 516.7 613.25 536.49 607 583.34 502.89 568.76 446.66"/><polygon class="cls-5" points="569.01 590.34 576.3 606.93 576.3 668.54 565.1 669.47 549.23 616.26 569.01 590.34"/><polygon class="cls-5" points="592.96 580.97 604.41 591.38 618.99 651.77 609.61 656.98 585.67 609.08 569.01 595.55 572.13 580.97 592.96 580.97"/><path class="cls-18" d="M501.14,490.07s-8.33,2.64-12,9.94-13.38,38.92-8.51,60.81,7.29,49.86,54.73,59.59c23.1,2.44,19.45-17,36.48-21.89s33.24-2,25.14-28.38-26.35-28.78-42.17-56.75S521.64,476.47,501.14,490.07Z" transform="translate(0.06)"/><polygon class="cls-18" points="495.33 493.13 459.69 514.34 431.58 524.75 434.7 537.24 463.85 535.16 493 522.67 495.33 493.13"/><polygon class="cls-18" points="530.49 482.06 560.68 486.23 582.41 472.88 587.75 479.98 569.01 500.8 547.14 507.05 530.49 482.06"/><path class="cls-19" d="M511.76,429.58s20,7.81,22.16,25.62c0,0,9.53-11.68,1.85-23.48s-12-16.15-23.63-10.84S511.76,429.58,511.76,429.58Z" transform="translate(0.06)"/><path class="cls-5" d="M531.65,445.51C524,419.94,491.9,427.89,484.8,450c-4,12.58-.32,35.92,15,38.28.47,2.28,1.22,6.58,3.15,7.94,2.09,1.47,7.93-.76,10.23-1.56a3.72,3.72,0,0,0,1.73-1c.53-.66.46-2.27.28-4a22.51,22.51,0,0,0,5.2-1.61c7.3-3.29,12-10.89,13.5-18.78S534,453.19,531.65,445.51Z" transform="translate(0.06)"/><path class="cls-19" d="M517.32,435.55c-7,11.43-21.23,15.1-27.87,26.16,0,0-4.34,7.23.17,21.28a24.14,24.14,0,0,1-24.7-9.73c-9.8-13.58-.93-46.36-.93-46.36s15-16.75,39.55-16.25c8.32.17,16.73,4.61,16.93,14A19.81,19.81,0,0,1,517.32,435.55Z" transform="translate(0.06)"/><path class="cls-20" d="M478.4,992.13s1.19,9.8,13.19,10,16.89,8.24,5.89,8.09-24.09,1.94-28.45-6.26S475.16,986.31,478.4,992.13Z" transform="translate(0.06)"/><path class="cls-21" d="M441.53,948.35s-4.29.91-6.4,8.89-51.92-5.72-69.09,6S346.65,985,344.5,1003c-4.56,38,63.54,33.87,86.66,25.19s62.17-12.15,51.74-53.3C480.91,973.86,441.53,948.35,441.53,948.35Z" transform="translate(0.06)"/><path class="cls-22" d="M486.22,971.06l-3.44,2.7s-17,5.5-36.37-16.33c-7.61-11.58-5.18-13.52-5.18-13.52l4.34,1S453.56,970.09,486.22,971.06Z" transform="translate(0.06)"/><path class="cls-23" d="M470,911.41s1.71-2.59,6.54-2.7,12.18,7.81,14,8.46,6.07,1.7,1.75,3.32S472.1,916.31,470,911.41Z" transform="translate(0.06)"/><path class="cls-24" d="M453.32,922s7.68-10.53,19-10.61c6.69,0,12.7,2.77,17.72,7,2.55,2.18,4.57,4.81,7,7.12,1.59,1.54,3.58,2.24,5.13,3.91a18.9,18.9,0,0,1,4,16.3c-1.42,5.21,4.49,20.5-12.95,24.24s-40.55-6.79-45.48-15.84S438.38,935.9,453.32,922Z" transform="translate(0.06)"/><path class="cls-23" d="M456.16,923.25s-5.18-3.14-9.52-1-7.76,1.36-7.66,6.2-.71,16.91,5.07,20.63,4.41-6.22,7.35-9.64S459.31,924.73,456.16,923.25Z" transform="translate(0.06)"/><path class="cls-21" d="M478.55,994.93s.95,14,7.93,15.1,23.89,8.32,20.84,12.28-8-.11-13-.18-19.57,2-31.74-2.79c-11.44-1.44-16.64,3.66-16.64,3.66Z" transform="translate(0.06)"/><path class="cls-20" d="M352.57,984.3c-1.72-.5-10.87-3-11.23-13.77S348,951,358.8,951.24s10.57,10,8.34,11.38-15.4,3-13.48,14.85C355.15,982.52,352.57,984.3,352.57,984.3Z" transform="translate(0.06)"/><path class="cls-25" d="M495,493.52s1,13.53,8.33,13.53,22.74-6.37,25-9.37c3.12-4.16-2.78-13-2.78-13l4.86-2.6s34.36,43.73,16.66,55.18-41.65,18.74-48.93,4.17-7.77-44.7-7.77-44.7Z" transform="translate(0.06)"/><polygon class="cls-8" points="577.34 667.39 586.71 674.68 583.59 678.84 566.93 675.72 564.84 668.43 577.34 667.39"/><polygon class="cls-8" points="608.57 654.89 617.94 648.13 626.27 647.61 628.36 653.85 610.65 660.1 608.57 654.89"/><polygon class="cls-26" points="479.54 573.19 515.12 568.82 599.6 585.38 599.37 604.97 511.13 613.71 483.77 604.74 479.54 573.19"/><polygon class="cls-4" points="599.59 586.95 612.35 590.67 618.86 607.84 610.65 617.41 607.53 603.88 599.39 602.95 599.59 586.95"/><polygon class="cls-5" points="431.91 526.1 417 525.79 417 528.91 428.45 535.16 426.37 537.24 428.45 538.28 434.24 535.41 431.91 526.1"/><polygon class="cls-5" points="582.98 473.83 585.67 468.53 592.96 467.49 596.08 472.69 594 478.94 587.64 479.6 582.98 473.83"/><polygon class="cls-5" points="817.2 512.94 810.75 503.73 793.77 501.85 784.33 516 782.45 529.21 796.6 532.04 811.38 512.54 817.2 512.94"/><polygon class="cls-27" points="1079.18 718.41 1038.57 710.08 1016.71 673.64 1006.29 681.97 1021.91 730.9 1056.27 751.72 1079.18 718.41"/><polygon class="cls-28" points="1043.78 889.16 1043.78 999.52 1060.44 999.52 1070.85 932.88 1080.22 881.87 1043.78 889.16"/><polygon class="cls-28" points="1080.22 877.7 1086.46 925.6 1094.79 1002.64 1111.45 1001.6 1111.45 942.25 1119.78 881.87 1080.22 877.7"/><path class="cls-27" d="M1072.35,716.84s-17.7-3.12-25,23.95S1020.3,847,1019.25,888.63s26,14.58,58.31,19.79,58.83,5.72,58.83-13S1147.84,717.36,1072.35,716.84Z" transform="translate(0.06)"/><path class="cls-5" d="M1062.19,663c14.75-26,47.77-9.36,50,16.54,1.28,14.72-8.57,39.29-25.92,38-1.08,2.38-3,6.88-5.42,7.88-2.64,1.09-8.46-2.79-10.78-4.23a4.08,4.08,0,0,1-1.63-1.53c-.41-.85.06-2.58.69-4.47a24,24,0,0,1-5.27-3c-7.16-5.4-10.45-14.87-10.08-23.84S1057.76,670.85,1062.19,663Z" transform="translate(0.06)"/><path class="cls-19" d="M1082.77,656.28s23.59,5.9,23.59,15.73c0,14.77,1,24.69,0,33.48l16.71-9.89,9.83-27.52s-2-22.61-13.76-26.54-36.37-7.86-36.37-7.86l-18.68,5.89-13.76-1,4.76,41.28S1061.15,650.39,1082.77,656.28Z" transform="translate(0.06)"/><polygon class="cls-27" points="1090.63 720.49 1119.78 730.9 1145.81 795.45 1166.63 842.3 1155.18 849.59 1121.86 802.74 1090.63 720.49"/><polygon class="cls-5" points="1155.18 849.59 1162.47 860 1166.63 855.84 1179.13 855.84 1166.63 842.3 1155.18 849.59"/><polygon class="cls-7" points="1043.78 999.52 1034.41 1008.89 1038.57 1015.14 1057.31 1008.89 1057.31 999.52 1043.78 999.52"/><polygon class="cls-7" points="1097.57 1002.47 1101.04 1016.18 1112.49 1020.34 1118.74 1017.22 1109.04 1001.75 1097.57 1002.47"/><polygon class="cls-5" points="1016.71 673.64 1006.29 666.35 993.8 669.47 995.88 676.76 1007.5 681 1016.71 673.64"/><polygon class="cls-4" points="1005.25 680.18 1009.42 671.81 1001.09 667.65 989.33 670.24 991.72 675.72 1005.25 680.18"/><image width="1180" height="795" transform="translate(480 427) scale(0.5 0.56)" xlink:href="Hearth.png"/></g></g></svg>