<svg id="Capa_1" data-name="Capa 1" xmlns="http://www.w3.org/2000/svg" viewBox="0 0 1333.98 975.87"><defs><style>.cls-1,.cls-3{fill:#2163b8;}.cls-2,.cls-7{fill:#00b3e6;}.cls-3,.cls-7{fill-rule:evenodd;}.cls-4{opacity:0.36;}.cls-5{fill:#01060c;}.cls-6{fill:#fff;}</style></defs><title>OKCAREFINAL</title><path class="cls-1" d="M237.73,991.77q19.59-18.59,48.34-18.57t48.32,18.6q19.59,18.59,19.58,46t-19.61,46.22q-19.59,18.77-48.34,18.75T237.7,1084q-19.59-18.76-19.58-46.24T237.73,991.77Zm48.51.84a45.16,45.16,0,0,0-32.59,13.08,42.93,42.93,0,0,0-13.56,32.12,43.4,43.4,0,0,0,13.63,32.32,45,45,0,0,0,32.49,13.28,45.48,45.48,0,0,0,45.61-45.57,43.23,43.23,0,0,0-13.36-32.13A44.38,44.38,0,0,0,286.24,992.61Z" transform="translate(-153.03 -132.68)"/><path class="cls-1" d="M414.19,1057.28l-16.48,17.38v27.28H376.65l0-135.85h21.06l0,82,43-43.56h24.17l-36.08,37.7,38.79,59.7h-24.9Z" transform="translate(-153.03 -132.68)"/><path class="cls-2" d="M590,973.3a69.94,69.94,0,0,1,26.45,5.23,65.91,65.91,0,0,1,22.24,14.56L626,1008.83a51.87,51.87,0,0,0-16.47-11.9,45.49,45.49,0,0,0-19.22-4.41q-19.23,0-32.5,13.08a43.19,43.19,0,0,0-13.29,31.95q0,19,13.27,32.13t32.49,13.1q20,0,35.7-15.18l12.82,14.29a75.05,75.05,0,0,1-23.08,15.37,66.5,66.5,0,0,1-26.55,5.66q-28.19,0-47.41-18.78t-19.21-46.42q0-27.27,19.52-45.85T590,973.3Z" transform="translate(-153.03 -132.68)"/><path class="cls-2" d="M717.91,1102.05v-11.9Q707.47,1103,685.69,1103q-15.57,0-24.9-8.53t-9.33-21.69q0-13.37,9.71-21.24t27.1-8h29.48v-2.92q0-9.35-6-14.47t-17.3-5.13q-14.1,0-28.75,9.87l-8.6-14.65a101.08,101.08,0,0,1,20.05-9.42q8.88-2.84,21.88-2.83,18.67,0,28.93,9.07t10.43,25.18l.16,63.9Zm-27.82-15.75q11.16,0,18.95-5.22t8.7-13.27v-9H691.38q-10.44,0-15.29,3t-4.86,10a12.71,12.71,0,0,0,5,10.53Q681.3,1086.29,690.09,1086.3Z" transform="translate(-153.03 -132.68)"/><path class="cls-2" d="M787.88,1004.67v19.41Q798,1004,821.57,1004v20.14q-14.46-.73-23.44,6.77t-10.26,20.32v50.89H766.79l0-97.4Z" transform="translate(-153.03 -132.68)"/><path class="cls-2" d="M879.05,1004q25.08,0,36.34,15.12t9.23,42.39l-73.6,0q2.57,11.35,10.62,17.86t19.58,6.5q16.49,0,27.47-11.34l11.16,11.9q-15,16.47-40.28,16.47-22.52,0-36.15-13.65t-13.63-35.62q0-22,13.74-35.7T879.05,1004Zm-28.39,42.1,55.66,0q-.55-11.71-7.87-18.49t-19.22-6.78q-11.54,0-19.13,6.76T850.66,1046.07Z" transform="translate(-153.03 -132.68)"/><path class="cls-3" d="M329.8,195.84C191.68,288.23,121.23,459.17,166.9,626.51c57.82,211.84,279.86,337.61,495.94,280.93C839.4,861.12,957.33,707.33,963,537.07,938.55,676.8,833.87,796.8,685,835.85c-203.93,53.5-413.48-65.2-468-265.13C178.62,430.29,227,287.14,329.8,195.84Z" transform="translate(-153.03 -132.68)"/><path class="cls-1" d="M852,454.26C850.32,375.83,785.18,313.35,706.77,315A142.44,142.44,0,0,0,579,401.31,142.39,142.39,0,0,0,447.68,320.4c-78.44,1.63-140.9,66.78-139.27,145.21A142.68,142.68,0,0,0,361,573L582.46,784a6.86,6.86,0,0,0,9.69-.21L812.48,555.53l0,0A141.59,141.59,0,0,0,852,454.26Z" transform="translate(-153.03 -132.68)"/><g class="cls-4"><path class="cls-5" d="M364.09,545.86A142,142,0,0,1,387,335.43,142.29,142.29,0,0,0,361,573L582.46,784a8.81,8.81,0,0,0,5.7,1.9C589.93,785.84,369.08,551.43,364.09,545.86Z" transform="translate(-153.03 -132.68)"/></g><path class="cls-6" d="M583,711.19a156,156,0,0,1-110-44.78,150.92,150.92,0,0,1,.07-216.14,157.56,157.56,0,0,1,220,.08A150.91,150.91,0,0,1,693,666.48,156,156,0,0,1,583,711.19Zm.1-300.8c-83.12,0-150.76,66.34-150.79,147.94s67.57,148,150.69,148S733.79,640,733.82,558.43,666.24,410.42,583.12,410.39Z" transform="translate(-153.03 -132.68)"/><path class="cls-7" d="M361.83,196.45C226.87,288.54,158,458.93,202.65,625.71c56.5,211.15,273.47,336.51,484.61,280C859.79,859.55,975,706.27,980.59,536.56,956.67,675.83,854.38,795.44,708.91,834.37c-199.27,53.33-404-65-457.35-264.26-37.46-140,9.77-282.65,110.27-373.66Z" transform="translate(-153.03 -132.68)"/><path class="cls-3" d="M798.45,742.61c113.88-77.71,172-221.48,134.32-362.22C885.09,202.22,702,96.43,523.84,144.11c-145.58,39-242.81,168.3-247.51,311.5,20.18-117.52,106.49-218.45,229.24-251.29,168.15-45,340.94,54.83,385.93,223,31.61,118.12-8.25,238.52-93,315.31Z" transform="translate(-153.03 -132.68)"/><path class="cls-6" d="M526,460.62l41.34-46.8s11-9.63,8.27-16.51-13.08-17.22-27.55,0L504,444.78,531.56,398s6.89-13.08-4.82-17.21c0,0-11-3.44-14.47,3.44l-26.19,45.42L488.85,411s2.07-12.39-4.82-14.45-13.78.68-15.16,8.94c-1.14,6.81-15,95.94-14.15,98.77.22.74-3.14,23.52,0,27.53a42.62,42.62,0,0,0,6.88,6.89c20.64,14.46,36.64,17.52,36.64,17.52a98.66,98.66,0,0,0,31.9,2.81c46.65-3.22,53-29.36,54.42-34.4,1.38-4.82-3-13.84-11.45-15.46a12.85,12.85,0,0,0-13.64,6.94,25.74,25.74,0,0,0-1.77,4.38c-2.07,6.88-35.14,21.33-42.7-4.83s28.94-38.54,38.58-20.64,29.61,4.83,26.17-5.5S561.15,462,532.91,464.06C532.91,464.06,525.33,465.43,526,460.62Z" transform="translate(-153.03 -132.68)"/><rect class="cls-6" x="462.06" y="320.06" width="17.21" height="106.69"/><polygon class="cls-6" points="482.82 381.66 516.33 350.36 527.49 362.59 501.42 386.26 527.44 425.24 508.83 426.75 479.96 384.76 482.82 381.66"/><path class="cls-6" d="M585,687.1c-37.53,0-64.74-10.41-80.89-30.91-23.73-30.11-14.2-70.38-13.79-72.08l1.22-5L670.31,578l1.53,4.43c.6,1.74,14.47,42.85-7.27,73.55-14.5,20.47-40.94,30.94-78.57,31.12ZM502.1,592.17c-1.51,10.69-3.11,36.54,12.29,56C528,665.31,551.69,674,585,674h1c33.13-.16,56-8.76,67.92-25.55,14.16-19.94,9.49-46.85,6.87-57.34Z" transform="translate(-153.03 -132.68)"/><g class="cls-4"><path class="cls-5" d="M694.37,330.13C772.78,328.49,837.92,391,839.56,469.4a142,142,0,0,1-7.4,48.4C828.21,529.46,817,550.54,817,550.54a141.45,141.45,0,0,0,35-96.28C850.32,375.83,785.18,313.35,706.77,315a142,142,0,0,0-109.52,55.28l.68-.83C623,344.62,656.44,330.92,694.37,330.13Z" transform="translate(-153.03 -132.68)"/></g><path class="cls-1" d="M1485.56,1108.55a1.5,1.5,0,0,0,0-3,1.5,1.5,0,0,0,0,3Z" transform="translate(-153.03 -132.68)"/></svg>