<?xml version="1.0" encoding="utf-8"?>
<!-- Generator: Adobe Illustrator 24.0.2, SVG Export Plug-In . SVG Version: 6.00 Build 0)  -->
<svg version="1.1" id="Capa_1" xmlns="http://www.w3.org/2000/svg" xmlns:xlink="http://www.w3.org/1999/xlink" x="0px" y="0px"
	 viewBox="0 0 1334 975.9" style="enable-background:new 0 0 1334 975.9;" xml:space="preserve">
<style type="text/css">
	.st0{fill:#2163B8;}
	.st1{fill:#00B3E6;}
	.st2{fill-rule:evenodd;clip-rule:evenodd;fill:#2163B8;}
	.st3{opacity:0.36;}
	.st4{fill:#01060C;}
	.st5{fill:#FFFFFF;}
	.st6{fill-rule:evenodd;clip-rule:evenodd;fill:#00B3E6;}
</style>
<title>OKCAREFINAL</title>
<path class="st0" d="M347.7,859.1c13.1-12.4,29.2-18.6,48.3-18.6c19.2,0,35.3,6.2,48.3,18.6c13.1,12.4,19.6,27.7,19.6,46
	c0,18.3-6.5,33.7-19.6,46.2c-13.1,12.5-29.2,18.8-48.3,18.8c-19.2,0-35.3-6.3-48.3-18.8c-13.1-12.5-19.6-27.9-19.6-46.2
	C328.1,886.8,334.6,871.4,347.7,859.1z M396.2,859.9c-12.2-0.2-23.9,4.5-32.6,13.1c-8.9,8.3-13.8,20-13.6,32.1
	c-0.2,12.2,4.7,23.9,13.6,32.3c8.6,8.6,20.3,13.4,32.5,13.3c25.1,0.1,45.5-20.2,45.6-45.3c0-0.1,0-0.1,0-0.2
	c0.2-12.1-4.6-23.8-13.4-32.1C419.9,864.5,408.3,859.7,396.2,859.9L396.2,859.9z"/>
<path class="st0" d="M524.1,924.6L507.7,942v27.3h-21.1V833.4h21.1v82l43-43.6h24.2l-36.1,37.7l38.8,59.7h-24.9L524.1,924.6z"/>
<path class="st1" d="M699.9,840.6c9.1,0,18.1,1.8,26.5,5.2c8.3,3.3,15.9,8.2,22.2,14.6l-12.7,15.7c-4.7-5-10.2-9.1-16.5-11.9
	c-6-2.9-12.6-4.4-19.2-4.4c-12.8,0-23.7,4.4-32.5,13.1c-8.7,8.3-13.5,19.9-13.3,32c0,12.7,4.4,23.4,13.3,32.1
	c8.8,8.8,19.7,13.1,32.5,13.1c13.3,0,25.2-5.1,35.7-15.2l12.8,14.3c-6.7,6.5-14.5,11.7-23.1,15.4c-8.4,3.7-17.4,5.6-26.5,5.7
	c-18.8,0-34.6-6.3-47.4-18.8s-19.2-28-19.2-46.4c0-18.2,6.5-33.5,19.5-45.8C665,846.8,681,840.6,699.9,840.6z"/>
<path class="st1" d="M827.9,969.4v-11.9c-7,8.6-17.7,12.8-32.2,12.8c-10.4,0-18.7-2.8-24.9-8.5c-6.2-5.7-9.3-12.9-9.3-21.7
	c0-8.9,3.2-16,9.7-21.2c6.5-5.2,15.5-7.9,27.1-8h29.5v-2.9c0-6.2-2-11.1-6-14.5c-4-3.4-9.8-5.1-17.3-5.1c-9.4,0-19,3.3-28.8,9.9
	l-8.6-14.7c6.3-3.9,13-7,20-9.4c5.9-1.9,13.2-2.8,21.9-2.8c12.4,0,22.1,3,28.9,9.1c6.8,6,10.3,14.4,10.4,25.2l0.2,63.9L827.9,969.4z
	 M800,953.6c7.4,0,13.8-1.7,19-5.2s8.1-7.9,8.7-13.3v-9h-26.4c-7,0-12.1,1-15.3,3c-3.2,2-4.9,5.3-4.9,10c-0.1,4.1,1.7,8,5,10.5
	C789.6,952.3,794.2,953.6,800,953.6L800,953.6z"/>
<path class="st1" d="M897.8,872v19.4c6.7-13.4,18-20.1,33.7-20.1v20.1c-9.6-0.5-17.5,1.8-23.4,6.8c-6,5-9.4,11.8-10.3,20.3v50.9
	h-21.1V872L897.8,872z"/>
<path class="st1" d="M989,871.3c16.7,0,28.8,5,36.3,15.1c7.5,10.1,10.6,24.2,9.2,42.4H961c1.7,7.6,5.3,13.5,10.6,17.9
	c5.4,4.3,11.9,6.5,19.6,6.5c11,0,20.2-3.8,27.5-11.3l11.2,11.9c-10,11-23.4,16.5-40.3,16.5c-15,0-27.1-4.6-36.2-13.7
	s-13.6-21-13.6-35.6c0-14.7,4.6-26.6,13.7-35.7C962.6,876.1,974.5,871.5,989,871.3z M960.6,913.4h55.7c-0.4-7.8-3-14-7.9-18.5
	c-4.9-4.5-11.3-6.8-19.2-6.8c-7.7,0-14.1,2.3-19.1,6.8C965,899.4,961.8,905.6,960.6,913.4L960.6,913.4z"/>
<path class="st2" d="M439.7,63.2c-138.1,92.4-208.6,263.3-162.9,430.7c57.8,211.8,279.9,337.6,495.9,280.9
	c176.6-46.3,294.5-200.1,300.2-370.4c-24.5,139.7-129.1,259.7-278,298.8C591,756.7,381.5,638,326.9,438
	C288.6,297.6,336.9,154.5,439.7,63.2z"/>
<path class="st0" d="M961.9,321.6c-1.7-78.4-66.8-140.9-145.2-139.3c-55.8,1.2-105.8,35-127.8,86.3c-24.1-50.4-75.5-82-131.3-80.9
	c-78.4,1.6-140.9,66.8-139.3,145.2c1,41.8,20.2,81,52.6,107.4l221.5,211c2.7,2.6,7.1,2.5,9.7-0.2l220.3-228.3l0,0
	C948.6,395.7,962.8,359.3,961.9,321.6z"/>
<g class="st3">
	<path class="st4" d="M474,413.2c-52.4-58.3-47.7-148.1,10.6-200.5c3.9-3.5,8-6.8,12.3-9.9c-70.2,35.2-98.6,120.7-63.4,191
		c9,18,21.8,33.9,37.4,46.6l221.5,211c1.6,1.3,3.6,2,5.7,1.9C699.9,653.2,479,418.8,474,413.2z"/>
</g>
<path class="st5" d="M692.9,578.5c-41.1,0.2-80.7-15.9-110-44.8c-59.7-58.2-60.9-153.8-2.7-213.4c0.9-0.9,1.8-1.8,2.7-2.7
	c61.2-59.6,158.8-59.6,220,0.1c59.7,58.2,60.9,153.7,2.7,213.4c-0.9,0.9-1.8,1.8-2.7,2.7C773.6,562.6,734.1,578.7,692.9,578.5z
	 M693,277.7c-83.1,0-150.8,66.3-150.8,147.9s67.6,148,150.7,148s150.8-66.3,150.8-147.9S776.2,277.7,693,277.7L693,277.7z"/>
<path class="st6" d="M471.8,63.8c-135,92.1-203.8,262.5-159.2,429.3c56.5,211.1,273.5,336.5,484.6,280
	c172.5-46.2,287.7-199.4,293.3-369.2c-23.9,139.3-126.2,258.9-271.7,297.8c-199.3,53.3-404-65-457.4-264.3
	C324,297.4,371.3,154.8,471.8,63.8L471.8,63.8z"/>
<path class="st2" d="M908.4,609.9c113.9-77.7,172-221.5,134.3-362.2C995,69.5,811.9-36.2,633.8,11.4
	C488.2,50.4,391,179.7,386.3,322.9c20.2-117.5,106.5-218.4,229.2-251.3c168.1-45,340.9,54.8,385.9,223
	C1033.1,412.8,993.2,533.2,908.4,609.9L908.4,609.9z"/>
<path class="st5" d="M635.9,327.9l41.3-46.8c0,0,11-9.6,8.3-16.5s-13.1-17.2-27.5,0l-44.1,47.5l27.6-46.8c0,0,6.9-13.1-4.8-17.2
	c0,0-11-3.4-14.5,3.4L596,297l2.8-18.7c0,0,2.1-12.4-4.8-14.5s-13.8,0.7-15.2,8.9c-1.1,6.8-15,95.9-14.2,98.8
	c0.2,0.7-3.1,23.5,0,27.5c2,2.6,4.3,4.9,6.9,6.9c20.6,14.5,36.6,17.5,36.6,17.5c10.4,2.7,21.2,3.6,31.9,2.8
	c46.7-3.2,53-29.4,54.4-34.4c1.4-4.8-3-13.8-11.5-15.5c-5.6-0.9-11.1,1.9-13.6,6.9c-0.7,1.4-1.3,2.9-1.8,4.4
	c-2.1,6.9-35.1,21.3-42.7-4.8s28.9-38.5,38.6-20.6c9.6,17.9,29.6,4.8,26.2-5.5s-18.6-27.5-46.8-25.4
	C642.9,331.4,635.3,332.8,635.9,327.9z"/>
<rect x="725" y="320.1" class="st5" width="17.2" height="106.7"/>
<polygon class="st5" points="745.8,381.7 779.3,350.4 790.5,362.6 764.4,386.3 790.4,425.2 771.8,426.8 742.9,384.8 "/>
<path class="st5" d="M694.9,554.4c-37.5,0-64.7-10.4-80.9-30.9c-23.7-30.1-14.2-70.4-13.8-72.1l1.2-5l178.8-1.1l1.5,4.4
	c0.6,1.7,14.5,42.8-7.3,73.5c-14.5,20.5-40.9,30.9-78.6,31.1H694.9z M612,459.5c-1.5,10.7-3.1,36.5,12.3,56
	c13.6,17.1,37.3,25.8,70.6,25.8h1c33.1-0.2,56-8.8,67.9-25.5c14.2-19.9,9.5-46.8,6.9-57.3L612,459.5z"/>
<g class="st3">
	<path class="st4" d="M804.3,197.5c78.4-1.6,143.5,60.9,145.2,139.3c0.4,16.4-2.1,32.8-7.4,48.4c-3.9,11.7-15.2,32.7-15.2,32.7
		c23.3-26.6,35.8-60.9,35-96.3c-1.7-78.4-66.8-140.9-145.2-139.3c-43,0.9-83.3,21.2-109.5,55.3l0.7-0.8
		C732.9,211.9,766.4,198.2,804.3,197.5z"/>
</g>
<path class="st0" d="M1332.5,975.9c0.8,0,1.5-0.7,1.5-1.5s-0.7-1.5-1.5-1.5s-1.5,0.7-1.5,1.5S1331.7,975.9,1332.5,975.9z"/>
</svg>
