<?xml version="1.0"?>
<svg xmlns="http://www.w3.org/2000/svg" id="Layer_1" enable-background="new 0 0 512.003 512.003" height="512px" viewBox="0 0 512.003 512.003" width="512px" class=""><g><path d="m282.594 8.003c15.582 44.286 64.899 22.143 117.277 55.768 55.571 35.675 46.747 270.639 46.747 270.639s18.403 17.013 25.87 36.096 1.58 66.467-25.721 66.376c-12.692-.043-16.594-46.463-16.594-46.463s-9.956 11.616-22.447 1.659c-12.491-9.956 0-39.626 0-39.626-14.202-73.059-14.814-126.149-14.502-144.265.224-13.001-3.961-7.051-22.488-76.198-1.719-6.417-10.797-6.462-12.592-.065-1.723 6.14-3.903 12.959-6.66 20.42-13.959 37.773 12.839 184.379 13.445 191.304 1.635 18.668 8.556 106.433-.622 160.356h-81.713l-2.512-63.241c-.513-12.923-11.139-23.136-24.073-23.136-12.898 0-23.558 10.177-24.073 23.136l-2.512 63.241h-81.713c-8.906-52.321-2.547-150.958.248-167.017 3.765-21.632 25.33-150.129 12.575-184.642-2.758-7.463-4.939-14.285-6.662-20.426-1.795-6.398-10.871-6.346-12.59.072-18.622 69.5-22.716 62.966-22.488 76.198.312 18.116-.3 71.206-14.502 144.264 0 0 12.491 29.669 0 39.626s-22.447-1.659-22.447-1.659-3.902 46.42-16.594 46.463c-27.301.092-33.188-47.293-25.721-66.376s25.87-36.096 25.87-36.096-8.823-234.966 46.748-270.64c52.378-33.625 101.694-11.482 117.277-55.768" fill="#ffc7b3" data-original="#FFC7B3"/><g fill="#f4b1a9"><path d="m54.7 365.358c7.5-19.819 25.985-37.488 25.985-37.488s-2.906-80.036 5.096-155.393c.758-7.141 7.513-13.401 8.797-20.334 2.478-13.382-3.526-18.818-1.878-27.336 4.792-24.777 11.363-46.599 20.343-61.596-49.145 31.006-49.804 213.625-47.642 271.198 0 0-18.403 17.013-25.87 36.096s-1.58 66.468 25.721 66.376c2.444-.008 4.562-1.741 6.389-4.527-19.743-9.281-23.547-49.538-16.941-66.996z" data-original="#F4B1A9"/><path d="m233.592 8.003h-4.167c-.567 1.612-1.184 3.125-1.839 4.567 2.13-1.331 4.135-2.841 6.006-4.567z" data-original="#F4B1A9"/><path d="m97.203 386.039s-.333 4.094-1.12 9.893c3.474-.546 6.9-2.528 9.085-4.643-4.883-1.541-7.965-5.25-7.965-5.25z" data-original="#F4B1A9"/><path d="m447.082 386.039s-7.103 8.566-16.846 5.072c.544 5.752 4.752 45.73 16.531 45.77 5.039.017 9.346-1.587 12.977-4.329-9.581-8.631-12.662-46.513-12.662-46.513z" data-original="#F4B1A9"/><path d="m424.535 387.762c-12.546-10.34 0-41.154 0-41.154-14.266-75.876-14.88-131.012-14.566-149.827.215-12.938-2.719-6.147-18.199-62.648-.882-3.219-19.593-7.606-21.22-2.663.061.173.136.333.186.517 18.622 69.501 22.716 62.967 22.488 76.198-.312 18.116.3 71.206 14.502 144.265 0 0-12.491 29.669 0 39.625 10.921 8.705 19.903.921 21.99-1.174-1.663-.661-3.395-1.667-5.181-3.139z" data-original="#F4B1A9"/><path d="m166.738 337.464c.008-.1 25.125-181.126 5.16-200.686-6.274-6.147-17.557-9.369-18.463-6.02.808 1.68 1.866 7.421 7.101 21.585 12.755 34.513-8.81 163.01-12.575 184.642-2.505 14.398-9.451 112.952-.248 167.018h19.651c-9.22-56.002-2.268-147.151-.626-166.539z" data-original="#F4B1A9"/><path d="m259.637 417.899c11.239 1.699 19.981 11.171 20.446 22.863l2.512 63.241h16.252l-2.523-65.679c-.729-18.935-20.908-30.294-36.687-20.425z" data-original="#F4B1A9"/></g><path d="m230.999 464.375.938-23.614c.513-12.923 11.139-23.135 24.073-23.135 12.933 0 23.559 10.212 24.073 23.135l.938 23.614h87.244c2.262-46.545-1.581-111.944-4.852-131.15h-214.806c-4.548 26.701-6.592 95.368-4.853 131.15z" fill="#71ddff" data-original="#71DDFF"/><path d="m166.837 333.225h-18.231c-4.546 26.701-6.599 95.226-4.853 131.15h18.231c-2.259-46.501 1.578-111.913 4.853-131.15z" fill="#5fc4ff" data-original="#5FC4FF"/><path d="m265.125 419.412c8.484 3.471 14.572 11.646 14.957 21.35l.938 23.614h18.231l-.938-23.614c-.665-16.737-17.794-27.648-33.188-21.35z" fill="#5fc4ff" data-original="#5FC4FF"/><path d="m148.607 333.225c-1.104 6.487-1.398 6.335-2.952 28.956h220.709c-1.433-20.863-1.812-22.267-2.952-28.956z" fill="#c5ecff" data-original="#C5ECFF"/><path d="m167.663 333.225h-19.056c-1.104 6.487-1.398 6.335-2.952 28.956h19.056c1.44-20.958 1.812-22.263 2.952-28.956z" fill="#99c1ff" data-original="#99C1FF"/><ellipse cx="100.161" cy="125.253" fill="#f4b1a9" rx="5.499" ry="3.815" transform="matrix(.221 -.975 .975 .221 -44.115 195.288)" data-original="#F4B1A9"/><path d="m256.009 304.302c-6.454 0-10.169-7.216-6.65-12.44 2.707-4.101 8.66-4.851 12.311-1.21 5.003 5.017 1.469 13.65-5.661 13.65z" data-original="#000000" class="active-path" style="fill:#3762CC" data-old_color="#000000"/><path d="m480.474 367.585c-6.361-16.218-19.581-30.688-25.277-36.443 1.713-61.858 1.323-240.823-50.653-274.108-53.23-34.085-100.892-13.574-114.339-51.691-1.47-4.167-6.04-6.354-10.205-4.883-4.167 1.47-6.353 6.038-4.884 10.205 17.5 49.611 70.156 27.413 120.799 59.844 44.081 28.227 45.126 210.815 43.184 263.601-.088 2.337.852 4.597 2.57 6.182.172.158 17.175 15.965 23.911 33.138 6.303 16.068.692 54.424-17.443 55.431-3.623-3.681-8.088-21.788-9.558-39.112-.625-7.409-9.633-9.919-14.012-4.575-1.964 2.131-6.03 4.982-11.484.646-5.035-4.004-1.844-20.147 2.392-30.253.618-1.465.786-3.081.482-4.642-13.973-71.7-14.72-123.607-14.392-142.597.267-15.537-3.962-8.207-22.816-78.411-3.833-14.27-24.049-14.376-28.051-.157-1.802 6.405-3.981 13.07-6.478 19.808-11.743 31.697 2.511 130.329 9.999 175.661h-196.432c26.442-161.405 10.346-171.253 3.533-195.474-4.009-14.25-24.226-14.082-28.049.163-18.866 70.225-23.087 62.887-22.817 78.41.328 18.989-.419 70.897-14.392 142.597-.303 1.554-.134 3.172.479 4.632 4.239 10.115 7.431 26.259 2.396 30.263-5.456 4.337-9.521 1.485-11.484-.646-4.363-5.322-13.38-2.861-14.012 4.573-1.47 17.326-5.935 35.434-9.558 39.114-18.235-1.016-23.67-39.558-17.443-55.432 6.702-17.086 23.744-32.982 23.911-33.137 1.719-1.586 2.658-3.845 2.57-6.182-1.94-52.632-.921-235.36 43.183-263.603 50.782-32.52 103.258-10.118 120.799-59.844 1.469-4.167-.717-8.735-4.884-10.205-4.166-1.47-8.735.718-10.205 4.883-13.398 37.977-61.335 17.751-114.339 51.691-52.06 33.34-52.351 212.828-50.653 274.108-5.696 5.755-18.916 20.226-25.277 36.442-9.387 23.928-1.146 77.297 33.15 77.297 15.894 0 20.811-25.831 23.188-41.521 6.232 1.614 13.667.82 21.011-5.02 14.838-11.798 6.509-38.191 3.319-46.66 13.834-72.007 14.572-124.34 14.239-143.631-.181-10.269 3.713-5.989 20.92-68.995 1.599 5.265 3.415 10.649 5.423 16.069 9.932 26.806-3.489 126.063-12.985 180.488-2.767 15.852-9.485 115.633-.253 169.737.655 3.844 3.986 6.654 7.886 6.654h81.916c4.295 0 7.823-3.391 7.994-7.682 2.098-52.703 1.258-29.993 2.578-63.242.344-8.665 7.407-15.453 16.079-15.453s15.734 6.788 16.078 15.453c1.112 27.986.452 9.814 2.579 63.242.171 4.291 3.699 7.682 7.994 7.682h81.916c3.899 0 7.23-2.811 7.886-6.654 8.57-50.223 3.144-150.265-.253-169.738-9.496-54.424-22.917-153.682-12.985-180.487 2.008-5.421 3.825-10.806 5.423-16.068 17.278 63.27 21.099 58.647 20.92 68.995-.332 19.29.405 71.622 14.239 143.63-3.189 8.469-11.519 34.862 3.319 46.66 7.346 5.841 14.779 6.635 21.011 5.02 2.389 15.776 7.337 41.469 23.08 41.521 34.577.001 42.552-53.603 33.257-77.294zm-192.338 72.858c-.688-17.281-14.8-30.817-32.127-30.817s-31.438 13.536-32.127 30.817l-.634 15.932h-71.819c-1.071-30.943.291-63.424 1.714-86.194h125.554c4.418 0 8-3.582 8-8s-3.582-8-8-8h-124.442c.277-3.605.775-10.13 1.146-12.955h201.215c.359 2.717.892 9.631 1.146 12.955h-17.931c-4.418 0-8 3.582-8 8s3.582 8 8 8h19.043c1.423 22.771 2.784 55.252 1.714 86.194h-71.819zm-133.837 55.56c-1.036-7.419-1.803-15.378-2.353-23.628h70.664l-.941 23.628zm136.049 0-.941-23.628h70.664c-.549 8.25-1.316 16.209-2.353 23.628z" data-original="#000000" class="active-path" style="fill:#3762CC" data-old_color="#000000"/><path d="m264.284 271.504c6.929-.3 13.915-.985 20.764-2.037 4.367-.671 7.363-4.755 6.692-9.122-.67-4.366-4.759-7.368-9.122-6.692-6.275.964-12.677 1.592-19.025 1.867-4.414.19-7.838 3.924-7.646 8.338.194 4.523 4.068 7.859 8.337 7.646z" data-original="#000000" class="active-path" style="fill:#3762CC" data-old_color="#000000"/><path d="m216.227 259.492c-.77 4.351 2.134 8.502 6.484 9.271 9.652 1.706 19.622 2.522 21.246 2.522 4.179 0 7.696-3.244 7.975-7.475.291-4.408-3.048-8.218-7.457-8.508-6.342-.418-12.727-1.19-18.977-2.296-4.346-.761-8.5 2.135-9.271 6.486z" data-original="#000000" class="active-path" style="fill:#3762CC" data-old_color="#000000"/><path d="m192.324 243.765c-4.155-1.505-8.742.648-10.243 4.804-1.502 4.155.648 8.741 4.804 10.243 2.747.961 7.818 2.96 15.513 5.206 4.268 1.241 8.689-1.217 9.922-5.438 1.238-4.241-1.196-8.684-5.438-9.922-7.267-2.12-11.97-3.986-14.558-4.893z" data-original="#000000" class="active-path" style="fill:#3762CC" data-old_color="#000000"/><path d="m303.391 265.455c3.726 0 21.643-6.608 21.743-6.643 4.155-1.502 6.306-6.088 4.804-10.243s-6.089-6.305-10.243-4.804c-2.49.858-8.898 3.425-18.367 5.96-8.997 2.407-7.234 15.73 2.063 15.73z" data-original="#000000" class="active-path" style="fill:#3762CC" data-old_color="#000000"/><path d="m309.29 370.18c-4.418 0-8.013-3.582-8.013-8s3.57-8 7.988-8c4.533 0 8.024 3.662 8.024 8 .001 4.418-3.581 8-7.999 8z" data-original="#000000" class="active-path" style="fill:#3762CC" data-old_color="#000000"/></g> </svg>
