<?xml version="1.0"?>
<svg xmlns="http://www.w3.org/2000/svg" height="512px" viewBox="0 0 64 64" width="512px"><g><g id="Layer_31" data-name="Layer 31"><path d="m13 62v-9a11 11 0 0 1 11-11h16a11 11 0 0 1 11 11v9z" fill="#c7e2fb" data-original="#C7E2FB"/><path d="m20 60c12.22 0 22.72-6.21 27.4-15.12a11 11 0 0 0 -7.4-2.88h-16a11 11 0 0 0 -11 11v6.29a34.91 34.91 0 0 0 7 .71z" fill="#ebf7fe" data-original="#EBF7FE"/><path d="m32 48 5-6h4l-3 9z" fill="#c7e2fb" data-original="#C7E2FB"/><path d="m32 48-5-6h-4l3 9z" fill="#c7e2fb" data-original="#C7E2FB"/><path d="m45 25v4a13 13 0 0 1 -13 13 13 13 0 0 1 -13-13v-4h8.17a10.3 10.3 0 0 0 8.83-5 10.3 10.3 0 0 0 8.83 5z" fill="#fddfb1" data-original="#FDDFB1"/><path d="m27 42 5 6 5-6z" fill="#fddfb1" data-original="#FDDFB1"/><path d="m32 10a13 13 0 0 0 -13 13v2h8.17a10.3 10.3 0 0 0 8.83-5 10.3 10.3 0 0 0 8.83 5h.17v-2a13 13 0 0 0 -13-13z" fill="#c18e5c" data-original="#C18E5C"/><path d="m45.5 25h-.5v4a12.9 12.9 0 0 1 -.36 3h.86a3.5 3.5 0 0 0 0-7z" fill="#fddfb1" data-original="#FDDFB1"/><path d="m19 29v-4h-.5a3.5 3.5 0 0 0 0 7h.86a12.9 12.9 0 0 1 -.36-3z" fill="#fddfb1" data-original="#FDDFB1"/><path d="m40 41h-.83a14 14 0 0 0 6.24-8h.09a4.49 4.49 0 0 0 .5-8.95v-1.05a13.93 13.93 0 0 0 -1.42-6.11c2.53-.59 4.42-1.5 4.42-2.89 0-2-3.83-3.29-11.38-3.81a13.87 13.87 0 0 0 -11.24 0c-7.55.52-11.38 1.81-11.38 3.81 0 1.39 1.89 2.3 4.42 2.89a13.93 13.93 0 0 0 -1.42 6.11v1.05a4.49 4.49 0 0 0 .5 9h.09a14 14 0 0 0 6.24 8h-.83a12 12 0 0 0 -12 11.95v9a1 1 0 0 0 1 1h38a1 1 0 0 0 1-1v-9a12 12 0 0 0 -12-12zm-13.47 2 3.89 4.67-3.84 1.92-2.19-6.59zm8.33 0-2.86 3.44-2.86-3.44zm2.61 0h2.14l-2.19 6.59-3.84-1.92zm10.53-14.5a2.51 2.51 0 0 1 -2.15 2.5 14.27 14.27 0 0 0 .15-2v-2.95a2.5 2.5 0 0 1 2 2.45zm-1.16-14.5a10.52 10.52 0 0 1 -3.32 1.06 14.17 14.17 0 0 0 -2.21-2.49c3.22.43 4.95 1.05 5.53 1.43zm-5.54 1.43a68.5 68.5 0 0 1 -9.3.57 68.5 68.5 0 0 1 -9.3-.57 12 12 0 0 1 18.6 0zm-24.14-1.43c.58-.38 2.31-1 5.53-1.43a14.17 14.17 0 0 0 -2.21 2.49 10.52 10.52 0 0 1 -3.32-1.06zm14.84 4a74.81 74.81 0 0 0 10.55-.72 12 12 0 0 1 1.45 5.72v1a9.34 9.34 0 0 1 -7.14-4.46 1 1 0 0 0 -1.72 0 9.34 9.34 0 0 1 -8 4.51h-7.14v-1.05a12 12 0 0 1 1.45-5.72 74.81 74.81 0 0 0 10.55.72zm-16 10.5a2.5 2.5 0 0 1 2-2.45v2.95a14.27 14.27 0 0 0 .15 2 2.51 2.51 0 0 1 -2.15-2.5zm4 .5v-3h7.17a11.37 11.37 0 0 0 8.83-4.25 11.39 11.39 0 0 0 8 4.25v3a12 12 0 0 1 -24 0zm-6 24a10 10 0 0 1 8.33-9.85l2.72 8.17a1 1 0 0 0 .95.68 1 1 0 0 0 .45-.11l4.55-2.27v11.38h-11v-6h-2v6h-4zm36 8h-4v-6h-2v6h-11v-11.38l4.55 2.27a1 1 0 0 0 .83 0 1 1 0 0 0 .57-.6l2.72-8.17a10 10 0 0 1 8.33 9.88z" data-original="#000000" class="active-path" style="fill:#3762CC" data-old_color="#000000"/><path d="m32 33a5 5 0 0 0 -5 5h2a3 3 0 0 1 6 0h2a5 5 0 0 0 -5-5z" data-original="#000000" class="active-path" style="fill:#3762CC" data-old_color="#000000"/><path d="m56 14.5a.5.5 0 0 1 .5-.5h1.5v-2h-1.5a2.5 2.5 0 0 0 -2.5 2.5.5.5 0 0 1 -.5.5h-1.5v2h1.5a2.5 2.5 0 0 0 2.5-2.5z" data-original="#000000" class="active-path" style="fill:#3762CC" data-old_color="#000000"/><path d="m8 14.5a2.5 2.5 0 0 0 2.5 2.5h1.5v-2h-1.5a.5.5 0 0 1 -.5-.5 2.5 2.5 0 0 0 -2.5-2.5h-1.5v2h1.5a.5.5 0 0 1 .5.5z" data-original="#000000" class="active-path" style="fill:#3762CC" data-old_color="#000000"/><path d="m11.29 21.29-1 1a.35.35 0 0 1 -.58 0 2.48 2.48 0 0 0 -3.42 0l-1 1 1.42 1.42 1-1a.35.35 0 0 1 .58 0 2.48 2.48 0 0 0 3.42 0l1-1z" data-original="#000000" class="active-path" style="fill:#3762CC" data-old_color="#000000"/><path d="m57.71 22.29a2.48 2.48 0 0 0 -3.42 0 .35.35 0 0 1 -.58 0l-1-1-1.42 1.42 1 1a2.48 2.48 0 0 0 3.42 0 .35.35 0 0 1 .58 0l1 1 1.42-1.42z" data-original="#000000" class="active-path" style="fill:#3762CC" data-old_color="#000000"/><path d="m18 3h2v2h-2z" data-original="#000000" class="active-path" style="fill:#3762CC" data-old_color="#000000"/><path d="m18 7h2v2h-2z" data-original="#000000" class="active-path" style="fill:#3762CC" data-old_color="#000000"/><path d="m16 5h2v2h-2z" data-original="#000000" class="active-path" style="fill:#3762CC" data-old_color="#000000"/><path d="m20 5h2v2h-2z" data-original="#000000" class="active-path" style="fill:#3762CC" data-old_color="#000000"/><path d="m44 1h2v2h-2z" data-original="#000000" class="active-path" style="fill:#3762CC" data-old_color="#000000"/><path d="m44 5h2v2h-2z" data-original="#000000" class="active-path" style="fill:#3762CC" data-old_color="#000000"/><path d="m42 3h2v2h-2z" data-original="#000000" class="active-path" style="fill:#3762CC" data-old_color="#000000"/><path d="m46 3h2v2h-2z" data-original="#000000" class="active-path" style="fill:#3762CC" data-old_color="#000000"/></g></g> </svg>
