<?xml version="1.0"?>
<svg xmlns="http://www.w3.org/2000/svg" height="512px" viewBox="0 0 60 60" width="512px"><g><g id="Page-1" fill="none" fill-rule="evenodd"><g id="042---Back-Pain" fill-rule="nonzero"><path id="Shape" d="m31.64 17.4c-.4591802.3769746-.7765471.8988669-.9 1.48l-.67 3.22-2.47-.53c-.540405-.111486-1.0702628.2313631-1.19.77l-1.26 7.16c-.1180702.5305328-.4469749.9901648-.9110236 1.2731213-.4640487.2829566-1.023272.364866-1.5489764.2268787h-.01c-1.0386934-.2749377-1.6745475-1.3214476-1.44-2.37l1.53-7.82c.5155323-2.7003753 3.11771-4.4754003 5.82-3.97z" fill="#fec108" data-original="#FEC108"/><path id="Shape" d="m40.49 14.84-1.95 3.24c-.421318-.2816791-.8934267-.4786741-1.39-.58l-2.84-.59 2.56-4.06c.3608648.3917115.7959527.70783 1.28.93z" fill="#dfc49c" data-original="#DFC49C"/><path id="Shape" d="m46.94 30.49v.01c-.270607 1.0387681-1.3096824 1.681586-2.36 1.46-7.5-1.353-4.49-.809-13.02-2.35-1.6205316-.3402759-2.6589163-1.9291835-2.32-3.55 1-4.752.656-3.126 1.5-7.18.3134525-1.4255199 1.7075581-2.3401242 3.14-2.06l3.27.68c2.1618352.4506399 3.5494846 2.5679243 3.1 4.73l-.99 4.76 6.16 1.05c.5319898.1136935.994713.4391882 1.2815061.9014534.2867931.4622651.3729079 1.0214107.2384939 1.5485466z" fill="#ffdc00" data-original="#FFDC00"/><path id="Shape" d="m45.42 28.04-6.16-1.05.99-4.76c.4494846-2.1620757-.9381648-4.2793601-3.1-4.73-3.275-.68-2.7-.561-3.27-.68-.5997442-.1232058-1.2237094-.0318939-1.763.258l2.033.422c2.1618352.4506399 3.5494846 2.5679243 3.1 4.73l-.99 4.76 6.16 1.05c.5319898.1136935.994713.4391882 1.2815061.9014534.2867931.4622651.3729079 1.0214107.2384939 1.5485466v.01c-.1278713.4919059-.4382256.9166765-.868 1.188l1.508.272c1.0503176.221586 2.089393-.4212319 2.36-1.46v-.01c.134414-.5271359.0482992-1.0862815-.2384939-1.5485466-.2867931-.4622652-.7495163-.7877599-1.2815061-.9014534z" fill="#fec108" data-original="#FEC108"/><path id="Shape" d="m38.37 30.84-1.37 6.16h-8l1.47-7.86c.3301117.2246065.7000668.3841284 1.09.47z" fill="#fec108" data-original="#FEC108"/><path id="Shape" d="m42.3 58.34-3.2.62c-.5226627.1025337-1.0646346-.0076482-1.5057735-.3061209s-.7450007-.7605783-.8442265-1.2838791l-.75-3.93 4-.43c.2940916 1.0120129 1.1559573 1.7563515 2.2 1.9.7418026.0949776 1.3387305.6556059 1.48 1.39v.01c.1781488.9413666-.4391082 1.8493605-1.38 2.03z" fill="#607d8b" data-original="#607D8B"/><path id="Shape" d="m43.68 56.31v-.01c-.1412695-.7343941-.7381974-1.2950224-1.48-1.39-1.0440427-.1436485-1.9059084-.8879871-2.2-1.9l-2.885.31c.3680057.859021 1.1592234 1.4623956 2.085 1.59.7418026.0949776 1.3387305.6556059 1.48 1.39v.01c.1781488.9413666-.4391082 1.8493605-1.38 2.03l-1.681.326c.436291.2877403.9678821.3932688 1.481.294l3.2-.62c.9408918-.1806395 1.5581488-1.0886334 1.38-2.03z" fill="#37474f" data-original="#37474F"/><path id="Shape" d="m40 53.01-4 .43-1.72-6.06-1.02-3.58c-.1678083-.5143117-.5353804-.9395421-1.02-1.18l-1.54-.77-.04-.02c-1.0191576-.5087974-1.6622386-1.5508986-1.66-2.69l-.0000058-2.14h8.0000058z" fill="#3f51b5" data-original="#3F51B5"/><path id="Shape" d="m37 37h-3l3 16.01-1.089.117.089.313 4-.43z" fill="#283593" data-original="#283593"/><path id="Shape" d="m32.49 57.94v.01c-.3829654.8817088-1.406307 1.2883641-2.29.91l-2.99-1.3c-.4884337-.2090069-.8736386-.6037607-1.0706251-1.0971649-.1969864-.4934042-.1895657-1.0449097.0206251-1.5328351l1.59-3.67 3.67 1.59h.01l-.04.08c-.455283 1.0467604-.1893953 2.2674269.66 3.03.5598985.4951172.7375055 1.2943486.44 1.98z" fill="#607d8b" data-original="#607D8B"/><path id="Shape" d="m34.28 47.38-2.85 5.47h-.01l-3.67-1.59 2.95-9.41 1.54.77c.4846196.2404579.8521917.6656883 1.02 1.18z" fill="#283593" data-original="#283593"/><path id="Shape" d="m46.56 12.12-.88-.4-.83 1.82c-.6892438 1.5032027-2.464938 2.1651743-3.97 1.48-2.265-1.045-3.207-1.3-4.01-2.17-1.1010036-1.1819002-1.3812615-2.91081486-.71-4.38l.82-1.81c2.6 1.18 2.94 1.42 3.56 1.42.9412257.00036888 1.7553384-.65558764 1.9551827-1.57535297.1998443-.91976532-.2686672-1.85440721-1.1251827-2.24464703l-2.64-1.2c1.4470432-2.01400566 4.1516734-2.66300424 6.3550787-1.52495417s3.2396728 3.7192074 2.4349213 6.06495417c-.22.705-.1.815.45 3.37.0876944.3766266-.0466832.770323-.3463519 1.0147337-.2996688.2444107-.712343.2968913-1.0636481.1352663z" fill="#ffe0b2" data-original="#FFE0B2"/><path id="Shape" d="m47.97 10.97c-.554-2.559-.669-2.67-.45-3.37.6035704-1.78347498.1521023-3.75483152-1.1674845-5.09787679-1.3195869-1.34304527-3.282683-1.82917669-5.0765155-1.25712321 1.2864423.39299839 2.3582104 1.29143966 2.9697806 2.48950627.6115701 1.19806661.7105335 2.59308986.2742194 3.86549373-.22.705-.1.815.45 3.37.0876944.3766266-.0466832.770323-.3463519 1.0147337-.2996688.2444107-.712343.2968913-1.0636481.1352663l-.88-.4c-.77 1.688-.993 2.554-2.079 3.171l.279.129c1.505062.6851743 3.2807562.0232027 3.97-1.48l.83-1.82.88.4c.3513051.161625.7639793.1091444 1.0636481-.1352663.2996687-.2444107.4340463-.6381071.3463519-1.0147337z" fill="#dfc49c" data-original="#DFC49C"/><path id="Shape" d="m42.36 6.91c-.3251374.71281204-1.0365363 1.17013991-1.82 1.17-.2862439-.00098716-.5690627-.06232138-.83-.18l-2.73-1.24c-.8565155-.39023982-1.325027-1.32488171-1.1251827-2.24464703.1998443-.91976533 1.013957-1.57572185 1.9551827-1.57535297.2862439.00098716.5690627.06232138.83.18l.09.04 2.64 1.2c.483863.21880851.8604582.62158571 1.0463005 1.11904245.1858423.49745673.1655781 1.04849463-.0563005 1.53095755z" fill="#9e9e9e" data-original="#9E9E9E"/><circle id="Oval" cx="56" cy="57" fill="#60a917" r="2" data-original="#60A917"/><g fill="#000"><path id="Shape" d="m59 58h-.184c.1185543-.320225.1808059-.6585488.184-1-.0042226-1.3054174-.8540325-2.4575168-2.1-2.847l-2.681-20.541c-.1982094-1.4925165-1.4693836-2.608586-2.975-2.612h-3.427c.03-.084.066-.165.089-.253.007-.025.012-.052.017-.079.1825311-.7904435.0371599-1.6211142-.4029639-2.3025902s-1.1374762-1.1556558-1.9330361-1.3144098l-5.135-.877.778-3.74c.3541768-1.6631017-.1698852-3.3916001-1.388-4.578l1.07-1.777c.388588.1343173.7959209.2065371 1.207.214 1.5655729-.0032287 2.9866338-.9157364 3.641-2.338l.416-.911c.6953068.3051243 1.5031679.1928216 2.0888874-.2903812.5857196-.4832028.8495213-1.254993.6821126-1.9956188l-.52-2.4c-.022885-.14541381-.0091367-.29423946.04-.433.4402771-1.31268459.4183999-2.73646212-.062-4.035-.7281701-1.94114457-2.40775-3.3681704-4.441022-3.7732371-2.033272-.40506669-4.131499.2693477-5.547978 1.7832371-1.3071184-.27894521-2.6403952.34469298-3.2641156 1.52678504-.6237205 1.18209206-.3859466 2.63468126.5821156 3.55621496l-.483 1.068c-.7356233 1.57330881-.5834451 3.41847.4 4.85l-1.831 2.912c-.8458529-.1150355-1.7052343.0707862-2.428.525l-2.617-.481c-3.2408352-.6016359-6.3601554 1.5237526-6.986 4.76l-1.525 7.8c-.3568904 1.5747665.6018658 3.1481894 2.165 3.553.0226425.0062822.0456996.0109605.069.014.2313019.05726.4687161.0861392.707.086.5448234-.0006378 1.078974-.1511272 1.544-.435.7134143-.4328204 1.2153055-1.1422033 1.386-1.959l1.256-7.126 1.5.32-.623 2.983c-.2861702 1.3361409.1363651 2.7254429 1.118 3.676l-1.363 7.288c0 .029.006.056 0 .085-.0096519.0321687-.0173328.0648961-.023.098v2.146c-.0012109 1.2204027.5589512 2.3735476 1.519 3.127l-2.708 8.637-1.572 3.63c-.5055608 1.2116619-.1686213 2.6111944.833 3.46h-8.072c-.5522847 0-1 .4477153-1 1s.4477153 1 1 1h12.866.02.027 28.087c.5522847 0 1-.4477153 1-1s-.4477153-1-1-1zm-2.995 0h-.005c-.5513018-.0027565-.9963752-.4511805-.9949969-1.0024875s.4486882-.9975.9999969-.9975.9986186.446193.9999969.9975-.4436951.999731-.9949969 1.0024875zm-3.77-24.13 2.655 20.349c-1.1391153.4536658-1.8875078 1.5548719-1.89 2.781.0031941.3414512.0654457.679775.184 1h-8.854c.4638743-.7890305.5008115-1.7581936.0983395-2.5802427s-1.1906278-1.3872499-2.0983395-1.5047573c-.6206084-.0758161-1.1433557-.4995288-1.346-1.091l-2.962-15.808 1.117-5.025 3.827.69c-.0129915.0581173-.0230046.1168606-.03.176l-.936 13.072c-.0392122.5522847.3767153 1.0317878.929 1.071s1.0317878-.3767153 1.071-.929l.931-13.071h6.313c.5018375.000258.9257612.372421.991.87zm-16.035 2.13h-5.995l1.02-5.456c.055.015.1.038.159.051l5.785 1.042zm-6.2000102 2h6.1700102l2.652 14.132-2.091.229-2.521-8.861c-.2470051-.7713216-.7941366-1.4107229-1.518-1.774l-1.586-.793c-.6794407-.3363531-1.1084258-1.029866-1.106-1.788zm9.3830102 16.083c.5600078.9923598 1.5527283 1.6649076 2.682 1.817.3610847.0477609.6343102.3502287.6452371.7142944.010927.3640657-.2436668.6823753-.6012371.7517056l-3.2.614c-.2604433.0501321-.5301343-.0052529-.7497409-.1539702-.2196066-.1487174-.3711387-.3785843-.4212591-.6390298l-.551-2.861zm-7.583-10.568c.2338543.1141054.4134478.3156094.5.561l.912 3.2-2.232 4.29-2-.867 2.329-7.43zm.918 11.7c-.347647-.312309-.5461517-.7576721-.546-1.225-.0031063-.2050084.0332193-.4087031.107-.6l1.728-3.318 1.014 3.559.753 3.928c.0312865.149852.0733969.2972384.126.441h-2.378c.2918266-1.0066983-.0218873-2.0914632-.806-2.787zm4.636-38.695-1.428-.3 1.192-1.891c.1971481.1339995.4036812.2536417.618.358l1.317.6-.892 1.483c-.2614654-.1059509-.5314288-.1895827-.807-.25zm7.091-14.16c1.8774564.85104318 2.7969571 2.99264307 2.121 4.94-.160303.47663137-.1923767.98705091-.093 1.48l.5 2.428-.88-.4c-.5020507-.227953-1.0938813-.0065198-1.323.495l-.83 1.817c-.4593805 1.0030164-1.6441854 1.4446337-2.648.987l-2.728-1.237c-.7273224-.3300137-1.2934732-.9358239-1.5735627-1.6837923s-.2511039-1.5766376.0805627-2.3032077l.409-.9 1.819.83c1.5085658.68704223 3.2884578.02106579 3.9755-1.4875s.0210658-3.28845777-1.4875-3.9755l-1.326-.6c1.1655747-.8254257 2.6804816-.9737223 3.984-.39zm-7.545 2.062c.2291256-.50208461.8216866-.72362366 1.324-.495l2.734 1.243c.3251117.14826521.5464287.45871295.5805831.81440055.0341544.35568759-.1240427.70257764-.415.91000001s-.6704714.24386467-.9955831.09559944l-2.728-1.244c-.2420139-.1091141-.4307083-.3099828-.5244979-.55833764-.0937896-.24835483-.0849762-.5238111.0244979-.76566236zm-3.543 13.344c.1075367-.0004109.2148104.0106517.32.033l3.271.68c1.6202577.3384705 2.6602281 1.9252755 2.324 3.546l-.793 3.812-2.959-.5.61-2.939c.0775626-.3517014-.039987-.7179422-.307742-.9588095-.267755-.2408674-.6443482-.319148-.9859117-.2049367-.3415635.1142112-.5953269.403269-.6643463.7567462l-.611 2.943c-.1069743.5250414.0012064 1.0710505.3002932 1.5156391.2990869.4445886.7640641.7505709 1.2907068.8493609l3.826.654c.025.008.052.015.079.021.0505138.0097726.1016302.0161204.153.019l6 1.026c.2659571.0566376.4973815.219139.6409563.450066.1435747.230927.1869178.5103646.1200437.773934l-.011.05c-.1588628.5073061-.6825441.8058045-1.2.684l-12.98-2.343c-.2659803-.0577699-.5182789-.1664314-.743-.32-.6644738-.4535948-.9875958-1.2647617-.817-2.051l1.5-7.179c.1729341-.7664576.8512936-1.3126261 1.637-1.318zm-5.557 2.825c-1.0892892-.2134339-2.1477687.4885052-2.375 1.575l-1.251 7.114c-.0589897.268224-.2256952.5003823-.461.642-.2292465.1406479-.5062593.1807894-.766.111-.0184246-.0050561-.0371214-.0090626-.056-.012-.5059719-.1592581-.7995608-.6858749-.669-1.2l1.53-7.821c.4159757-2.1584268 2.4956971-3.5767637 4.657-3.176l1.534.282c-.076038.1846511-.1365802.3753088-.181.57l-.462 2.235zm2.8 37.35-2.993-1.3c-.2447559-.103937-.4380368-.3010759-.5371169-.5478378-.0990801-.246762-.0957994-.5228245.0091169-.7671622l1.193-2.754 1.957.848c-.0339582.1875535-.0533494.3774539-.058.568.0009883 1.0352104.4419921 2.0211974 1.213 2.712.237327.2061575.3144974.5419094.191.831-.009.021-.017.042-.025.064-.1300886.2475258-.3873775.401822-.667.4h-.019c-.0906508-.0008834-.1802831-.0192173-.264-.054z" data-original="#000" class="active-path" style="fill:#3762CC" data-old_color="#000"/><path id="Shape" d="m20 14c0-.5522847-.4477153-1-1-1s-1 .4477153-1 1v1.442l-10.265-11.121c-.37500135-.40592929-1.00807071-.43100135-1.414-.056s-.43100135 1.00807071-.056 1.414l10.451 11.321h-1.716c-.5522847 0-1 .4477153-1 1s.4477153 1 1 1h4c.5522847 0 1-.4477153 1-1z" data-original="#000" class="active-path" style="fill:#3762CC" data-old_color="#000"/><path id="Shape" d="m19 39c.5522847 0 1-.4477153 1-1v-4c0-.5522847-.4477153-1-1-1h-4c-.5522847 0-1 .4477153-1 1s.4477153 1 1 1h1.715l-10.45 11.321c-.37500135.4059293-.34992929 1.0389987.056 1.414s1.03899865.3499293 1.414-.056l10.265-11.121v1.442c0 .5522847.4477153 1 1 1z" data-original="#000" class="active-path" style="fill:#3762CC" data-old_color="#000"/><path id="Shape" d="m0 26c0 .5522847.44771525 1 1 1h13.586l-1.293 1.293c-.2599566.2510745-.3642126.6228779-.2726972.9725073.0915155.3496295.3645604.6226744.7141899.7141899.3496294.0915154.7214328-.0127406.9725073-.2726972l3-3c.3903819-.3904999.3903819-1.0235001 0-1.414l-3-3c-.3923789-.3789722-1.0160848-.3735524-1.4018186.0121814s-.3911536 1.0094397-.0121814 1.4018186l1.293 1.293h-13.586c-.55228475 0-1 .4477153-1 1z" data-original="#000" class="active-path" style="fill:#3762CC" data-old_color="#000"/></g></g></g></g> </svg>
