<?xml version="1.0"?>
<svg xmlns="http://www.w3.org/2000/svg" id="Layer_1" enable-background="new 0 0 512 512" height="512px" viewBox="0 0 512 512" width="512px" class="hovered-paths"><g><path d="m117.125 504h-51.466c-23.233 0-42.198-18.629-42.55-41.858-1.465-96.761 9.339-329.088 145.474-347.332 33.37-4.472 44.528 169.439 48.259 286.245 1.799 56.318-43.367 102.945-99.717 102.945z" fill="#ff5a7f" data-original="#FF5A7F"/><path d="m93.785 489.914c-23.234 0-42.199-18.629-42.55-41.858-.143-9.479-.169-20.258.029-32.009.132-7.802-6.107-9.383-6.581-25.029-.444-14.664 9.028-29.316 9.314-32.92 6.942-87.653 29.05-194.428 92.86-238.258-115.578 38.837-125.131 250.964-123.748 342.302.352 23.229 19.317 41.858 42.55 41.858h51.465c21.722 0 41.778-6.934 58.127-18.675-18.746 5.9-27.129 4.589-81.466 4.589z" fill="#ff8595" data-original="#FF8595"/><path d="m394.866 504h51.465c23.233 0 42.198-18.629 42.55-41.858 1.465-96.761-9.339-329.088-145.474-347.332-33.37-4.472-44.528 169.439-48.259 286.245-1.798 56.318 43.368 102.945 99.718 102.945z" fill="#ff5a7f" data-original="#FF5A7F"/><path d="m400.218 166.818c4.439 6.325 12.754 8.221 16.575 15.282 2.816 5.203 1.273 15.418 3.775 20.956 36.618 81.056 40.534 195.028 39.618 255.726-.351 23.249-19.299 41.903-42.551 41.903h-48.377c8.167 2.162 16.749 3.316 25.609 3.316h51.465c23.253 0 42.2-18.657 42.551-41.907 1.243-82.356-6.408-262.781-92.562-326.001-3.908 10.293-2.386 21.772 3.897 30.725z" fill="#d04d7f" data-original="#D04D7F"/><path d="m321.379 391.246c.255-7.901.284-16.077.864-24.414.986-14.19 7.499-19.437 8.053-32.652.302-7.201-5.846-14.974-5.425-22.26 4.666-80.897 9.552-159.996 18.538-197.11-33.37-4.472-44.528 169.439-48.259 286.245-1.8 56.318 43.366 102.945 99.716 102.945 0 0-75.652-45.769-73.487-112.754z" fill="#ff8595" data-original="#FF8595"/><path d="m277.956 188.748v-169.709c0-6.096-4.942-11.039-11.039-11.039h-21.841c-6.097 0-11.039 4.942-11.039 11.039v169.71c0 7.118-3.132 13.876-8.565 18.476l-60.994 51.657c-6.652 5.633-7.477 15.592-1.843 22.243 5.475 6.464 15.095 7.463 21.782 2.22l56.86-44.579c8.643-6.776 20.797-6.776 29.44 0l56.86 44.579c6.677 5.235 16.299 4.255 21.782-2.22 5.633-6.651 4.809-16.61-1.843-22.243l-60.994-51.657c-5.434-4.601-8.566-11.358-8.566-18.477z" fill="#ffd3be" data-original="#FFD3BE" class=""/><path d="m348.543 259.846c-5.582 5.67-14.607 6.336-20.968 1.349l-56.86-44.579c-8.643-6.776-20.797-6.776-29.44 0l-56.86 44.579c-6.361 4.987-15.385 4.322-20.968-1.349-5.687 5.751-6.141 14.991-.815 21.279 5.484 6.474 15.105 7.455 21.782 2.22l56.86-44.579c8.643-6.777 20.797-6.777 29.44 0l56.86 44.579c6.677 5.235 16.299 4.254 21.782-2.22 5.328-6.289 4.873-15.528-.813-21.279z" fill="#ffaea7" data-original="#FFAEA7"/><ellipse cx="58.38" cy="387.116" fill="#ff8595" rx="8.817" ry="4.849" transform="matrix(.072 -.997 .997 .072 -331.919 417.676)" data-original="#FF8595"/><ellipse cx="334.422" cy="367.036" fill="#ff8595" rx="5.902" ry="7.937" data-original="#FF8595"/><ellipse cx="403.163" cy="187.336" fill="#de4d7f" rx="6.682" ry="7.786" transform="matrix(.952 -.306 .306 .952 -37.982 132.324)" data-original="#DE4D7F"/><g fill="#231f20"><path d="m344.471 106.88c-4.809-.646-9.56.731-13.736 3.978-8.366 6.502-20.354 23.867-30.141 97.802-5.388-5.572-14.638-9.007-14.638-19.911v-169.71c0-10.498-8.542-19.039-19.04-19.039h-21.842c-10.498 0-19.039 8.541-19.039 19.039v169.71c0 9.175-5.938 12.543-14.638 19.911-9.787-73.935-21.775-91.3-30.141-97.802-4.177-3.247-8.928-4.623-13.736-3.978-44.838 6.009-80.549 34.228-106.142 83.871-2.024 3.927-.482 8.752 3.445 10.776 3.926 2.025 8.752.482 10.776-3.445 23.055-44.721 54.696-70.07 94.045-75.344.212-.028.704-.094 1.792.752 14.5 11.267 23.222 79.549 25.394 97.504-39.751 33.679-37.618 31.827-38.412 32.57-9.073 8.476-10.24 22.874-1.891 32.731 8.346 9.853 22.823 11.186 32.823 3.345l13.138-10.3c2.775 35.762 4.91 76.705 6.356 121.969 1.657 51.861-39.842 94.69-91.722 94.69h-51.462c-18.768 0-34.268-15.243-34.551-33.979-1.604-105.953 13.476-175.291 22.608-207.192 1.216-4.248-1.242-8.677-5.489-9.893-4.25-1.217-8.677 1.242-9.893 5.489-21.843 76.305-23.927 165.476-23.225 211.839.415 27.425 23.092 49.737 50.55 49.737h51.465c60.935 0 109.658-50.308 107.714-111.201-1.599-50.04-4.04-94.841-7.254-133.292l28.628-22.445c5.761-4.517 13.807-4.517 19.567 0l28.628 22.445c-3.215 38.451-5.655 83.253-7.255 133.292-1.945 60.904 46.79 111.201 107.714 111.201h51.465c27.458 0 50.134-22.312 50.549-49.737 2.017-133.258-20.492-337.702-152.41-355.383zm-108.131 125.59c-11.087 8.692-45.093 35.355-56.86 44.579-3.319 2.602-8.05 2.083-10.742-1.095-2.754-3.251-2.402-8.164.909-10.968l60.995-51.657c7.241-6.133 11.394-15.092 11.394-24.582v-47.347h8.791c4.418 0 8-3.582 8-8s-3.582-8-8-8h-8.791v-106.361c0-1.675 1.363-3.039 3.039-3.039h21.842c1.676 0 3.039 1.363 3.039 3.039v43.202h-7.281c-4.418 0-8 3.582-8 8s3.582 8 8 8h7.281v110.508c0 9.489 4.153 18.449 11.394 24.582l60.995 51.657c5.55 4.7 2.138 13.674-4.968 13.729-3.762.029.357 2.426-61.725-46.246-11.573-9.073-27.739-9.074-39.312-.001zm244.543 229.551c-.284 18.736-15.783 33.979-34.552 33.979h-51.465c-51.887 0-93.378-42.837-91.722-94.69 1.446-45.264 3.581-86.207 6.356-121.969 9.322 6.651 26.286 26.51 44.474 8.546 8.045-7.936 9.096-19.764 4.044-28.679-3.574-6.306-4.428-5.099-42.861-38.212 9.365-77.369 20.838-93.964 25.394-97.505 1.088-.847 1.579-.781 1.792-.752 120.897 16.202 140.391 216.974 138.54 339.282z" data-original="#231F20" class="hovered-path active-path" style="fill:#3762CC" data-old_color="#231F20"/><path d="m135.289 289.454c-1.293-6.397-9.417-8.818-14.047-3.47l-12.176 14.957c-10.045 12.34-23.321 11.268-26.651 12.198-4.375.616-7.422 4.662-6.807 9.037.563 3.997 3.988 6.886 7.912 6.886.984 0 1.111-.089 7.831-1.023 5.102-.709 9.983-2.248 14.497-4.492-.664 10.476 2.143 17.179 3.208 21.649.859 3.61 4.186 5.959 7.729 5.959 5.247 0 9.08-4.971 7.74-10.045-.438-3.467-6.471-15.336.914-29.293 9.425-17.815 10.641-18.42 9.85-22.363z" data-original="#231F20" class="hovered-path active-path" style="fill:#3762CC" data-old_color="#231F20"/><path d="m156.473 389.763c2.978-5.614-1.536-12.356-7.895-11.701-5.571.619-6.938 5.301-17.554 17.863-10.271 12.153-23.321 11.268-26.651 12.198-4.375.616-7.422 4.662-6.807 9.037.616 4.374 4.676 7.53 9.037 6.807 4.507-.748 11.791-.757 21.202-5.436-.664 10.476 2.143 17.179 3.208 21.649.859 3.61 4.186 5.959 7.729 5.959 5.247 0 9.08-4.971 7.74-10.045-.438-3.467-6.511-15.358.914-29.293.088-.164 9.133-17.142 9.077-17.038z" data-original="#231F20" class="hovered-path active-path" style="fill:#3762CC" data-old_color="#231F20"/><path d="m441.349 317.38c-3.366-.94-16.682.048-26.651-12.198-.114-.14-12.27-15.072-12.187-14.969-3.441-4.219-10.007-3.776-12.882.674-2.71 4.128-.393 8.05-.372 8.15l9.068 17.021c7.482 14.043 1.347 25.864.914 29.293-1.128 4.272 1.42 8.649 5.692 9.778 4.3 1.135 8.761-1.421 9.778-5.692 1.058-4.445 3.873-11.161 3.208-21.649 9.4 4.673 16.668 4.684 21.202 5.436 4.357.723 8.421-2.43 9.037-6.807.615-4.375-2.432-8.421-6.807-9.037z" data-original="#231F20" class="hovered-path active-path" style="fill:#3762CC" data-old_color="#231F20"/><path d="m401.535 397.078c-3.366-.94-16.678.044-26.651-12.198-12.773-15.678-12.153-14.989-12.728-15.569-5.71-5.701-15.256-.279-13.433 7.486.343 1.474-.174.238 9.789 18.958 7.476 14.046 1.347 25.865.914 29.294-1.128 4.272 1.42 8.649 5.692 9.778 4.3 1.135 8.762-1.421 9.778-5.692 1.058-4.445 3.872-11.162 3.207-21.65 9.4 4.673 16.668 4.684 21.201 5.436 4.357.723 8.421-2.43 9.037-6.807.616-4.374-2.431-8.421-6.806-9.036z" data-original="#231F20" class="hovered-path active-path" style="fill:#3762CC" data-old_color="#231F20"/><path d="m56.251 229.962c4.418 0 8-3.582 8-8s-3.582-8-8-8c-4.54 0-8.013 3.667-8.013 8 .001 4.419 3.595 8 8.013 8z" data-original="#231F20" class="hovered-path active-path" style="fill:#3762CC" data-old_color="#231F20"/></g></g> </svg>
