<svg xmlns="http://www.w3.org/2000/svg" viewBox="0 0 599.33 418.82"><defs><style>.cls-1{fill:#d1eae7;}.cls-2{fill:#7ac9cd;}.cls-3{fill:#0cb5b8;}.cls-4{fill:#f7ab8b;}.cls-5{fill:#fff;}.cls-6{fill:#c6e8f7;}.cls-7{fill:#a6d2e2;}.cls-8{fill:#a0c663;}.cls-9{fill:#febf9e;}.cls-10{fill:#ebf8ff;}.cls-11{fill:#dd4048;}.cls-12{fill:#ea4d50;}.cls-13{fill:#0b4352;}.cls-14{fill:#f7a079;}.cls-15{fill:#f8a17a;}.cls-16{fill:#356880;}.cls-17{fill:#7da3a6;}.cls-18{fill:#285360;}.cls-19{fill:#3d838f;}.cls-20{fill:#eaca2a;}.cls-21{fill:#fbb32a;}.cls-22{fill:#569b99;}.cls-23{fill:#69b7b7;}.cls-24{fill:#0a707e;}.cls-25{fill:#93a9aa;}.cls-26{fill:#0d738e;}.cls-27{fill:#e1f1f9;}.cls-28{fill:#0da0a0;}.cls-29{fill:#a6774c;}.cls-30{fill:#8e6342;}</style></defs><title>Recurso 2</title><g id="Capa_2" data-name="Capa 2"><g id="OBJECTS"><path class="cls-1" d="M2.38,114.31c1.54-30.2,7.54-61.55,25.87-85.2S79.94-7.86,106.54,5c30,14.53,53.3,63.12,86.38,65.84C212.39,72.44,222,63.22,236.73,50c17-15.28,27.6-29.39,48.73-37.65s53.08-5.43,68.88,11.21c14.86,15.65,23.46,25.5,40.85,38.11,14.56,10.57,28.71,3.82,45.56-2.17s33.59-18.45,51.06-22c38.36-7.83,63.91,20,78.36,48.55s22,75.86,17,107.68S574,247.92,548.34,280.91C516.28,322.16,436,330.11,389,330c-114-.18-318.2,54.44-377.48-139C5.16,170.32,1.27,136,2.38,114.31Z"/><rect class="cls-2" y="358.05" width="599.33" height="60.77" rx="29.88"/><path class="cls-3" d="M279.19,108.63c-1.78.37-14.7,7.37-16,8.65-2.88,2.87-2.94,7.44-2.82,11.51,1.05,34-3.09,97.15-2.92,105.29,0,1.47,42.33,1.7,64.92.27,0-44-2-81.81-2.33-122,0-1.41-11.42-3.81-17.54-4.59C291.88,106.44,288.28,106.76,279.19,108.63Z"/><path class="cls-4" d="M279.19,112.78a26.49,26.49,0,0,0,13.21,2.73c4.58-.25,9.66-2.26,11.15-6.6-2.21.17-3.27-2.62-3.62-4.8-.72-4.43.11-9-.61-13.48-3.05-3.64-15.2-6.19-19,1.74-.17,2.67,0,8.73.11,12.09C280.54,108.94,279.69,111.79,279.19,112.78Z"/><path class="cls-5" d="M258.13,114.6c-1.64,1.61.85,94.39-4.66,130-.11.69,49.92,6.78,77.72-1.55-6.27-41-4.38-92.15-8.81-133.35-5.6-2.66-13.36-3.75-20.51-3.75,1,18.71-.85,40.24-7.8,58.34-10-12.1-14.07-51.67-14.88-58.34C273.12,108,264.07,108.82,258.13,114.6Z"/><path class="cls-2" d="M277.75,109.67c0,3.76,6,11.7,9.37,15.09.7-3.4,2.25-5.65,4.25-8.48a22.32,22.32,0,0,1,4.55,7.93c.18.46,6.19-6.06,6.95-13.85.3-3.06-.8-8.33-3.38-10-.77,4.54-3.83,15-8.12,14.7s-9.54-9.65-11-13.7C279.06,102.13,277.75,108.05,277.75,109.67Z"/><rect class="cls-6" x="283.47" y="162.01" width="12.53" height="6.35" transform="translate(74.12 419.63) rotate(-79.41)"/><path class="cls-6" d="M296.29,179.45a9,9,0,0,1-3.73,5.77l-12.69-2.37a9.06,9.06,0,1,1,16.42-3.4Z"/><rect class="cls-7" x="286.93" y="157.04" width="8.29" height="2" transform="translate(34 -50.8) rotate(10.59)"/><path class="cls-8" d="M295.21,179.24a8,8,0,0,1-3.12,5l-11.42-2.14a8,8,0,0,1,6.19-12.23l1.43-7.61,3.86.73-1.42,7.6A8,8,0,0,1,295.21,179.24Z"/><path class="cls-9" d="M280.83,165.18c1.29-.4,4.93-.53,5.94-1.42l-.5,2.71a8.19,8.19,0,0,1-1.47.77c2.45.87,10,1.63,10,2.54,0,1.54-6.42.23-6.3.93.33,1.77,7.41,1.54,7.41,2.69,0,1.88-7.6-.48-7.62.37,0,1.33,6.75,1.66,7,2.63.46,1.66-8.09-.67-8.47-.08-.58.9,5.54,1.89,4.95,2.59-1.51,1.82-13.31-4.84-20.8-4.89l-.62-7.74C277.52,167.49,280.5,165.29,280.83,165.18Z"/><path class="cls-10" d="M226.83,173.25c3,5.39,49.5,4.1,49.53,3.28.18-4.38.36-7.94.54-12.31-9.11-.76-20.35-.9-30.49-1.75,5-7.27,11.26-15.69,15-21.6a28.82,28.82,0,0,0,4.54-17.9c-.78-8.3-2.55-12.08-6.57-9.35C244.45,123.76,221.16,163.24,226.83,173.25Z"/><path class="cls-10" d="M352.21,130.2a26.94,26.94,0,0,1,6.78,7.61c1.87,3.19.33,13.22-8.66,9.58-4.15-1.68-8.07-3.88-12.1-5.82-3-1.43-6-2.87-8.81-4.53-3.82-2.22-6.72-3.3-9.37-6.84-5.2-7-6.35-25.2,2.33-20.51A181.13,181.13,0,0,1,352.21,130.2Z"/><rect class="cls-5" x="319.48" y="72.77" width="6.14" height="12.77"/><rect class="cls-11" x="320.65" y="76.28" width="3.8" height="9.26"/><rect class="cls-10" x="318.54" y="70.84" width="8.01" height="1.93"/><path class="cls-5" d="M329.83,99.56H315.26a2,2,0,0,1-1.79-2.86l6-12.46h6.13l6,12.46A2,2,0,0,1,329.83,99.56Z"/><path class="cls-12" d="M329.77,98H315.31a.63.63,0,0,1-.57-.89l5.91-12.91h3.79l5.91,12.91A.63.63,0,0,1,329.77,98Z"/><path class="cls-9" d="M334.86,83.08a15.5,15.5,0,0,0-3.07-2.77,22.62,22.62,0,0,0-6.64-2.17c-4.21-.78-8.18-1.36-8.39-1-.8,1.3,5.64,2.64,6.37,3.2-.09.54-7.6-1-7.92-.33-.49,1,4.83,2.5,6.18,3.1-1.56,0-4.45-1.17-5.33-.26s5.14,1.89,6.48,2.74c-.74.51-6.23-1.2-6.32.23.29.79,3.84,2.3,6.85,2.83s7.17,3.8,9,6.29c.56.74,10.56-.79,9.2-3.5C340.26,89.31,336.46,84.83,334.86,83.08Z"/><path class="cls-10" d="M339.61,88c-2.75,0-8,2.07-9.84,4.81,7.38,14.56,7.14,29,13.11,44.08,1.3,3.27,3,6.53,5.73,8.72s6.08,3,8.92,1C371,136.83,341.53,88,339.61,88Z"/><path class="cls-9" d="M278.89,95.75c1.49,4.36,7.82,11.15,15.69,8.87,4-1.16,7.15-6.63,7.85-10.73a104.36,104.36,0,0,0,1.55-26c-.39-4.78-5.39-4.44-10-5.58a22.89,22.89,0,0,0-14.07,1.27c-2,.83-5.05,2.07-4.46,8C276.58,83.32,276.14,87.75,278.89,95.75Z"/><path class="cls-13" d="M279.42,73.33c7.84,4.23,20.16-5.13,21.43,3.69a17.78,17.78,0,0,1,.25,5.06c-.25,3,.26,4,1.82,4,.53,0,1.18.42,2.8-2.7.44-.84,2-11.57-1.48-17.78-.7-1.25-2.83-3.85-4.16-4.36a27.22,27.22,0,0,0-20.21.44c-2.63,1.07-6.06,2.21-5.26,4.94-1.43,0-2.59,2.88-3.1,4.22s-.15,4,0,5.44c.68,6.6.17,9.77,5.39,10.88,1.83,0,1.48-2.57,1.32-3.78C277.89,80.84,278.81,75.36,279.42,73.33Z"/><path class="cls-9" d="M276.9,87.16c-.2-4.58-2.38-7.27-4.11-5.82-2.38,2-.9,6.32.08,7.66s2.87,2.66,4.27,2.06C278.13,90.68,276.9,87.16,276.9,87.16Z"/><path class="cls-14" d="M293.65,92c0-2.26-2.09-3.39-2.68-10a1.2,1.2,0,0,0-1.24-1.12,107.55,107.55,0,0,0-.19,11.5C289.54,92.54,293.65,92.53,293.65,92Z"/><path class="cls-15" d="M287.67,96.08a8.41,8.41,0,0,0,3.67.92,6,6,0,0,0,1.68-.27,3.47,3.47,0,0,0,1.56-.86.36.36,0,0,0-.43-.56c-.24.11-.44.3-.67.43a4.09,4.09,0,0,1-.75.31,5.12,5.12,0,0,1-1.5.25,8.84,8.84,0,0,1-3.35-.72c-.28-.12-.49.36-.21.5Z"/><path class="cls-15" d="M275.53,84.12a2.07,2.07,0,0,0-1.45-1.19,1,1,0,0,0-1.08.77,4.79,4.79,0,0,0,.6,4c.37.57,1,1.42,1.78,1.42a.21.21,0,0,0,.18-.31,3.61,3.61,0,0,0-.75-.71,4,4,0,0,1-.69-.79,4.32,4.32,0,0,1-.72-2,4.19,4.19,0,0,1,0-1.06c.05-.25.09-.63.35-.74.53-.25,1.09.49,1.35.83s.54,0,.39-.23Z"/><path class="cls-9" d="M302.72,86.29c-.1-4.58,1.89-7.4,3.72-6.07,2.5,1.81,1.31,6.25.42,7.65s-2.68,2.84-4.13,2.34C301.72,89.89,302.72,86.29,302.72,86.29Z"/><path class="cls-15" d="M304.29,83.39c.23-.36.77-1.18,1.32-.92.25.11.31.49.37.73a3.58,3.58,0,0,1,.11,1,4.2,4.2,0,0,1-.56,2,4.47,4.47,0,0,1-.64.86,3.7,3.7,0,0,0-.72.76.21.21,0,0,0,.18.31c.67,0,1.2-.75,1.54-1.27a5,5,0,0,0,.74-2,4.79,4.79,0,0,0-.13-2.06c-.17-.53-.44-1-1.05-1s-1.26.7-1.56,1.29a.23.23,0,0,0,.4.23Z"/><rect class="cls-5" x="396.4" y="187.14" width="7.98" height="13.18"/><path class="cls-5" d="M411.77,208.55a11.29,11.29,0,0,1-3.28,8h-16.2a11.38,11.38,0,1,1,19.48-8Z"/><rect class="cls-10" x="395.19" y="184.62" width="10.41" height="2.52"/><path class="cls-8" d="M410.39,208.55a10,10,0,0,1-2.71,6.84H393.09a10,10,0,0,1,4.83-16.53V191.7h4.94v7.16A10,10,0,0,1,410.39,208.55Z"/><rect class="cls-5" x="425.03" y="181.05" width="7.98" height="31.41"/><rect class="cls-12" x="426.55" y="191.08" width="4.94" height="21.39"/><rect class="cls-10" x="423.82" y="178.53" width="10.41" height="2.52"/><polygon class="cls-10" points="436.66 216.26 421.38 216.26 425.03 212.46 433.01 212.46 436.66 216.26"/><rect class="cls-13" x="85.42" y="216.26" width="475.26" height="12.21"/><rect class="cls-16" x="111.53" y="228.47" width="423.05" height="150.35"/><rect class="cls-17" x="368.82" y="235.41" width="68.81" height="21.18"/><rect class="cls-18" x="368.82" y="253.7" width="68.81" height="2.89"/><path class="cls-19" d="M411.72,238.12h-17a2.46,2.46,0,0,0,0,4.92h17a2.46,2.46,0,0,0,0-4.92Z"/><rect class="cls-17" x="368.82" y="263.42" width="68.81" height="21.18"/><rect class="cls-18" x="368.82" y="281.71" width="68.81" height="2.89"/><path class="cls-19" d="M411.72,266.14h-17a2.46,2.46,0,0,0,0,4.92h17a2.46,2.46,0,0,0,0-4.92Z"/><rect class="cls-17" x="368.82" y="291.44" width="68.81" height="21.18"/><rect class="cls-18" x="368.82" y="309.73" width="68.81" height="2.89"/><path class="cls-19" d="M411.72,294.15h-17a2.46,2.46,0,0,0,0,4.92h17a2.46,2.46,0,0,0,0-4.92Z"/><rect class="cls-17" x="368.82" y="319.45" width="68.81" height="21.18"/><rect class="cls-18" x="368.82" y="337.74" width="68.81" height="2.89"/><path class="cls-19" d="M411.72,322.16h-17a2.46,2.46,0,0,0,0,4.92h17a2.46,2.46,0,0,0,0-4.92Z"/><rect class="cls-17" x="368.82" y="347.46" width="68.81" height="21.18"/><rect class="cls-18" x="368.82" y="365.75" width="68.81" height="2.89"/><path class="cls-19" d="M411.72,350.17h-17a2.46,2.46,0,0,0,0,4.92h17a2.46,2.46,0,0,0,0-4.92Z"/><rect class="cls-17" x="445.77" y="235.41" width="76.61" height="133.23" transform="translate(968.14 604.05) rotate(180)"/><rect class="cls-18" x="445.77" y="365.42" width="76.61" height="3.22" transform="translate(968.14 734.06) rotate(180)"/><path class="cls-19" d="M459.86,282.86a2.57,2.57,0,0,1,2.57,2.57v20.45a2.57,2.57,0,0,1-5.14,0V285.43A2.57,2.57,0,0,1,459.86,282.86Z"/><rect class="cls-17" x="124.75" y="235.41" width="68.81" height="21.18"/><rect class="cls-18" x="124.75" y="253.7" width="68.81" height="2.89"/><path class="cls-19" d="M167.66,238.12h-17a2.46,2.46,0,0,0,0,4.92h17a2.46,2.46,0,0,0,0-4.92Z"/><rect class="cls-17" x="124.75" y="263.42" width="68.81" height="21.18"/><rect class="cls-18" x="124.75" y="281.71" width="68.81" height="2.89"/><path class="cls-19" d="M167.66,266.14h-17a2.46,2.46,0,0,0,0,4.92h17a2.46,2.46,0,0,0,0-4.92Z"/><rect class="cls-17" x="124.75" y="291.44" width="68.81" height="21.18"/><rect class="cls-18" x="124.75" y="309.73" width="68.81" height="2.89"/><path class="cls-19" d="M167.66,294.15h-17a2.46,2.46,0,0,0,0,4.92h17a2.46,2.46,0,0,0,0-4.92Z"/><rect class="cls-17" x="124.75" y="319.45" width="68.81" height="21.18"/><rect class="cls-18" x="124.75" y="337.74" width="68.81" height="2.89"/><path class="cls-19" d="M167.66,322.16h-17a2.46,2.46,0,0,0,0,4.92h17a2.46,2.46,0,1,0,0-4.92Z"/><rect class="cls-17" x="124.75" y="347.46" width="68.81" height="21.18"/><rect class="cls-18" x="124.75" y="365.75" width="68.81" height="2.89"/><path class="cls-19" d="M167.66,350.17h-17a2.46,2.46,0,0,0,0,4.92h17a2.46,2.46,0,1,0,0-4.92Z"/><rect class="cls-17" x="202.71" y="235.41" width="76.61" height="133.23"/><rect class="cls-18" x="202.71" y="365.42" width="76.61" height="3.22"/><path class="cls-19" d="M265.23,282.86a2.57,2.57,0,0,0-2.57,2.57v20.45a2.57,2.57,0,0,0,5.14,0V285.43A2.57,2.57,0,0,0,265.23,282.86Z"/><rect class="cls-17" x="284.07" y="235.41" width="76.61" height="133.23" transform="translate(644.75 604.05) rotate(180)"/><rect class="cls-18" x="284.07" y="365.42" width="76.61" height="3.22" transform="translate(644.75 734.06) rotate(180)"/><path class="cls-19" d="M298.16,282.86a2.57,2.57,0,0,1,2.57,2.57v20.45a2.57,2.57,0,1,1-5.13,0V285.43A2.56,2.56,0,0,1,298.16,282.86Z"/><rect class="cls-6" x="267.07" y="189.37" width="6.85" height="11.32"/><rect class="cls-20" x="268.37" y="193.28" width="4.24" height="7.4"/><rect class="cls-7" x="266.02" y="187.21" width="8.93" height="2.16"/><path class="cls-6" d="M278.62,216.33H262.36a2.22,2.22,0,0,1-2-3.19l6.71-13.91h6.85l6.71,13.91A2.23,2.23,0,0,1,278.62,216.33Z"/><path class="cls-21" d="M278.56,214.64H262.42a.71.71,0,0,1-.64-1l6.59-14.4h4.24l6.6,14.4A.72.72,0,0,1,278.56,214.64Z"/><rect class="cls-5" x="132.15" y="181.05" width="7.98" height="31.41"/><rect class="cls-8" x="133.67" y="191.08" width="4.94" height="21.39"/><rect class="cls-7" x="130.93" y="178.53" width="10.41" height="2.52"/><polygon class="cls-10" points="143.77 216.26 128.5 216.26 132.15 212.46 140.13 212.46 143.77 216.26"/><rect class="cls-5" x="152.49" y="181.05" width="7.98" height="31.41"/><rect class="cls-21" x="154.01" y="191.08" width="4.94" height="21.39"/><rect class="cls-7" x="151.27" y="178.53" width="10.41" height="2.52"/><polygon class="cls-10" points="164.11 216.26 148.84 216.26 152.49 212.46 160.47 212.46 164.11 216.26"/><rect class="cls-22" x="356.79" y="201.9" width="10.76" height="2.28" transform="translate(81.79 -103.19) rotate(18.25)"/><polygon class="cls-23" points="361.41 209.34 365.48 190.31 345.45 182.74 346.78 178.91 371.25 188.38 371.25 209.34 361.41 209.34"/><path class="cls-23" d="M389.19,187.71C385.3,198,375.35,203,372.36,202.59a5.47,5.47,0,0,1-4.23-3.15c-1.46-3-.06-5.53,3.12-6.16,5.88-1.17,8.53-9,8.77-15.7.43-11.77-6.21-12.43-6.21-12.43,1.16-2.84,0,0,1.76-4.29L380,149.92S398.4,163.43,389.19,187.71Z"/><rect class="cls-23" x="341.34" y="211.33" width="48.27" height="4.93"/><rect class="cls-22" x="341.34" y="213.04" width="48.27" height="3.22"/><rect class="cls-2" x="345.45" y="209.34" width="22" height="1.99"/><polygon class="cls-2" points="380.02 149.92 377.47 144.28 367.92 168.92 373.81 165.15 380.02 149.92"/><rect class="cls-22" x="362.98" y="141.57" width="10.05" height="26.43" transform="translate(80.78 -122.51) rotate(21.18)"/><rect class="cls-23" x="363.22" y="140.29" width="3" height="26.43" transform="translate(80.1 -121.41) rotate(21.18)"/><path class="cls-22" d="M377.78,134.62l-3.4-1.32a.74.74,0,0,0-1,.42l-3,7.82,4.77,1.85,3-7.82A.73.73,0,0,0,377.78,134.62Z"/><path class="cls-23" d="M377.78,134.62l-3.4-1.32a.74.74,0,0,0-1,.42l-1,2.7,4.77,1.85,1.05-2.7A.73.73,0,0,0,377.78,134.62Z"/><rect class="cls-24" x="369.55" y="139.99" width="7.4" height="2.56" transform="translate(76.25 -125.31) rotate(21.18)"/><rect class="cls-24" x="352.39" y="166.25" width="16.87" height="3.7" transform="translate(85.11 -119.01) rotate(21.18)"/><rect class="cls-22" x="353.48" y="168.32" width="4.43" height="6.06" transform="translate(85.94 -116.94) rotate(21.18)"/><rect class="cls-24" x="352.85" y="174.13" width="2.97" height="1.43" transform="translate(87.11 -116.22) rotate(21.18)"/><rect class="cls-22" x="360.55" y="171.06" width="4.43" height="6.06" transform="translate(87.41 -119.31) rotate(21.18)"/><rect class="cls-24" x="359.93" y="176.87" width="2.97" height="1.43" transform="translate(88.57 -118.58) rotate(21.18)"/><path class="cls-24" d="M379.62,157.17a5.44,5.44,0,1,1-5.44-5.44A5.45,5.45,0,0,1,379.62,157.17Z"/><circle class="cls-25" cx="374.18" cy="157.17" r="2.95"/><path class="cls-24" d="M375.82,157.17a1.64,1.64,0,1,1-1.64-1.64A1.64,1.64,0,0,1,375.82,157.17Z"/><path class="cls-2" d="M367.46,211.33V195.64a3.53,3.53,0,0,1,6.45-2c.13.19.25.38.37.59,3,5.12,9.11,17.07,9.11,17.07Z"/><path class="cls-24" d="M374.18,198.29a2.93,2.93,0,1,1-2.93-2.93A2.93,2.93,0,0,1,374.18,198.29Z"/><path class="cls-25" d="M372.84,198.29a1.59,1.59,0,1,1-1.59-1.59A1.59,1.59,0,0,1,372.84,198.29Z"/><path class="cls-26" d="M372.13,198.29a.88.88,0,1,1-.88-.88A.87.87,0,0,1,372.13,198.29Z"/><path class="cls-22" d="M358.24,201.57c-.6,1.81-4.65,2.09-9.06.64s-7.49-4.09-6.9-5.9,4.65-2.1,9.06-.64S358.84,199.76,358.24,201.57Z"/><rect class="cls-2" x="169.32" y="210.07" width="82.11" height="6.19"/><rect class="cls-23" x="173.55" y="195.38" width="73.66" height="14.69"/><rect class="cls-2" x="173.55" y="176.27" width="73.66" height="19.11"/><rect class="cls-3" x="179.4" y="179.69" width="23.29" height="12.28"/><rect class="cls-21" x="206.34" y="179.69" width="5.19" height="2.78"/><rect class="cls-21" x="213.94" y="179.69" width="5.19" height="2.78"/><rect class="cls-21" x="221.54" y="179.69" width="5.19" height="2.78"/><rect class="cls-21" x="229.13" y="179.69" width="5.19" height="2.78"/><rect class="cls-21" x="236.73" y="179.69" width="5.19" height="2.78"/><rect class="cls-3" x="206.34" y="184.44" width="5.19" height="2.78"/><rect class="cls-3" x="213.94" y="184.44" width="5.19" height="2.78"/><rect class="cls-3" x="221.54" y="184.44" width="5.19" height="2.78"/><rect class="cls-3" x="229.13" y="184.44" width="5.19" height="2.78"/><rect class="cls-3" x="236.73" y="184.44" width="5.19" height="2.78"/><rect class="cls-12" x="206.34" y="189.19" width="5.19" height="2.78"/><rect class="cls-5" x="213.94" y="189.19" width="5.19" height="2.78"/><rect class="cls-5" x="221.54" y="189.19" width="5.19" height="2.78"/><rect class="cls-5" x="229.13" y="189.19" width="5.19" height="2.78"/><rect class="cls-5" x="236.73" y="189.19" width="5.19" height="2.78"/><path class="cls-10" d="M198.9,152.13V173a3.26,3.26,0,0,0,3.27,3.27h12.69a3.27,3.27,0,0,0,3.27-3.27v-20.9Z"/><rect class="cls-27" x="197.47" y="148.91" width="22.09" height="3.22"/><path class="cls-12" d="M201.09,161.46V173a1.54,1.54,0,0,0,1.54,1.54h11.76a1.54,1.54,0,0,0,1.54-1.54V161.46Z"/><path class="cls-6" d="M293.26,184.84v21.38a3.41,3.41,0,1,0,6.82,0V184.84Z"/><path class="cls-12" d="M294.56,188.74V206a2.11,2.11,0,1,0,4.22,0V188.74Z"/><rect class="cls-7" x="292.22" y="182.69" width="8.9" height="2.15"/><path class="cls-6" d="M304.27,184.84v21.38a3.41,3.41,0,1,0,6.81,0V184.84Z"/><path class="cls-21" d="M305.56,188.74V206a2.12,2.12,0,1,0,4.23,0V188.74Z"/><rect class="cls-7" x="303.23" y="182.69" width="8.9" height="2.15"/><path class="cls-6" d="M315.27,184.84v21.38a3.41,3.41,0,1,0,6.82,0V184.84Z"/><path class="cls-8" d="M316.57,188.74V206a2.11,2.11,0,1,0,4.22,0V188.74Z"/><rect class="cls-7" x="314.23" y="182.69" width="8.9" height="2.15"/><path class="cls-10" d="M326.28,184.84v21.38a3.41,3.41,0,1,0,6.82,0V184.84Z"/><path class="cls-3" d="M327.58,188.74V206a2.11,2.11,0,1,0,4.22,0V188.74Z"/><rect class="cls-7" x="325.24" y="182.69" width="8.9" height="2.15"/><rect class="cls-23" x="289.46" y="191.09" width="48.38" height="3.88"/><rect class="cls-23" x="289.46" y="212.38" width="48.38" height="3.88"/><rect class="cls-23" x="289.46" y="194.97" width="1.61" height="17.41"/><rect class="cls-23" x="336.24" y="194.97" width="1.61" height="17.41"/><path class="cls-12" d="M501,95.65c1.6,7.41-1.71,9.24-.85,13.54,2.16,10.71,14.58,6.76,14.56,17.65,0,10.43-10.79,20.48-6.28,30a2.29,2.29,0,0,1,.32,1.14,2,2,0,0,1-.93,1.22c-8.52,6.45-20.76,5.73-31.71,4.68l-15.83-1.52a12.34,12.34,0,0,1-5.41-1.36c-2.91-1.82-3.42-5.62-3-8.85,1-7.06,5.19-13.79,4.25-20.86-1-7.64-4.29-9.28-6.53-16.69-2.4-8,7.11-7.25,2.7-14.37s-4.82-13.11.54-16.05c4.69-2.58,2.91-5.9,10.06-10.62,4.47-3,7.78-3.36,13.16-2.72,3.94.47,8.85,4.45,8.85,4.45,7.74.7,7.4,6.42,8.16,9.5C494.49,90.45,499,89.05,501,95.65Z"/><path class="cls-9" d="M472.94,379.56a8,8,0,0,1-1.75,3.62,38.51,38.51,0,0,1-7.24,4.89c-2.69,1.39-5.75,2.67-7.11,5.37a2.05,2.05,0,0,0-.26,1.42,2.22,2.22,0,0,0,1.51,1.27c3.69,1.4,7.77,1.08,11.68.6,4.26-.53,8.51-1.21,12.72-2.07a1.77,1.77,0,0,0,1.12-.53,47.49,47.49,0,0,0,.28-6.66c-2-7-1.74-10.58-1.9-19a102.55,102.55,0,0,1-10.95,0C471.33,372.54,472.94,376.7,472.94,379.56Z"/><path class="cls-28" d="M471.19,383.18a13.24,13.24,0,0,0,12.7,4.29s2.73,5.86,1.35,9.67c0,0-22.29,3.71-31.21,1.64s-.55-6.74,3.59-8.16S471.19,383.18,471.19,383.18Z"/><path class="cls-9" d="M492.65,380.6a8,8,0,0,1-1.75,3.61,38,38,0,0,1-7.24,4.89c-2.69,1.4-5.75,2.67-7.11,5.37a2.05,2.05,0,0,0-.26,1.42,2.25,2.25,0,0,0,1.51,1.28c3.68,1.39,7.77,1.07,11.68.59,4.26-.52,8.51-1.21,12.72-2.06a1.82,1.82,0,0,0,1.11-.53,46,46,0,0,0,.29-6.66c-2-7-1.74-10.59-1.9-19a100,100,0,0,1-10.95,0C491,373.57,492.65,377.73,492.65,380.6Z"/><path class="cls-3" d="M490.9,384.21a13.26,13.26,0,0,0,12.7,4.3s2.73,5.86,1.35,9.66c0,0-22.29,3.71-31.22,1.65s-.54-6.74,3.6-8.17S490.9,384.21,490.9,384.21Z"/><path class="cls-5" d="M463.89,291.64c.58,0,34.57-.78,43.12,0s-12.63-54.64-24.28-53S463.89,291.64,463.89,291.64Z"/><path class="cls-13" d="M471,374.75c3.72,2.14,8.45,1,13.11-.75-1.86-26.54-1-88.54-1.34-128.32,1.43,20.74,3.72,97.64,7.2,129.23.45,4.07,12.53,4.14,13.7-.13,0-33.75,5.36-102.86,10.78-129.09,3.16-15.33,2.24-29.75-4.41-43.92-19,3.77-31.89,5.4-51.24,3.9,0,21.14,2.08,62.7,5.13,99.32C466.26,333.48,469.51,357.81,471,374.75Z"/><path class="cls-3" d="M469.55,122.19c-4.29.65-15.83,6.54-16.69,10.79-1.43,7,.41,15.25,1.5,22.32,4.62,30,6.89,26.47,3.4,64.92,22.24,5.06,31.9,4.52,53.07-4-3.55-5.26-1.61-5.21-3.62-11.24-9.33-27.85,4-40.59-.67-69.58-.22-1.36-1-5.9-1.82-7-1.31-1.72-9.91-5-12-5.35-8.17-1.35-6.66-1.86-14.93-1.46C471.2,121.94,471.2,121.94,469.55,122.19Z"/><path class="cls-4" d="M469.11,112.74c1.78,3.39,1.55,9.31-1.12,12.05a6.12,6.12,0,0,0,6,3.07c.52-.07,3.84,2.4,10.22-2.42a10.28,10.28,0,0,0,2.12-3.19c.05-1.83-.79-2.66-1.64-4.76-1.37-3.36-.81-8.56-1.37-12.34-4.08,0-10,1.15-14.09,1.15a9.37,9.37,0,0,0,.94,6.76"/><path class="cls-5" d="M485.13,221.19c1.88,37.94,4,41.95,4.4,73,10.57.86,22-.81,35.36-2.53-1.74-19.73,2.6-24.05-4.17-61.81C519,220.31,510.83,204.73,510,200c-1.5-9,1-12.86,1.08-31.19,0-7.84,1-15.68.65-23.52s2.94-13.57-3.4-18.6c-5.18-4.1-20.86-6.38-20.86-6.38-.8,2.47-1.61,15.54-1.92,20.58A742.65,742.65,0,0,0,485.13,221.19Z"/><path class="cls-10" d="M426.55,162.23c-2,3.07-4.64,10.82-5.16,14.43-.85,5.88,8.26,6.8,11.62,3.13.46-.5,9.34-10.29,17.31-21.15,3.34-4.55,8.34-10.89,10.26-16.2,4.8-13.32-3.73-14.4-8.25-13.45C439.84,131.63,435.57,148.22,426.55,162.23Z"/><path class="cls-5" d="M471.84,210.83c1.69,36.58,1.82,53.2,2.65,84-7.23,2.17-17.56,1.35-22.16-1.94-3.68-60,3.45-64.27,3.45-81,0-1.49.66-21.35-4.72-39.28-1.76-5.85-2.65-9.84.85-20.38,2.79-8.43.84-16.31,4-24.61,3.57-1.42,8.75-4.09,13.64-5.38C469.55,122.19,469.88,168.56,471.84,210.83Z"/><path class="cls-2" d="M470.25,118.14s-1.63.48-2.84,4.43c0,0-1.2,7.41,3.32,12.86l3.38-6.94,7,5.55s7.34-4.33,7.33-12.57c0,0-.89-4.67-4-4.62,0,0,1.34,10.38-10,10.61C474.46,127.46,470.23,126.59,470.25,118.14Z"/><path class="cls-9" d="M504.08,218.53a9.31,9.31,0,0,0-1.45,3.25c.16,1.85,3.7-1.58,5.69-3.15-.3,3.78-6.52,13.47-5.44,14.78.94.69,5.61-7.33,7-9,1.22.73-5.7,12-4,12.91.86.62,5.61-8.25,7-10.73-.83,3.27-3.1,9.68-2.54,10.91.18,1.63,3.83-6.19,5.55-9.88-1,3.39-1.78,7.71-.84,7.71s3.54-10.23,3.52-14.19,4-7,6.51-10.07c.56-.68-5.54-3.34-6.51-4.38-2.32,1.75-3.6,3.49-5.78,4.95C510,213.53,506.27,215.25,504.08,218.53Z"/><path class="cls-10" d="M542.57,170.19c2.15,7.35-9.5,39.69-19.19,45.36-2.84,1.66-10.46-5-9.57-7,5.37-12.27,7.75-20.76,9.32-36-6-4.13-17-17.48-20.5-22.64s-6.74-14.08-3.65-19.5c1.6-2.8,6.31-6.11,10-3.28,3.35,2.58,8.13,8.5,10.5,11C531.63,150.91,541.43,166.29,542.57,170.19Z"/><path class="cls-9" d="M463.32,112.27c4,4.51,7.47,8.72,12.7,5.7,4.17-2.4,8.23-6.12,9.17-10.85.78-4,.28-7.79.46-11.82a24.85,24.85,0,0,0-2.89-13.09c-1.53-3.06-5.08-6.08-12.3-5.62a34.33,34.33,0,0,0-8.75,2.68C451.15,84.45,456.59,104.73,463.32,112.27Z"/><path class="cls-12" d="M466.09,90.12c1.49-2.18,8.47-4,14.51-2.08.53,3.66,2.63,10,10.1,11.13A24.44,24.44,0,0,0,489.46,88c-.89-2.81-.81-5.45-5.92-10.72-5.67-5.86-13.91-3.78-20-.78-6.39,3.16-14.1,12.68-9.11,19.5C459.22,102.54,463.46,94,466.09,90.12Z"/><path class="cls-9" d="M483.73,94.94c-.43,1.26-.15,6.47.94,7.35,2.43,1.95,4.83-.05,4.79-3.39C489.36,90.58,484.91,91.5,483.73,94.94Z"/><path class="cls-14" d="M468.07,98a35.84,35.84,0,0,1-.07,6.91c-.38,1.37-1.82,3.72-.84,3.71a12.06,12.06,0,0,0,4.35-1A69.7,69.7,0,0,0,468.07,98Z"/><path class="cls-15" d="M485.24,96.77a3.41,3.41,0,0,1,.65-1.47,2.06,2.06,0,0,1,.49-.57c.11-.06.14,0,.24.1a4,4,0,0,1,.8,1.45,6.18,6.18,0,0,1,.36,2.33c0,.71-.23,2.38-1.29,2.07a.31.31,0,0,0-.23.56,1.24,1.24,0,0,0,1.34-.17,2.49,2.49,0,0,0,.66-1.37,6,6,0,0,0-.11-3.13,4.53,4.53,0,0,0-1.1-2.07.88.88,0,0,0-.58-.31.93.93,0,0,0-.65.46,4.64,4.64,0,0,0-.62,1.11,2.62,2.62,0,0,0-.27,1,.16.16,0,1,0,.31,0Z"/><path class="cls-15" d="M468.36,111.89a5.09,5.09,0,0,0,3.86.47,3.25,3.25,0,0,0,2.6-2.33c0-.3-.4-.58-.56-.23a3.45,3.45,0,0,1-2.26,1.92,4.92,4.92,0,0,1-3.42-.21.22.22,0,1,0-.22.38Z"/><path class="cls-10" d="M420.17,170.93c-1.27,6-1.62,9.95,2.41,13,4.7,3.59,10.15-1.28,11.64-7.29.77-3.09,1-16.17.51-16.31-2.37-.66-4.83-3.31-7.08-6.4C423.82,160.13,421.39,165.18,420.17,170.93Z"/><path class="cls-21" d="M473.66,165,437,170.76,429,116.52l36.1-6,1.44,9.17,2.21-.41a1.21,1.21,0,0,1,1.41,1l1.12,8.16a1.22,1.22,0,0,1-.24.9l-2.49,3.26Z"/><path class="cls-9" d="M432.39,139.36a21.1,21.1,0,0,1,.89,3.75c1.91-2.81,7-7,7.92-6.27,1.26,1-5.65,6.58-4.71,7.71,1.5-1,7.24-6.21,7.62-4.51.28,1.5-7,6.3-6.12,6.67,1.1-.15,5.93-2.73,7-1.22.28.94-4.75,2.26-6.68,3.86.28,2,5.09-1.66,5.92-.65.1,1-3.27,3.13-5.92,3.84a5.1,5.1,0,0,0-4.23,4.61c-.13.68-.76,2.57-.76,2.57-1.24-.07-4.08-3.05-5.1-5a24.8,24.8,0,0,0,1.71-4A84.25,84.25,0,0,0,432.39,139.36Z"/><path class="cls-5" d="M43.33,156.45c-4.8,6.89-9.08,16.21-12.82,23.73-2.19,4.4-3.72,13-1.34,17.33,1.15,2.09,3.19,3.51,5.19,4.8a132.61,132.61,0,0,0,32,15,31.47,31.47,0,0,0,4.84-16.65A223.67,223.67,0,0,1,45.81,190C55.7,176.27,62,165,67.45,151c.88-2.27,1.77-4.7,1.27-7.09-.83-3.95-2.91-8.5-7-8.5C55.7,135.41,48.45,149.08,43.33,156.45Z"/><path class="cls-9" d="M105.33,398.56c9.81.29,13.89.58,18-.21,4.19-2.07,2.89-3.92-1-4.62-3-.54-3.36-.68-6.52-3.15,0,0-1.29-2.13-1.6-2.5a2.13,2.13,0,0,1-.37-1.16c-.59-5.24.17-12.52-.42-17.76-3.42.92-7.08,0-10.52.68-.16,1.08,2,13,1,19.51C103.09,394.9,102.48,398.81,105.33,398.56Z"/><path class="cls-24" d="M114.52,387.73c1.56-1.43,1.09,1.94,5.21,4,2.38,1.18,8.93,2.79,10.46,3.07,4.32.81,5.06,4.64,1.18,5.43-1.33.28-19.9.86-25.64.88a7.42,7.42,0,0,1-2.74-.36c-2.83-1.1-.54-6.22-.54-9.42C102.45,386.2,110.3,393.25,114.52,387.73Z"/><path class="cls-9" d="M66.06,398.83c9.82.29,13.89.58,18-.21,3.46-1.71.9-4.27-1-4.62-3-.54-3.36-.68-6.53-3.15,0,0-1.28-2.13-1.59-2.5a2.05,2.05,0,0,1-.37-1.16c-.59-5.24.17-12.52-.42-17.76-3.42.92-7.09.05-10.53.68-.16,1.08,2,13,1.06,19.51C63.82,395.17,63.22,399.08,66.06,398.83Z"/><path class="cls-24" d="M75.26,388c1.56-1.43,1.09,1.94,5.2,4,2.39,1.18,8.94,2.79,10.47,3.07,4.31.81,5.06,4.64,1.18,5.43-1.34.28-19.91.86-25.65.88a7.39,7.39,0,0,1-2.73-.36c-2.84-1.1-.54-6.22-.54-9.42C63.19,386.47,71,393.52,75.26,388Z"/><path class="cls-3" d="M62.62,380.77c1.74,1.28,11.87,1.06,14.43-.59,3.61-30.69,10-72,2.87-102,2.85,1.34,4.56.07,7.7-.26a592.2,592.2,0,0,1,13.66,103.33c1.92,1.56,13.23,1.3,14.67-.7,2.64-36.22,5.75-83-3.9-120.51q-27.18,1.33-54.41,1.11c-2.7,0-.58,33.15-.1,37.95C59.21,315.79,61.17,347.46,62.62,380.77Z"/><path class="cls-9" d="M78.23,123.82c3.62,3,8.73,5.31,13.59,4.19a12.51,12.51,0,0,0,8.06-6.46A28.05,28.05,0,0,0,102.4,112c.81-5.82,1.48-11.78,0-17.51A14.88,14.88,0,0,0,99.16,88a16.73,16.73,0,0,0-5.49-3.77C82.25,79,70.2,84.7,67.28,95.27,64.75,104.46,70.64,117.49,78.23,123.82Z"/><path class="cls-9" d="M73.73,130.91c-1.17,1-2.71,1.82-2.9,3.32-.29,2.21,2.46,3.44,4.65,3.84a92.69,92.69,0,0,0,12.76,1.48c2.81.13,6.18-.16,7.57-2.61-3.14-1.69-4.94-5.17-5.79-8.64s-.94-7.08-1.69-10.57a2.14,2.14,0,0,0-.54-1.2,2.28,2.28,0,0,0-1.28-.42c-4.36-.49-9.09-1.43-13.34-1.17C76.35,119.88,79.56,126.15,73.73,130.91Z"/><path class="cls-29" d="M98.49,104.67c-2.63,1.33-1.27,2.15-3.19,4.39a83.23,83.23,0,0,0-6.92,9.29c-2.46,4.39-8.65,5.29-13,2.72s-6.85-7.84-8.72-12.51c-1.92-4.84-2.88-12-1.6-17,1.6-6.38,8.35-10.05,14.21-11.19,6.8-1.33,11.79-.81,16.21,1.9C102.51,86.54,109,99.36,98.49,104.67Z"/><path class="cls-30" d="M57.07,97.29c-4.33,6.58-.42,15.5-2.16,23.19-1.24,5.51-5.28,9.9-9.17,14A19.65,19.65,0,0,0,68.34,115c0-2.38-.45-4.75-.26-7.12s1.18-4.86,3.26-6c1.37-.75,3.09-.86,4.26-1.9C80,96,73.23,92.46,69.89,92.36,65.13,92.21,59.89,93,57.07,97.29Z"/><path class="cls-4" d="M98.36,106.45c.26-2-1.3-5.56-2.86-4.22-2,1.67-1.83,5.67-1.85,7.78,0,1.57,0,3.28,1,4.52.55.7,2.3,1.12,2.86-.25C98.23,112.44,98.36,106.45,98.36,106.45Z"/><path class="cls-10" d="M57.35,139.12a11.35,11.35,0,0,0-2,5.47c-4.68,26.35-3.81,49.15-5.76,75.84-1.77,24.16-6.6,52.21-6.12,76.43,16.52,8.49,79.82,3.94,91.61-3.71a548.57,548.57,0,0,1-17.92-120.31c-.46-11.51.12-30.8-11-37.41C97.31,132,67.44,126.86,57.35,139.12Z"/><path class="cls-5" d="M183.86,160.62v24.64a3.93,3.93,0,0,0,7.86,0V160.62Z"/><path class="cls-21" d="M185.36,165.11V185a2.43,2.43,0,1,0,4.86,0V165.11Z"/><rect class="cls-10" x="182.66" y="158.14" width="10.25" height="2.48"/><path class="cls-9" d="M179.49,171.79c1.58-1.36,2.61-5.7,4.37-4.58,0,1.08,0,2.79.55,3.14,1.45.94,6.19.15,7.31.42.53.13,1.88,1.63.5,2.56a1.47,1.47,0,0,1,.81,1.14c.23,1.26-.49,1.47-.49,1.47a2.66,2.66,0,0,1,.77,1.34,1.43,1.43,0,0,1-.77,1.33c.35.25.24,1.28.05,1.65a2,2,0,0,1-1.44.82c-8.1,1.82-15.6-.91-21.92,3.36a21.66,21.66,0,0,1-2.64-7.89C166.66,177.18,178.6,172.56,179.49,171.79Z"/><path class="cls-5" d="M106.19,135.43c10.34-.54,34,39.58,35.21,40.13s25.41-3.39,35.89-6.67a113.83,113.83,0,0,0,3.87,20.3c-14.95,3.45-40.32,7.94-47.94,4.61-1.05-.45-14.21-14.61-21.69-24.47-1.58-2.08-6.52-8.11-7.55-10.51C97.09,142.82,92.39,136.16,106.19,135.43Z"/></g></g></svg>