<?xml version="1.0"?>
<svg xmlns="http://www.w3.org/2000/svg" height="512px" viewBox="0 0 128 128" width="512px" class=""><g><g><path d="m25.837 1.747h76.326a13 13 0 0 1 12.958 14.042l-7.918 98.5a13 13 0 0 1 -12.958 11.958h-60.49a13 13 0 0 1 -12.955-11.958l-7.918-98.5a13 13 0 0 1 12.955-14.042z" fill="#3b4a51" data-original="#3B4A51" class="" style="fill:#7094D8" data-old_color="#3b4a51"/><path d="m95.156 48.271h-62.312a28.89 28.89 0 0 1 27.862-36.524h6.588a28.89 28.89 0 0 1 27.862 36.524z" fill="#e1ebf0" data-original="#E1EBF0" class="" style="fill:#90ACBA" data-old_color="#e1ebf0"/><path d="m69.583 38.49a1.75 1.75 0 0 1 -1.237-2.99l10.954-10.951a1.749 1.749 0 0 1 2.474 2.474l-10.954 10.955a1.746 1.746 0 0 1 -1.237.512z" fill="#7c84e8" data-original="#7C84E8"/><path d="m72.906 48.271h-17.812v-6.662a5.234 5.234 0 0 1 5.234-5.234h7.344a5.234 5.234 0 0 1 5.234 5.234z" fill="#52dddc" data-original="#52DDDC" class=""/><path d="m26.327 58.279 4.438 55.208a3.016 3.016 0 0 0 2.99 2.76h60.49a3.015 3.015 0 0 0 2.99-2.759l4.438-55.209z" fill="#596c76" data-original="#596C76" class=""/><g fill="#b4d2d7"><path d="m90.838 70.028h-53.675a1.75 1.75 0 0 1 0-3.5h53.675a1.75 1.75 0 0 1 0 3.5z" data-original="#B4D2D7" class="active-path" style="fill:#7294D4" data-old_color="#B4D2D7"/><path d="m89.82 82.685h-51.64a1.75 1.75 0 0 1 0-3.5h51.64a1.75 1.75 0 0 1 0 3.5z" data-original="#B4D2D7" class="active-path" style="fill:#7294D4" data-old_color="#B4D2D7"/><path d="m88.845 95.341h-49.69a1.75 1.75 0 1 1 0-3.5h49.69a1.75 1.75 0 0 1 0 3.5z" data-original="#B4D2D7" class="active-path" style="fill:#7294D4" data-old_color="#B4D2D7"/><path d="m87.785 108h-47.57a1.75 1.75 0 1 1 0-3.5h47.57a1.75 1.75 0 0 1 0 3.5z" data-original="#B4D2D7" class="active-path" style="fill:#7294D4" data-old_color="#B4D2D7"/></g></g></g> </svg>
