<?xml version="1.0"?>
<svg xmlns="http://www.w3.org/2000/svg" id="Layer_35" enable-background="new 0 0 64 64" height="512px" viewBox="0 0 64 64" width="512px" class=""><g><path d="m56 40v18.5c0 .96-.39 1.84-1.03 2.47-.63.64-1.51 1.03-2.47 1.03-1.93 0-3.5-1.57-3.5-3.5v-24.5h7z" fill="#838f9b" data-original="#838F9B" class=""/><path d="m49 34v24.5c0 1.93-1.57 3.5-3.5 3.5-.96 0-1.84-.39-2.47-1.03-.64-.63-1.03-1.51-1.03-2.47v-18.5-6z" fill="#838f9b" data-original="#838F9B" class=""/><path d="m56 34h-7-7v6h-2c-2.21 0-4-1.79-4-4v-7c0-7.18 5.82-13 13-13 3.59 0 6.84 1.46 9.19 3.81s3.81 5.6 3.81 9.19v7c0 2.21-1.79 4-4 4h-2z" fill="#ff826e" data-original="#FF826E" class=""/><path d="m16 53v6.5c0 .69-.28 1.32-.73 1.77s-1.08.73-1.77.73c-1.38 0-2.5-1.12-2.5-2.5v-25.5h5v6z" fill="#cf9e76" data-original="#CF9E76"/><path d="m11 34v25.5c0 1.38-1.12 2.5-2.5 2.5-.69 0-1.32-.28-1.77-.73s-.73-1.08-.73-1.77v-19.5-6z" fill="#cf9e76" data-original="#CF9E76"/><path d="m16 34h-5-5v6h-1c-1.66 0-3-1.34-3-3v-10c0-4.97 4.03-9 9-9 2.48 0 4.74 1.01 6.36 2.64 1.63 1.62 2.64 3.88 2.64 6.36v10c0 1.66-1.34 3-3 3h-1z" fill="#b4dd7f" data-original="#B4DD7F"/><circle cx="11" cy="12" fill="#f0d0b4" r="6" data-original="#F0D0B4"/><circle cx="49" cy="9" fill="#f0d0b4" r="7" data-original="#F0D0B4"/><path d="m53.354 15.702c2.191-1.428 3.646-3.897 3.646-6.702 0-4.411-3.589-8-8-8-3.676 0-6.773 2.496-7.706 5.88l-5.88-5.88h-12.414v2h11.586l6.436 6.436c.143 2.623 1.547 4.912 3.624 6.266-5.593 1.836-9.646 7.099-9.646 13.298v7c0 2.757 2.243 5 5 5h1v17.5c0 2.481 2.019 4.5 4.5 4.5 1.421 0 2.675-.675 3.5-1.706.825 1.031 2.079 1.706 3.5 1.706 2.481 0 4.5-2.019 4.5-4.5v-17.5h1c2.757 0 5-2.243 5-5v-7c0-6.199-4.053-11.462-9.646-13.298zm-10.354-6.702c0-3.309 2.691-6 6-6s6 2.691 6 6-2.691 6-6 6-6-2.691-6-6zm2.5 52c-1.379 0-2.5-1.122-2.5-2.5v-23.5h5v23.5c0 1.378-1.121 2.5-2.5 2.5zm7 0c-1.379 0-2.5-1.122-2.5-2.5v-23.5h5v23.5c0 1.378-1.121 2.5-2.5 2.5zm8.5-25c0 1.654-1.346 3-3 3h-1v-15h-2v9h-12v-9h-2v15h-1c-1.654 0-3-1.346-3-3v-7c0-6.617 5.383-12 12-12s12 5.383 12 12z" data-original="#000000" class="active-path" style="fill:#3762CC" data-old_color="#000000"/><path d="m17 50.586v-9.586c2.206 0 4-1.794 4-4v-10c0-4.125-2.512-7.674-6.085-9.2 1.86-1.26 3.085-3.389 3.085-5.8 0-3.86-3.141-7-7-7s-7 3.14-7 7c0 2.411 1.225 4.54 3.085 5.8-3.573 1.526-6.085 5.075-6.085 9.2v10c0 2.206 1.794 4 4 4v18.5c0 1.93 1.57 3.5 3.5 3.5.98 0 1.864-.407 2.5-1.058.636.651 1.52 1.058 2.5 1.058 1.93 0 3.5-1.57 3.5-3.5v-6.086l6.414-6.414h11.586v-2h-12.414zm-11-38.586c0-2.757 2.243-5 5-5s5 2.243 5 5-2.243 5-5 5-5-2.243-5-5zm-3 25v-10c0-4.411 3.589-8 8-8s8 3.589 8 8v10c0 1.103-.897 2-2 2v-13h-2v7h-8v-7h-2v13c-1.103 0-2-.897-2-2zm5.5 24c-.827 0-1.5-.673-1.5-1.5v-24.5h3v24.5c0 .827-.673 1.5-1.5 1.5zm5 0c-.827 0-1.5-.673-1.5-1.5v-24.5h3v24.5c0 .827-.673 1.5-1.5 1.5z" data-original="#000000" class="active-path" style="fill:#3762CC" data-old_color="#000000"/><path d="m33 49h2v2h-2z" data-original="#000000" class="active-path" style="fill:#3762CC" data-old_color="#000000"/><path d="m23 49h8v2h-8z" data-original="#000000" class="active-path" style="fill:#3762CC" data-old_color="#000000"/><path d="m23 5h8v2h-8z" data-original="#000000" class="active-path" style="fill:#3762CC" data-old_color="#000000"/><path d="m33 5h2v2h-2z" data-original="#000000" class="active-path" style="fill:#3762CC" data-old_color="#000000"/></g> </svg>
