<svg xmlns="http://www.w3.org/2000/svg" xmlns:xlink="http://www.w3.org/1999/xlink" viewBox="0 0 407.5 365"><defs><style>.cls-1{fill:none;}.cls-2{fill:#dfdfdd;}.cls-3{fill:#34d6d8;}.cls-4{fill:#fdc8a2;}.cls-5{fill:#85ccd5;}.cls-6{fill:#3762cc;}.cls-7{clip-path:url(#clip-path);}.cls-8{isolation:isolate;}</style><clipPath id="clip-path" transform="translate(0)"><rect class="cls-1" y="5" width="360" height="360"/></clipPath></defs><title>Recurso 1</title><g id="Capa_2" data-name="Capa 2"><g id="Capa_1-2" data-name="Capa 1"><path class="cls-2" d="M48,119H318a18,18,0,0,1,18,18V329a18,18,0,0,1-18,18H48a18,18,0,0,1-18-18V137a18,18,0,0,1,18-18Z" transform="translate(0)"/><rect class="cls-3" x="60" y="119" width="246" height="228"/><path class="cls-4" d="M65.27,281a12.71,12.71,0,0,0-9,3.73L30,311V251L13,268a24,24,0,0,0-7,17V365H54v-6a32.44,32.44,0,0,0,0-36l20.27-20.27a12.73,12.73,0,0,0-9-21.73Z" transform="translate(0)"/><path class="cls-4" d="M342,287a12,12,0,0,0-12,12,12,12,0,0,0-24,0,12,12,0,0,0-24,0V251a12,12,0,0,0-24,0v66l-14.27-14.27a12.73,12.73,0,0,0-21.73,9v.56a12.69,12.69,0,0,0,3.07,8.28L258,359h96V299a12,12,0,0,0-12-12Z" transform="translate(0)"/><path class="cls-5" d="M330,143H288l-36,30V143H198a24,24,0,0,1-24-24V35a24,24,0,0,1,24-24H330a24,24,0,0,1,24,24v84a24,24,0,0,1-24,24Z" transform="translate(0)"/><rect class="cls-6" x="330" y="161" width="12" height="108"/><path class="cls-6" d="M138,167V149a6,6,0,0,0-6-6H108a6,6,0,0,0-6,6v18H84a6,6,0,0,0-6,6v24a6,6,0,0,0,6,6h18v18a6,6,0,0,0,6,6h24a6,6,0,0,0,6-6V203h18a6,6,0,0,0,6-6V173a6,6,0,0,0-6-6Zm12,24H132a6,6,0,0,0-6,6v18H114V197a6,6,0,0,0-6-6H90V179h18a6,6,0,0,0,6-6V155h12v18a6,6,0,0,0,6,6h18Z" transform="translate(0)"/><rect class="cls-6" x="174" y="155" width="12" height="168"/><rect class="cls-6" x="78" y="239" width="12" height="12"/><rect class="cls-6" x="102" y="239" width="60" height="12"/><rect class="cls-6" x="102" y="263" width="60" height="12"/><rect class="cls-6" x="102" y="287" width="60" height="12"/><rect class="cls-6" x="102" y="311" width="60" height="12"/><rect class="cls-6" x="198" y="167" width="12" height="12"/><rect class="cls-6" x="222" y="167" width="12" height="12"/><rect class="cls-6" x="276" y="167" width="12" height="12"/><rect class="cls-6" x="222" y="191" width="66" height="12"/><rect class="cls-6" x="198" y="215" width="12" height="12"/><rect class="cls-6" x="222" y="215" width="24" height="12"/><rect class="cls-6" x="222" y="239" width="18" height="12"/><rect class="cls-6" x="198" y="263" width="12" height="12"/><g class="cls-7"><rect class="cls-6" x="222" y="263" width="18" height="12"/><path class="cls-6" d="M342,281a17.94,17.94,0,0,0-12,4.59,17.89,17.89,0,0,0-18-3.54V161H300V282.05a17.91,17.91,0,0,0-12,0V251a18,18,0,0,0-36,0v51.52l-4-4a18.73,18.73,0,0,0-32,13.25v.56a18.72,18.72,0,0,0,4.51,12.19L234.67,341H66V319.48L78.52,307a18.7,18.7,0,0,0,4.73-8H90V287H82.75A18.78,18.78,0,0,0,66,275V125h90V113H48a24,24,0,0,0-24,24v18H36V137a12,12,0,0,1,12-12h6V278.77a19,19,0,0,0-2,1.71l-16,16V167H24v81.52L8.78,263.73A29.81,29.81,0,0,0,0,284.94V365H12V284.94a17.92,17.92,0,0,1,5.27-12.73L24,265.48V311a6,6,0,0,0,10.24,4.24L60.52,289A6.72,6.72,0,1,1,70,298.48L49.76,318.76a6,6,0,0,0-.75,7.57,26.38,26.38,0,0,1,0,29.34A6,6,0,0,0,48,359v6H60v-4.27A38,38,0,0,0,63.52,353H245l8.49,9.91A6,6,0,0,0,258,365h96a6,6,0,0,0,6-6V299a18,18,0,0,0-18-18Zm6,72H260.76l-31.14-36.33a6.7,6.7,0,0,1-1.62-4.38v-.56A6.72,6.72,0,0,1,239.48,307l14.28,14.27A6,6,0,0,0,264,317V251a6,6,0,0,1,12,0v48a6,6,0,0,0,12,0,6,6,0,0,1,12,0,6,6,0,0,0,12,0,6,6,0,0,1,12,0,6,6,0,0,0,12,0,6,6,0,0,1,12,0Z" transform="translate(0)"/></g><path class="cls-6" d="M330,5H198a30.09,30.09,0,0,0-26,15l10.39,6A18.07,18.07,0,0,1,198,17H330a18,18,0,0,1,18,18v84a18,18,0,0,1-18,18H288a6,6,0,0,0-3.84,1.39L258,160.19V143a6,6,0,0,0-6-6H198a18,18,0,0,1-18-18V35H168v84a30,30,0,0,0,30,30h48v24a6,6,0,0,0,9.84,4.61L290.18,149H330a30,30,0,0,0,30-30V35A30,30,0,0,0,330,5Z" transform="translate(0)"/><g id="Capa_2-2" data-name="Capa 2"><g id="object"><image class="cls-8" width="1180" height="795" transform="translate(144.5) scale(0.22 0.21)" xlink:href="D:%5CDocumentos%20D%5COkCare%5Csrc%5Cassets%5Cicon%5CHearth.png"/></g></g></g></g></svg>