<svg xmlns="http://www.w3.org/2000/svg" viewBox="0 0 313.65 308.28"><defs><style>.cls-1{isolation:isolate;}.cls-2,.cls-37,.cls-6,.cls-8{fill:#1d1d1b;}.cls-19,.cls-2,.cls-42{opacity:0.15;}.cls-3,.cls-42,.cls-44,.cls-48{fill:#fff;}.cls-4{fill:#614f49;}.cls-5{fill:#5e5e5e;}.cls-26,.cls-6{opacity:0.1;}.cls-7{fill:#ffcfa1;}.cls-8{opacity:0.2;}.cls-9{fill:#4ab775;}.cls-10{fill:#f9b659;}.cls-11{fill:#c44645;}.cls-12{fill:#575756;}.cls-13{fill:#1f1f1e;}.cls-14{fill:#ededed;}.cls-15{fill:#3c3c3b;}.cls-16{fill:#5e4a4c;}.cls-17{fill:#6b6a58;}.cls-18{fill:#16191e;}.cls-20{fill:#f2c194;}.cls-21{fill:#61da91;}.cls-22{fill:#c6c6c6;}.cls-23{fill:#878787;}.cls-24{fill:#706f6f;}.cls-25{fill:#dadada;}.cls-27{fill:#ffcf9a;}.cls-28{fill:#efb67e;}.cls-29{fill:#ffc388;}.cls-30{fill:#dad1d1;}.cls-31{fill:#fdfdfd;}.cls-32{fill:#f6f6f6;}.cls-33{fill:#b8b0b0;}.cls-34{fill:#4aa2b7;}.cls-35{fill:#9d9d9c;}.cls-36{fill:#e75c5b;}.cls-37{opacity:0.05;}.cls-38{fill:#b2b2b2;}.cls-39{fill:#d69943;}.cls-40,.cls-48,.cls-49{opacity:0.3;}.cls-41{fill:#403430;}.cls-43{opacity:0.5;}.cls-44{opacity:0.6;}.cls-45{fill:#a83c3b;}.cls-46{fill:#4f403b;}.cls-47{fill:#303030;}.cls-48,.cls-49{mix-blend-mode:overlay;}</style></defs><title>Recurso 1xxxhdpi</title><g class="cls-1"><g id="Capa_2" data-name="Capa 2"><g id="Layer_1" data-name="Layer 1"><path class="cls-2" d="M313.07,300.13a8.14,8.14,0,0,1-8.14,8.15H8.15a8.15,8.15,0,1,1,0-16.29H304.93A8.13,8.13,0,0,1,313.07,300.13Z"/><path class="cls-3" d="M84.45,154.3h0l-1.5-.06a.37.37,0,0,1-.36-.39.36.36,0,0,1,.39-.36l1.5.06a.38.38,0,0,1,0,.75Z"/><path class="cls-3" d="M170.56,157.5h0l-3.07-.11a.39.39,0,0,1-.37-.39.35.35,0,0,1,.39-.36l3.08.12a.37.37,0,0,1,.36.38A.38.38,0,0,1,170.56,157.5Zm-6.15-.23h0l-3.08-.12a.39.39,0,0,1-.36-.39.36.36,0,0,1,.39-.36l3.08.12a.37.37,0,0,1,.36.39A.38.38,0,0,1,164.41,157.27Zm-6.15-.23h0l-3.08-.12a.37.37,0,0,1-.36-.38.36.36,0,0,1,.39-.37l3.08.12a.38.38,0,0,1,0,.75Zm-6.15-.23h0L149,156.7a.38.38,0,0,1-.36-.39.35.35,0,0,1,.39-.36l3.08.11a.38.38,0,0,1,0,.75Zm-6.15-.23h0l-3.08-.11a.37.37,0,0,1-.36-.39.35.35,0,0,1,.39-.36l3.08.11a.38.38,0,0,1,0,.75Zm-6.15-.23h0l-3.08-.11a.37.37,0,0,1-.36-.39.35.35,0,0,1,.39-.36l3.07.11a.38.38,0,0,1,.36.39A.37.37,0,0,1,139.81,156.35Zm-6.15-.23h0l-3.08-.11a.37.37,0,0,1-.36-.39.37.37,0,0,1,.39-.36l3.07.12a.37.37,0,0,1,0,.74Zm-6.15-.22h0l-3.07-.12a.38.38,0,1,1,0-.75l3.07.12a.38.38,0,0,1,0,.75Zm-6.15-.23h0l-3.07-.12a.36.36,0,0,1-.36-.38.39.39,0,0,1,.39-.37l3.07.12a.37.37,0,0,1,.36.39A.37.37,0,0,1,121.36,155.67Zm-6.15-.23h0l-3.07-.11a.38.38,0,0,1-.36-.39.35.35,0,0,1,.39-.36l3.07.11a.38.38,0,0,1,0,.75Zm-6.15-.23h0L106,155.1a.38.38,0,0,1-.36-.39.35.35,0,0,1,.39-.36l3.07.11a.38.38,0,0,1,0,.75Zm-6.15-.23h0l-3.07-.11a.37.37,0,0,1-.36-.39.35.35,0,0,1,.38-.36l3.08.11a.38.38,0,0,1,0,.75Zm-6.16-.23h0l-3.08-.11a.39.39,0,0,1-.36-.39.36.36,0,0,1,.39-.36l3.08.12a.36.36,0,0,1,.36.38A.37.37,0,0,1,96.75,154.75Zm-6.15-.22h0l-3.08-.12a.39.39,0,0,1-.36-.39.37.37,0,0,1,.39-.36l3.08.12a.37.37,0,0,1,.36.39A.38.38,0,0,1,90.6,154.53Z"/><path class="cls-3" d="M175.14,157.66h0l-1.49,0a.39.39,0,0,1-.37-.39.36.36,0,0,1,.39-.36l1.5.06a.37.37,0,0,1,0,.74Z"/><path class="cls-3" d="M131.28,69.83a.36.36,0,0,1-.32-.18l-.78-1.28a.39.39,0,0,1,.13-.52.38.38,0,0,1,.52.13l.77,1.28a.38.38,0,0,1-.13.52A.41.41,0,0,1,131.28,69.83Z"/><path class="cls-3" d="M169.48,133.15a.37.37,0,0,1-.32-.18l-1.59-2.64a.37.37,0,1,1,.64-.38l1.59,2.64a.37.37,0,0,1-.12.51A.35.35,0,0,1,169.48,133.15Zm-3.18-5.27a.38.38,0,0,1-.32-.18l-1.59-2.64a.37.37,0,1,1,.64-.39l1.59,2.64a.36.36,0,0,1-.13.51A.33.33,0,0,1,166.3,127.88Zm-3.18-5.28a.38.38,0,0,1-.33-.18l-1.59-2.64a.37.37,0,0,1,.13-.51.38.38,0,0,1,.52.12l1.59,2.64a.39.39,0,0,1-.13.52A.45.45,0,0,1,163.12,122.6Zm-3.19-5.28a.37.37,0,0,1-.32-.18L158,114.5a.37.37,0,0,1,.64-.38l1.59,2.63a.38.38,0,0,1-.12.52A.37.37,0,0,1,159.93,117.32Zm-3.18-5.27a.38.38,0,0,1-.32-.18l-1.6-2.64a.4.4,0,0,1,.13-.52.38.38,0,0,1,.52.13l1.59,2.64a.36.36,0,0,1-.13.51A.35.35,0,0,1,156.75,112.05Zm-3.19-5.28a.37.37,0,0,1-.32-.18L151.65,104a.36.36,0,0,1,.13-.51.37.37,0,0,1,.51.12l1.6,2.64a.39.39,0,0,1-.13.52A.46.46,0,0,1,153.56,106.77Zm-3.18-5.28a.36.36,0,0,1-.32-.18l-1.59-2.64a.37.37,0,1,1,.64-.38l1.59,2.63a.38.38,0,0,1-.13.52A.32.32,0,0,1,150.38,101.49Zm-3.18-5.27a.37.37,0,0,1-.32-.19l-1.6-2.63a.39.39,0,0,1,.13-.52.38.38,0,0,1,.52.13l1.59,2.64a.37.37,0,0,1-.13.51A.35.35,0,0,1,147.2,96.22ZM144,90.94a.4.4,0,0,1-.32-.18l-1.59-2.64a.37.37,0,1,1,.64-.39l1.59,2.64a.38.38,0,0,1-.12.52A.46.46,0,0,1,144,90.94Zm-3.18-5.28a.36.36,0,0,1-.32-.18l-1.59-2.64a.37.37,0,0,1,.12-.51.38.38,0,0,1,.52.12l1.59,2.64a.38.38,0,0,1-.13.52A.41.41,0,0,1,140.83,85.66Zm-3.18-5.27a.4.4,0,0,1-.33-.19l-1.59-2.63a.39.39,0,0,1,.13-.52.38.38,0,0,1,.52.13L138,79.82a.38.38,0,0,1-.13.51A.35.35,0,0,1,137.65,80.39Zm-3.19-5.28a.4.4,0,0,1-.32-.18l-1.59-2.64a.37.37,0,1,1,.64-.39l1.59,2.64a.37.37,0,0,1-.12.51A.36.36,0,0,1,134.46,75.11Z"/><path class="cls-3" d="M171.85,137.08a.38.38,0,0,1-.32-.18l-.78-1.29a.37.37,0,0,1,.13-.51.38.38,0,0,1,.52.12l.77,1.29a.36.36,0,0,1-.13.51A.33.33,0,0,1,171.85,137.08Z"/><path class="cls-3" d="M187.83,40h0a.37.37,0,0,1-.36-.39l.07-1.5a.39.39,0,0,1,.39-.36.38.38,0,0,1,.36.4l-.07,1.49A.37.37,0,0,1,187.83,40Z"/><path class="cls-3" d="M184.65,111.05h0a.37.37,0,0,1-.36-.39l.13-3a.37.37,0,0,1,.4-.36.38.38,0,0,1,.35.39l-.13,3A.37.37,0,0,1,184.65,111.05Zm.26-5.92h0a.37.37,0,0,1-.35-.39l.13-3a.38.38,0,0,1,.75,0l-.13,3A.37.37,0,0,1,184.91,105.13Zm.27-5.91h0a.38.38,0,0,1-.36-.4l.13-2.95a.37.37,0,0,1,.4-.36.37.37,0,0,1,.35.39l-.13,3A.37.37,0,0,1,185.18,99.22Zm.26-5.92h0a.38.38,0,0,1-.36-.39l.13-3a.36.36,0,0,1,.39-.36A.37.37,0,0,1,186,90l-.13,3A.38.38,0,0,1,185.44,93.3Zm.27-5.92h0a.38.38,0,0,1-.36-.39l.13-3a.36.36,0,0,1,.39-.36.37.37,0,0,1,.36.39l-.13,3A.37.37,0,0,1,185.71,87.38Zm.26-5.92h0a.37.37,0,0,1-.35-.39l.13-3a.37.37,0,0,1,.39-.36.38.38,0,0,1,.36.39l-.13,3A.38.38,0,0,1,186,81.46Zm.27-5.92h0a.37.37,0,0,1-.36-.39l.13-3a.38.38,0,1,1,.75,0l-.13,3A.37.37,0,0,1,186.24,75.54Zm.26-5.92h0a.37.37,0,0,1-.35-.39l.13-3a.38.38,0,0,1,.39-.35.37.37,0,0,1,.36.39l-.13,3A.37.37,0,0,1,186.5,69.62Zm.27-5.91h0a.38.38,0,0,1-.36-.4l.13-3a.35.35,0,0,1,.39-.35.37.37,0,0,1,.36.39l-.13,3A.37.37,0,0,1,186.77,63.71Zm.26-5.92h0a.38.38,0,0,1-.35-.39l.13-3a.38.38,0,0,1,.75,0l-.13,3A.38.38,0,0,1,187,57.79Zm.27-5.92h0a.38.38,0,0,1-.36-.39l.13-3a.38.38,0,0,1,.75,0l-.13,3A.38.38,0,0,1,187.3,51.87Zm.26-5.92h0a.37.37,0,0,1-.35-.39l.13-3a.37.37,0,0,1,.39-.36.38.38,0,0,1,.36.39l-.13,3A.38.38,0,0,1,187.56,46Z"/><path class="cls-3" d="M184.45,115.51h0a.37.37,0,0,1-.36-.39l.07-1.5a.37.37,0,0,1,.37-.36h0a.38.38,0,0,1,.36.39l-.07,1.5A.37.37,0,0,1,184.45,115.51Z"/><path class="cls-3" d="M245.23,58.4a.41.41,0,0,1-.19,0,.37.37,0,0,1-.14-.51l.74-1.31a.37.37,0,1,1,.65.37l-.74,1.3A.36.36,0,0,1,245.23,58.4Z"/><path class="cls-3" d="M201.28,136.35a.45.45,0,0,1-.19,0,.37.37,0,0,1-.14-.51l1.47-2.6a.37.37,0,0,1,.65.37l-1.46,2.6A.39.39,0,0,1,201.28,136.35Zm2.93-5.2a.34.34,0,0,1-.19-.05.37.37,0,0,1-.14-.51l1.47-2.6a.37.37,0,0,1,.65.37l-1.46,2.6A.39.39,0,0,1,204.21,131.15Zm2.93-5.2a.43.43,0,0,1-.19,0,.38.38,0,0,1-.14-.51l1.47-2.6a.37.37,0,1,1,.65.36l-1.46,2.6A.37.37,0,0,1,207.14,126Zm2.93-5.19a.45.45,0,0,1-.19-.05.37.37,0,0,1-.14-.51l1.47-2.6a.37.37,0,0,1,.65.37l-1.46,2.6A.39.39,0,0,1,210.07,120.76Zm2.93-5.2a.45.45,0,0,1-.19,0,.37.37,0,0,1-.14-.51l1.47-2.6a.37.37,0,1,1,.65.37l-1.46,2.6A.39.39,0,0,1,213,115.56Zm2.93-5.2a.43.43,0,0,1-.19,0,.39.39,0,0,1-.14-.52l1.47-2.59a.37.37,0,1,1,.65.36l-1.46,2.6A.39.39,0,0,1,215.93,110.36Zm2.93-5.19a.45.45,0,0,1-.19,0,.37.37,0,0,1-.14-.51L220,102a.37.37,0,0,1,.65.37l-1.46,2.6A.39.39,0,0,1,218.86,105.17Zm2.93-5.2a.45.45,0,0,1-.19,0,.37.37,0,0,1-.14-.51l1.47-2.6a.37.37,0,0,1,.65.37l-1.47,2.6A.36.36,0,0,1,221.79,100Zm2.93-5.2a.41.41,0,0,1-.19,0,.39.39,0,0,1-.14-.52l1.46-2.59a.39.39,0,0,1,.52-.15.37.37,0,0,1,.14.51L225,94.58A.36.36,0,0,1,224.72,94.77Zm2.93-5.19a.41.41,0,0,1-.19,0,.37.37,0,0,1-.14-.51l1.46-2.6a.39.39,0,0,1,.52-.14.37.37,0,0,1,.14.51L228,89.39A.37.37,0,0,1,227.65,89.58Zm2.93-5.2a.41.41,0,0,1-.19,0,.37.37,0,0,1-.14-.51l1.46-2.6a.39.39,0,0,1,.52-.14.37.37,0,0,1,.14.51l-1.47,2.6A.37.37,0,0,1,230.58,84.38Zm2.93-5.2a.32.32,0,0,1-.19-.05.37.37,0,0,1-.14-.51L234.64,76a.39.39,0,0,1,.52-.15.37.37,0,0,1,.14.51L233.83,79A.36.36,0,0,1,233.51,79.18ZM236.44,74a.41.41,0,0,1-.19,0,.37.37,0,0,1-.14-.51l1.46-2.6a.39.39,0,0,1,.52-.14.37.37,0,0,1,.14.51l-1.47,2.6A.37.37,0,0,1,236.44,74Zm2.93-5.2a.41.41,0,0,1-.19-.05.37.37,0,0,1-.14-.51l1.46-2.6a.39.39,0,0,1,.52-.14.37.37,0,0,1,.14.51l-1.47,2.6A.37.37,0,0,1,239.37,68.79Zm2.93-5.2a.32.32,0,0,1-.19-.05A.37.37,0,0,1,242,63l1.46-2.59a.39.39,0,0,1,.52-.15.37.37,0,0,1,.14.51l-1.47,2.6A.37.37,0,0,1,242.3,63.59Z"/><path class="cls-3" d="M199.08,140.25a.34.34,0,0,1-.19-.05.37.37,0,0,1-.14-.51l.74-1.3a.37.37,0,1,1,.65.36l-.74,1.31A.36.36,0,0,1,199.08,140.25Z"/><path class="cls-3" d="M286.7,101.75a.38.38,0,0,1-.31-.16.38.38,0,0,1,.1-.52l1.25-.84a.37.37,0,1,1,.42.62l-1.25.84A.37.37,0,0,1,286.7,101.75Z"/><path class="cls-3" d="M218.9,147.23a.37.37,0,0,1-.31-.17.37.37,0,0,1,.1-.52l2.42-1.62a.37.37,0,0,1,.42.62l-2.42,1.63A.42.42,0,0,1,218.9,147.23Zm4.84-3.25a.37.37,0,0,1-.31-.17.37.37,0,0,1,.1-.52l2.42-1.62a.37.37,0,0,1,.42.62L224,143.92A.39.39,0,0,1,223.74,144Zm4.84-3.25a.4.4,0,0,1-.31-.16.37.37,0,0,1,.11-.52l2.42-1.63a.38.38,0,0,1,.52.1.37.37,0,0,1-.11.52l-2.42,1.63A.37.37,0,0,1,228.58,140.73Zm4.85-3.25a.36.36,0,0,1-.31-.16.37.37,0,0,1,.1-.52l2.42-1.63a.38.38,0,0,1,.42.63l-2.42,1.62A.42.42,0,0,1,233.43,137.48Zm4.84-3.24a.38.38,0,0,1-.21-.69l2.42-1.62a.36.36,0,0,1,.52.1.37.37,0,0,1-.1.52l-2.42,1.62A.33.33,0,0,1,238.27,134.24Zm4.84-3.25a.37.37,0,0,1-.31-.17.38.38,0,0,1,.1-.52l2.43-1.62a.37.37,0,1,1,.41.62l-2.42,1.62A.31.31,0,0,1,243.11,131Zm4.85-3.25a.37.37,0,0,1-.31-.17.37.37,0,0,1,.1-.52l2.42-1.62a.37.37,0,0,1,.42.62l-2.42,1.63A.42.42,0,0,1,248,127.74Zm4.84-3.25a.37.37,0,0,1-.31-.17.37.37,0,0,1,.1-.52l2.42-1.62a.38.38,0,0,1,.52.1.37.37,0,0,1-.1.52L253,124.43A.42.42,0,0,1,252.8,124.49Zm4.84-3.25a.38.38,0,0,1-.31-.16.37.37,0,0,1,.11-.52l2.42-1.63a.38.38,0,0,1,.52.1.37.37,0,0,1-.11.52l-2.42,1.63A.37.37,0,0,1,257.64,121.24Zm4.85-3.25a.36.36,0,0,1-.31-.16.37.37,0,0,1,.1-.52l2.42-1.63a.38.38,0,0,1,.42.63l-2.42,1.62A.42.42,0,0,1,262.49,118Zm4.84-3.24a.38.38,0,0,1-.21-.69l2.42-1.62a.36.36,0,0,1,.52.1.37.37,0,0,1-.1.52l-2.42,1.62A.33.33,0,0,1,267.33,114.75Zm4.84-3.25a.37.37,0,0,1-.31-.17.38.38,0,0,1,.1-.52l2.43-1.62a.37.37,0,1,1,.41.62l-2.42,1.62A.31.31,0,0,1,272.17,111.5Zm4.85-3.25a.37.37,0,0,1-.31-.17.37.37,0,0,1,.1-.52l2.42-1.62a.37.37,0,0,1,.52.1.38.38,0,0,1-.1.52l-2.42,1.63A.42.42,0,0,1,277,108.25Zm4.84-3.25a.37.37,0,0,1-.31-.17.37.37,0,0,1,.1-.52l2.42-1.62a.38.38,0,0,1,.52.1.37.37,0,0,1-.1.52l-2.42,1.63A.42.42,0,0,1,281.86,105Z"/><path class="cls-3" d="M215.23,149.69a.37.37,0,0,1-.31-.17.37.37,0,0,1,.1-.52l1.25-.83a.37.37,0,0,1,.52.1.38.38,0,0,1-.1.52l-1.25.83A.35.35,0,0,1,215.23,149.69Z"/><path class="cls-3" d="M60,137.08a.38.38,0,0,1-.36-.28c-.13-.49-.26-1-.38-1.46a.37.37,0,0,1,.27-.45.36.36,0,0,1,.45.27c.13.48.25,1,.38,1.44a.37.37,0,0,1-.26.46Z"/><path class="cls-3" d="M59,132.64a.37.37,0,0,1-.37-.3c-.21-1-.39-2-.55-3a.37.37,0,0,1,.31-.43.39.39,0,0,1,.43.31c.16,1,.34,2,.55,3a.38.38,0,0,1-.3.45Zm-1-6a.4.4,0,0,1-.38-.34c-.11-1-.21-2-.28-3.06a.39.39,0,0,1,.35-.4.37.37,0,0,1,.4.35c.07,1,.16,2,.28,3a.37.37,0,0,1-.33.41Zm-.41-6.11a.37.37,0,0,1-.38-.36c0-.42,0-.83,0-1.24,0-.61,0-1.23,0-1.84a.35.35,0,0,1,.38-.36.38.38,0,0,1,.37.38c0,.61,0,1.21,0,1.82,0,.41,0,.81,0,1.22a.37.37,0,0,1-.37.38Zm.18-6.1h0a.37.37,0,0,1-.35-.4c.08-1,.19-2,.32-3.06a.38.38,0,0,1,.43-.32.37.37,0,0,1,.32.42c-.13,1-.24,2-.32,3A.37.37,0,0,1,57.78,114.4Zm.79-6.06H58.5a.38.38,0,0,1-.3-.44c.19-1,.4-2,.64-3a.37.37,0,0,1,.45-.27.38.38,0,0,1,.28.45c-.24,1-.45,2-.63,3A.38.38,0,0,1,58.57,108.34Zm1.42-6h-.11a.38.38,0,0,1-.25-.47c.28-1,.6-2,.94-2.93a.39.39,0,0,1,.48-.23.38.38,0,0,1,.23.48c-.34,1-.65,1.93-.93,2.89A.37.37,0,0,1,60,102.39Zm2-5.76a.32.32,0,0,1-.14,0,.39.39,0,0,1-.21-.49c.39-1,.81-1.89,1.25-2.82a.38.38,0,0,1,.5-.17.39.39,0,0,1,.18.5c-.43.9-.85,1.84-1.23,2.77A.38.38,0,0,1,62,96.63Zm2.62-5.53a.39.39,0,0,1-.18,0,.38.38,0,0,1-.15-.51c.48-.91,1-1.81,1.53-2.68a.37.37,0,0,1,.51-.12.37.37,0,0,1,.13.51c-.52.86-1,1.75-1.51,2.64A.38.38,0,0,1,64.63,91.1Zm3.17-5.23a.44.44,0,0,1-.21-.07.38.38,0,0,1-.1-.52c.58-.84,1.18-1.69,1.8-2.5a.37.37,0,0,1,.52-.08.38.38,0,0,1,.08.53c-.61.81-1.21,1.64-1.78,2.47A.37.37,0,0,1,67.8,85.87ZM71.5,81a.41.41,0,0,1-.24-.08.38.38,0,0,1-.05-.53c.65-.78,1.34-1.56,2-2.31a.38.38,0,1,1,.55.51c-.69.74-1.37,1.51-2,2.28A.35.35,0,0,1,71.5,81Zm4.16-4.48a.37.37,0,0,1-.27-.12.38.38,0,0,1,0-.53c.73-.71,1.49-1.41,2.26-2.09a.37.37,0,0,1,.53,0,.38.38,0,0,1,0,.53c-.75.67-1.51,1.37-2.23,2.07A.38.38,0,0,1,75.66,76.5Zm4.59-4a.38.38,0,0,1-.3-.15.38.38,0,0,1,.06-.52c.8-.64,1.62-1.26,2.46-1.87a.37.37,0,1,1,.43.61c-.82.6-1.63,1.22-2.42,1.84A.35.35,0,0,1,80.25,72.45Zm5-3.59a.37.37,0,0,1-.31-.17.35.35,0,0,1,.11-.51c.85-.56,1.73-1.1,2.62-1.62a.37.37,0,0,1,.51.14.36.36,0,0,1-.13.51c-.88.51-1.75,1.05-2.6,1.59A.3.3,0,0,1,85.21,68.86Zm5.29-3.07a.36.36,0,0,1-.33-.2.38.38,0,0,1,.16-.51c.91-.47,1.84-.92,2.77-1.34a.38.38,0,0,1,.5.18.39.39,0,0,1-.19.5c-.91.42-1.83.86-2.74,1.33A.33.33,0,0,1,90.5,65.79Zm5.57-2.53a.38.38,0,0,1-.35-.24.39.39,0,0,1,.21-.49c1-.37,1.93-.73,2.9-1.06a.37.37,0,0,1,.47.24.38.38,0,0,1-.23.48c-1,.32-1.92.67-2.86,1A.35.35,0,0,1,96.07,63.26Zm5.8-2a.38.38,0,0,1-.36-.27.37.37,0,0,1,.26-.46c1-.28,2-.53,3-.76a.37.37,0,0,1,.45.29.36.36,0,0,1-.28.44c-1,.22-2,.48-3,.75Zm6-1.34a.38.38,0,0,1-.37-.31.37.37,0,0,1,.3-.43c1-.17,2-.32,3-.43a.37.37,0,1,1,.09.74c-1,.12-2,.26-3,.43Z"/><path class="cls-3" d="M113.88,59.27a.37.37,0,1,1,0-.74c.5,0,1-.06,1.51-.07a.35.35,0,0,1,.38.36.37.37,0,0,1-.36.39c-.5,0-1,0-1.49.06Z"/><path class="cls-3" d="M119.17,53h0a.37.37,0,0,1-.35-.4c0-.51.07-1,.12-1.51a.38.38,0,0,1,.41-.33.36.36,0,0,1,.33.41c0,.49-.08,1-.11,1.48A.38.38,0,0,1,119.17,53Z"/><path class="cls-3" d="M119.69,48.6h-.06a.38.38,0,0,1-.31-.44c.18-1,.39-1.93.64-2.87a.38.38,0,0,1,.46-.27.37.37,0,0,1,.26.46c-.24.92-.45,1.87-.62,2.82A.37.37,0,0,1,119.69,48.6ZM121.17,43a.25.25,0,0,1-.12,0,.37.37,0,0,1-.23-.48c.32-.92.69-1.84,1.09-2.73a.37.37,0,1,1,.68.3c-.39.88-.75,1.78-1.06,2.68A.38.38,0,0,1,121.17,43Zm2.38-5.32a.34.34,0,0,1-.18,0,.37.37,0,0,1-.15-.51c.47-.86,1-1.71,1.52-2.52a.36.36,0,0,1,.52-.11.37.37,0,0,1,.1.52c-.52.8-1,1.63-1.49,2.47A.36.36,0,0,1,123.55,37.65Zm3.2-4.86a.4.4,0,0,1-.23-.08.39.39,0,0,1-.07-.53c.6-.77,1.24-1.53,1.9-2.25a.39.39,0,0,1,.53,0,.38.38,0,0,1,0,.53c-.64.72-1.27,1.46-1.86,2.21A.35.35,0,0,1,126.75,32.79Zm3.92-4.32a.38.38,0,0,1-.28-.11.38.38,0,0,1,0-.53c.7-.67,1.44-1.33,2.2-1.95a.38.38,0,1,1,.48.58c-.75.61-1.48,1.26-2.17,1.91A.35.35,0,0,1,130.67,28.47Zm4.5-3.69a.38.38,0,0,1-.31-.16.37.37,0,0,1,.09-.52c.79-.56,1.61-1.11,2.45-1.62a.37.37,0,1,1,.39.63c-.82.51-1.63,1.05-2.41,1.6A.33.33,0,0,1,135.17,24.78Zm5-3.06A.37.37,0,0,1,140,21c.86-.46,1.74-.89,2.64-1.3a.38.38,0,0,1,.31.69c-.88.39-1.76.82-2.6,1.27A.33.33,0,0,1,140.13,21.72Zm42.31-2a.35.35,0,0,1-.14,0c-.89-.37-1.79-.72-2.7-1a.38.38,0,0,1-.23-.48.36.36,0,0,1,.47-.23c.93.32,1.85.67,2.75,1.05a.37.37,0,0,1,.2.49A.38.38,0,0,1,182.44,19.75Zm-37-.43a.38.38,0,0,1-.35-.24.38.38,0,0,1,.22-.49c.9-.34,1.84-.67,2.77-1a.37.37,0,0,1,.47.24.38.38,0,0,1-.24.47c-.92.29-1.84.61-2.73.95A.35.35,0,0,1,145.43,19.32Zm31.51-1.49h-.1c-.93-.26-1.87-.49-2.81-.7a.38.38,0,0,1-.29-.44.39.39,0,0,1,.45-.29c.95.21,1.91.45,2.85.71a.37.37,0,0,1-.1.73ZM151,17.57a.39.39,0,0,1-.37-.29.38.38,0,0,1,.28-.45c.94-.24,1.91-.46,2.86-.64a.38.38,0,0,1,.14.74c-.94.18-1.89.39-2.82.63Zm20.25-1h-.06c-1-.15-1.91-.27-2.87-.36a.37.37,0,0,1-.34-.41.39.39,0,0,1,.41-.34c1,.09,2,.22,2.92.37a.37.37,0,0,1,.31.42A.38.38,0,0,1,171.24,16.6Zm-14.53-.13a.38.38,0,0,1-.05-.75c1-.13,2-.23,2.92-.31a.37.37,0,0,1,.4.35.38.38,0,0,1-.34.4c-1,.07-1.93.18-2.88.3Zm8.73-.42h0c-1,0-1.93-.05-2.89,0a.38.38,0,0,1-.38-.37.37.37,0,0,1,.37-.38c1,0,1.95,0,2.93,0a.38.38,0,0,1,0,.75Z"/><path class="cls-3" d="M186.47,21.67a.39.39,0,0,1-.18,0q-.66-.36-1.32-.69a.37.37,0,0,1,.33-.67l1.35.7a.38.38,0,0,1,.15.51A.39.39,0,0,1,186.47,21.67Z"/><path class="cls-3" d="M195.22,19.29a.36.36,0,0,1-.31-.16.37.37,0,0,1,.09-.52c.42-.29.84-.57,1.27-.84a.36.36,0,0,1,.51.12.37.37,0,0,1-.11.51l-1.24.82A.33.33,0,0,1,195.22,19.29Z"/><path class="cls-3" d="M254.2,32.39a.39.39,0,0,1-.34-.21c-.45-.88-.94-1.75-1.46-2.59a.36.36,0,0,1,.12-.51.38.38,0,0,1,.52.11c.53.86,1,1.75,1.49,2.65a.38.38,0,0,1-.16.51A.53.53,0,0,1,254.2,32.39ZM251,27.29a.37.37,0,0,1-.3-.15,29.57,29.57,0,0,0-1.9-2.29.38.38,0,0,1,0-.53.37.37,0,0,1,.53,0c.68.75,1.33,1.53,1.94,2.34a.38.38,0,0,1-.07.52A.34.34,0,0,1,251,27.29Zm-4-4.46a.35.35,0,0,1-.25-.1c-.72-.67-1.49-1.32-2.27-1.92a.38.38,0,0,1,.46-.6c.8.63,1.58,1.29,2.32,2a.38.38,0,0,1-.26.65Zm-4.73-3.7a.37.37,0,0,1-.21-.06c-.82-.54-1.68-1.05-2.55-1.53a.37.37,0,0,1,.35-.66c.9.49,1.77,1,2.61,1.57a.37.37,0,0,1-.2.68ZM199.08,17a.38.38,0,0,1-.34-.2.39.39,0,0,1,.16-.51c.89-.46,1.82-.89,2.76-1.28a.37.37,0,1,1,.29.69c-.92.38-1.83.81-2.7,1.26A.35.35,0,0,1,199.08,17ZM237,16.24a.4.4,0,0,1-.15,0c-.9-.41-1.83-.78-2.76-1.13a.37.37,0,0,1-.23-.48.38.38,0,0,1,.48-.22c1,.35,1.9.73,2.81,1.15a.36.36,0,0,1,.19.49A.37.37,0,0,1,237,16.24Zm-32.34-1.61a.38.38,0,0,1-.36-.26.37.37,0,0,1,.24-.47c.95-.32,1.93-.61,2.91-.86a.38.38,0,0,1,.46.27.38.38,0,0,1-.27.46c-1,.24-1.93.53-2.86.84Zm26.69-.46-.1,0c-1-.27-1.92-.51-2.9-.72A.38.38,0,0,1,228,13a.38.38,0,0,1,.44-.29c1,.22,2,.47,2.95.74a.38.38,0,0,1,.25.47A.37.37,0,0,1,231.31,14.17Zm-20.86-1a.38.38,0,0,1-.07-.75c1-.18,2-.33,3-.44a.37.37,0,1,1,.09.74c-1,.12-2,.26-2.95.44Zm15-.24h-.05c-1-.14-2-.26-3-.34a.36.36,0,0,1-.34-.4.37.37,0,0,1,.4-.35c1,.09,2,.2,3,.35a.38.38,0,0,1,.31.43A.37.37,0,0,1,225.43,12.9Zm-9-.45a.37.37,0,0,1-.38-.35.38.38,0,0,1,.36-.4c1,0,2-.06,3,0a.37.37,0,0,1,.37.38.38.38,0,0,1-.38.37h0c-1,0-2,0-3,0Z"/><path class="cls-3" d="M256,36.56a.38.38,0,0,1-.35-.25c-.17-.47-.35-.93-.53-1.39a.38.38,0,0,1,.21-.49.39.39,0,0,1,.49.21l.54,1.42a.39.39,0,0,1-.23.48Z"/><path class="cls-3" d="M259.42,37.49a.37.37,0,0,1-.38-.35.38.38,0,0,1,.36-.4l1.51,0h0a.38.38,0,0,1,.37.38.37.37,0,0,1-.37.37l-1.49,0Z"/><path class="cls-3" d="M304.78,83.66h0a.38.38,0,0,1-.34-.41c.1-1,.16-2,.18-3a.37.37,0,0,1,.37-.36h0a.37.37,0,0,1,.37.38c0,1-.08,2-.18,3A.37.37,0,0,1,304.78,83.66Zm.12-6a.37.37,0,0,1-.37-.35c-.06-1-.16-2-.29-2.94a.37.37,0,0,1,.74-.1c.13,1,.24,2,.3,3a.38.38,0,0,1-.36.4Zm-.81-5.9a.38.38,0,0,1-.37-.29c-.2-1-.45-1.92-.73-2.86a.39.39,0,0,1,.26-.47.38.38,0,0,1,.46.26c.29,1,.54,1.94.75,2.91a.39.39,0,0,1-.29.45Zm-1.68-5.71a.36.36,0,0,1-.35-.24c-.35-.91-.73-1.83-1.14-2.73a.37.37,0,0,1,.19-.49.36.36,0,0,1,.49.18c.42.91.81,1.85,1.16,2.78a.38.38,0,0,1-.22.48Zm-2.48-5.42a.39.39,0,0,1-.33-.19c-.47-.86-1-1.72-1.5-2.55a.38.38,0,0,1,.64-.4c.53.84,1,1.71,1.52,2.59a.38.38,0,0,1-.15.51A.39.39,0,0,1,299.93,60.68Zm-3.19-5a.37.37,0,0,1-.3-.15c-.58-.79-1.19-1.57-1.83-2.32a.38.38,0,0,1,.05-.53.37.37,0,0,1,.53,0c.64.77,1.27,1.56,1.85,2.37a.37.37,0,0,1-.3.59Zm-3.83-4.56a.39.39,0,0,1-.27-.11c-.69-.72-1.4-1.42-2.12-2.07a.38.38,0,0,1,.51-.55c.73.66,1.45,1.37,2.15,2.1a.38.38,0,0,1,0,.53A.37.37,0,0,1,292.91,51.09Zm-4.4-4a.4.4,0,0,1-.23-.08c-.77-.61-1.57-1.21-2.37-1.77a.38.38,0,0,1-.1-.52.39.39,0,0,1,.53-.1c.81.57,1.63,1.18,2.4,1.8a.38.38,0,0,1-.23.67Zm-4.89-3.4a.33.33,0,0,1-.19-.06c-.84-.5-1.71-1-2.59-1.43a.39.39,0,0,1-.16-.51.37.37,0,0,1,.5-.16c.89.46,1.78,1,2.63,1.46a.38.38,0,0,1-.19.7ZM278.31,41l-.14,0c-.91-.39-1.83-.75-2.75-1.07a.38.38,0,0,1-.23-.48.36.36,0,0,1,.47-.23c.94.33,1.88.69,2.8,1.09a.37.37,0,0,1,.2.49A.38.38,0,0,1,278.31,41Zm-5.61-2h-.1c-1-.26-1.92-.49-2.87-.68a.38.38,0,1,1,.14-.74c1,.2,2,.43,2.93.69a.39.39,0,0,1,.26.47A.38.38,0,0,1,272.7,39Zm-5.84-1.17h-.05c-1-.13-2-.22-2.94-.28a.38.38,0,0,1-.35-.4.37.37,0,0,1,.4-.35c1,.06,2,.16,3,.28a.38.38,0,0,1-.05.75Z"/><path class="cls-3" d="M304.07,88.09H304a.38.38,0,0,1-.28-.45c.11-.49.21-1,.3-1.46a.38.38,0,0,1,.74.14c-.09.49-.2,1-.31,1.48A.37.37,0,0,1,304.07,88.09Z"/><polygon class="cls-4" points="79.62 27.65 45.77 5.55 11.93 27.65 11.56 26.99 45.77 4.65 79.99 26.99 79.62 27.65"/><path class="cls-5" d="M47.42,6a1.65,1.65,0,1,1-3.29,0,1.65,1.65,0,1,1,3.29,0Z"/><polygon class="cls-6" points="82.91 28.41 12.53 28.41 12.53 32.98 15.87 32.98 15.87 121.07 12.53 121.07 12.53 125.64 82.91 125.64 82.91 28.41"/><rect class="cls-3" x="11.74" y="29.6" width="68.06" height="88.09"/><rect class="cls-4" x="8.41" y="117.69" width="74.5" height="4.56"/><rect class="cls-4" x="8.41" y="25.04" width="74.5" height="4.56"/><path class="cls-7" d="M26.07,107.62C27.4,98.66,28.34,96,27.81,89c2.49-2.75,3.24-9.44,3.82-16.51L33,99.71l-.22,6.5c-.57,3.79-1,7.67-1.35,11.47h13.1c.13-1.87.24-3.72.33-5.39l1,0,1,0c.09,1.67.2,3.52.33,5.39h13.1c-.33-3.8-.78-7.68-1.35-11.47l-.22-6.5,1.41-27.18C60.79,79.6,61.54,86.29,64,89c-.54,6.91.4,9.62,1.73,18.58l3.25.73a98.52,98.52,0,0,0,1.31-20L67,66.21c-.17-4.1-4-6.26-5.77-6.54L50.5,56.62l0-1.08-4.56-.12-4.56.12,0,1.08-10.7,3.05c-1.75.28-5.6,2.44-5.77,6.54L21.51,88.36a98.52,98.52,0,0,0,1.31,20Z"/><path class="cls-7" d="M22.91,116.27c0,.21.05.41.09.56s.15.5.26.85H25.6l-.24-.26-.16-1,.35-2,.58,2a.84.84,0,0,0,1.05.57h0a.84.84,0,0,0,.57-1.05l-.84-2.9a1.35,1.35,0,0,1-.06-.49l.06-1.33a4.25,4.25,0,0,0-.2-1.5l-.66-2-3.25.56V111A19.31,19.31,0,0,0,22.91,116.27Z"/><path class="cls-7" d="M64.64,116.9h0a.84.84,0,0,0,1-.57l.58-2,.35,2-.16,1-.24.26h2.34c.12-.35.21-.66.26-.85a5.5,5.5,0,0,0,.09-.56A19.22,19.22,0,0,0,69,111v-2.77l-3.25-.56-.66,2a4.49,4.49,0,0,0-.2,1.5l.06,1.33a1.35,1.35,0,0,1-.06.49l-.84,2.9A.84.84,0,0,0,64.64,116.9Z"/><path class="cls-7" d="M50.23,49.54c2.93-2.44,3.21-6.83,2.85-10.3-.46-4.37-4.51-5.88-8.61-5.89C38,33.33,37,37.55,36.84,39c-.05.44-.29,2.35-.29,2.35,0,.26-.28,1.42.15,1.7a.52.52,0,0,1,.28.51L36.29,47a.79.79,0,0,0,.77,1h.57s0,.51,0,1.36h0c0,.37,0,.79,0,1.25l0,.36.11.8.06.39L38,53.23a1.19,1.19,0,0,0,1.33.91l2.06-.08,0,1.48,9.13.27Z"/><path class="cls-4" d="M42.43,85.14c.73-.66,1.31-1.75,2-2.45s5.67-1.64,7.77-3.07a.53.53,0,0,0-.19-1c-2.95-.79-6.59-1.9-9.44-1.53-1.78.23-2.81-.47-4.59-.24a4.43,4.43,0,0,0-3.48,2.57c-.42,1-1.74,2.49-.48,5.64a4.4,4.4,0,0,1,.22,2,.88.88,0,0,0,1.24.78c1-.38,1.91-.79,3-1.13S41,86.44,42.43,85.14Z"/><path class="cls-8" d="M36.7,85a3.75,3.75,0,0,1-2.45,2.1.87.87,0,0,0,1.23.76c1-.38,1.91-.79,3-1.13s2.57-.28,4-1.58c.73-.66,1.31-1.75,2-2.45s5.67-1.64,7.77-3.07a.52.52,0,0,0,0-.89C46.59,80.34,39.43,78.5,36.7,85Z"/><path class="cls-9" d="M44.3,86a24.49,24.49,0,0,1-.6-4.08c-.08-.21-.54-.07-.67,0,0,.75.13,1.5.25,2.25A2.79,2.79,0,0,0,42,83.67a.54.54,0,0,0-.1-.2,2,2,0,0,0-.77-.41,10.25,10.25,0,0,0-1.34-.73,1.56,1.56,0,0,0-1.54.44,1.25,1.25,0,0,0-.1,1.47,1.52,1.52,0,0,0,1.46.61c.43-.07.82-.32,1.25-.38a2.53,2.53,0,0,0,.83-.11l.13-.1a2.07,2.07,0,0,1,1.18.56,1.73,1.73,0,0,1,.51,1.31l.66,0a1,1,0,0,0,0-.17Z"/><path class="cls-9" d="M40.33,87.55c-.54,0-.84.58-1,1a2.1,2.1,0,0,0-.16,2,2.47,2.47,0,0,0,1.55.81,14.22,14.22,0,0,0,6.79.25,15.77,15.77,0,0,0,2.6-1,9.23,9.23,0,0,0,3.4-2.21,6.91,6.91,0,0,1,1.27-1.48c.23-.16.52-.31.56-.57a3.13,3.13,0,0,0-2.41.24c-.75.34-1.4.83-2.15,1.17a12.61,12.61,0,0,1-5.28.77,16.14,16.14,0,0,1-2-.08,8.08,8.08,0,0,1-2.32-.64A1.76,1.76,0,0,0,40.33,87.55Z"/><path class="cls-10" d="M54.36,82.4a3.15,3.15,0,0,0-.66-1.25,3.93,3.93,0,0,0-3.38-1.26,4.66,4.66,0,0,0-3.23,2.45l-.4.61a4.83,4.83,0,0,1-.63-2.35L46,53l-1.87.22-.07,27.39a6.7,6.7,0,0,0,1.25,3.82,3.76,3.76,0,0,1-1.23.56c-1.2.29-2.73,0-3.63.69a1.41,1.41,0,0,0-.42.5,4.18,4.18,0,0,0-2,2A3.73,3.73,0,0,0,38.57,92h0l1.6-1.08a2,2,0,0,1-.27-2,2.12,2.12,0,0,1,.64-.8,4.72,4.72,0,0,0,.59.5,9.84,9.84,0,0,0,8.57.88A7,7,0,0,0,54.46,84,3.93,3.93,0,0,0,54.36,82.4Z"/><path class="cls-6" d="M54.46,84a7,7,0,0,1-4.74,5.43,9.84,9.84,0,0,1-8.57-.88,4.72,4.72,0,0,1-.59-.5,2.12,2.12,0,0,0-.64.8,2,2,0,0,0,.27,2L38.59,92A3.51,3.51,0,0,1,39,88.69a2.52,2.52,0,0,1,1.5-1,5.07,5.07,0,0,1,2.34.41,9.51,9.51,0,0,0,6-.26A8.39,8.39,0,0,0,53.25,84a6.23,6.23,0,0,1,.85-1.4,2,2,0,0,1,.26-.24A3.93,3.93,0,0,1,54.46,84Z"/><path class="cls-11" d="M57.69,96.15a1.42,1.42,0,0,1-.34.91,1.47,1.47,0,0,1,.34.92,1.44,1.44,0,0,1-.61,1.17s0,.06,0,.09a1.4,1.4,0,0,1,.12.58,1.43,1.43,0,0,1-.45,1l0,.11a1.34,1.34,0,0,1,.19.68,1.46,1.46,0,0,1-.74,1.26,1.61,1.61,0,0,1,.1.53,1.54,1.54,0,0,1-1.6,1.49h0a1.55,1.55,0,0,1-1.56,1.2,1.71,1.71,0,0,1-.79-.2,1.64,1.64,0,0,1-1.18.5,1.6,1.6,0,0,1-.85-.24,1.66,1.66,0,0,1-2.2.41v2A2.06,2.06,0,0,1,47,110.11c-.55.35-.11,2.22-.47,2.22-.1,0-.86,0-1,0s-.11-2-.23-2.06a1.62,1.62,0,0,1-.92-1.45,1.09,1.09,0,0,1,0-.18v-2.18a3.69,3.69,0,0,1,2.2-3.29,4.31,4.31,0,0,1,1.53-.39l3.74-.32a1,1,0,0,0,.39-.11.84.84,0,0,0,.37-.42,22.13,22.13,0,0,0,1-9.8l-.11.06a1.67,1.67,0,0,1-1.7,1.4,1.77,1.77,0,0,1-.86-.22,1.75,1.75,0,0,1-1.53.89,1.73,1.73,0,0,1-.83-.21,1.77,1.77,0,0,1-1.35.61,1.82,1.82,0,0,1-.93-.25,1.79,1.79,0,0,1-2.47-.07h-.08a1.79,1.79,0,0,1-2.4-.3l-.12,0a1.82,1.82,0,0,1-.91.25,1.74,1.74,0,0,1-1.48-.8l-.2,0a16.35,16.35,0,0,0,.77,6.95,0,0,0,0,1,0,0,15,15,0,0,0,.66,1.63,1.58,1.58,0,0,1-.49,2,2.33,2.33,0,0,1,.75,1.25,2.18,2.18,0,0,1-.38,1.71.34.34,0,0,1-.28.14.45.45,0,0,1-.19,0,.3.3,0,0,1-.09-.43,1.54,1.54,0,0,0,.28-1.26,1.68,1.68,0,0,0-.72-1,2,2,0,0,1-1.15,0,1.78,1.78,0,0,1-1.09-.9c0-.1-.09-.22-.14-.32a1.61,1.61,0,0,1-1.18-1.52,1.54,1.54,0,0,1,.2-.74,1.61,1.61,0,0,1-1-1.45,1.54,1.54,0,0,1,.47-1.1,1.57,1.57,0,0,1-.8-1.35,1.55,1.55,0,0,1,.49-1.12,1.57,1.57,0,0,1-.49-1.13,1.54,1.54,0,0,1,.66-1.25c0-.06,0-.11,0-.17a1.34,1.34,0,0,1-.33-.89A1.45,1.45,0,0,1,35.49,91c.07-.16.13-.32.21-.48A1.91,1.91,0,0,1,38,89.67c7,2.23,11,1.76,15.91-1.86a2,2,0,0,1,1.82-.26,1.73,1.73,0,0,1,1.15,1.31c0,.15,0,.29.07.44a1.47,1.47,0,0,1,.48,1.07,1.44,1.44,0,0,1-.23.76s0,.06,0,.1a1.4,1.4,0,0,1,.51,1.09,1.43,1.43,0,0,1-.3.87,1.44,1.44,0,0,1,.47,1.06,1.42,1.42,0,0,1-.46,1A1.37,1.37,0,0,1,57.69,96.15Z"/><path class="cls-6" d="M55.09,94.06c0,1.33-.14,2.65-.21,4-.08,1.51-.33,3.29-1.78,4h0a3.24,3.24,0,0,1-.85.27.84.84,0,0,0,.37-.42,22.13,22.13,0,0,0,1-9.8l-.11.06a1.67,1.67,0,0,1-1.7,1.4,1.77,1.77,0,0,1-.86-.22,1.75,1.75,0,0,1-1.53.89,1.73,1.73,0,0,1-.83-.21,1.77,1.77,0,0,1-1.35.61,1.82,1.82,0,0,1-.93-.25,1.79,1.79,0,0,1-2.47-.07h-.08a1.79,1.79,0,0,1-2.4-.3l-.12,0a1.82,1.82,0,0,1-.91.25,1.74,1.74,0,0,1-1.48-.8l-.2,0a16.35,16.35,0,0,0,.77,6.95,0,0,0,0,1,0,0,15,15,0,0,0,.66,1.63,1.58,1.58,0,0,1-.49,2,2.33,2.33,0,0,1,.75,1.25,2.18,2.18,0,0,1-.38,1.71.34.34,0,0,1-.28.14.45.45,0,0,1-.19,0,.3.3,0,0,1-.09-.43,1.54,1.54,0,0,0,.28-1.26,1.68,1.68,0,0,0-.72-1,2,2,0,0,1-1.15,0,1.87,1.87,0,0,0,1.43-1.41c.24-1.24-.62-2-1.17-4a17.87,17.87,0,0,1-.67-4,3.46,3.46,0,0,1,.51-2.17c.45-.46,1-.31,1.58-.06a8.3,8.3,0,0,0,1.15.44,15.31,15.31,0,0,0,9.87-.46c.53-.21,2.07-1,2.86-1.31l.26-.06C54.25,91.08,55.09,91.41,55.09,94.06Z"/><path class="cls-6" d="M56.26,103.44a1.54,1.54,0,0,1-1.6,1.49h0a1.55,1.55,0,0,1-1.56,1.2,1.71,1.71,0,0,1-.79-.2,1.64,1.64,0,0,1-1.18.5,1.6,1.6,0,0,1-.85-.24,1.66,1.66,0,0,1-2.2.41v2A2.06,2.06,0,0,1,47,110.11c-.55.35-.11,2.22-.47,2.22-.1,0-.86,0-1,0s-.11-2-.23-2.06a1.62,1.62,0,0,1-.92-1.45,6.08,6.08,0,0,1,.8.24,1.73,1.73,0,0,0,1.22.1,1.39,1.39,0,0,0,.72-1.36,3.1,3.1,0,0,1,.19-1.58c.47-.81,1.67-.89,2.66-1a11.94,11.94,0,0,0,4.8-1.54,14.45,14.45,0,0,1,1.39-.77A1.61,1.61,0,0,1,56.26,103.44Z"/><path class="cls-10" d="M53.65,99.49a2.11,2.11,0,0,1-.19.23c0,.12.09.25.13.37a2,2,0,0,1-.05,1.33,1.54,1.54,0,0,1-.73.76h0a1.33,1.33,0,0,1-.56.15h0a1,1,0,0,1-.39.11l-2.63.22-1.11.1h0a3.11,3.11,0,0,0-.44.06l-.33.07a4.41,4.41,0,0,0-.72.26A2.27,2.27,0,0,1,46,103l-.11,0a3.9,3.9,0,0,1-.72.33h0a3.63,3.63,0,0,1-2.14.05,7.05,7.05,0,0,1-1.73-.88l-.43-.29a5.92,5.92,0,0,1-.48-.35,3.59,3.59,0,0,1-.35-.32,1.41,1.41,0,0,1-.23-.18,2.39,2.39,0,0,1-.58-.84,3.18,3.18,0,0,1-.21-1c0-.13,0-.26,0-.39l0-.14c0-.15-.07-.3-.1-.45a1.33,1.33,0,0,1-.23-.3h0a1.85,1.85,0,0,1-.24-.73.78.78,0,0,1,0-.16,5.9,5.9,0,0,1,.13-1.39c0-.05,0-.1,0-.14s0-.29,0-.43a1.11,1.11,0,0,0-.09-.19,1.87,1.87,0,0,1-.18-1,.76.76,0,0,1,0-.15.79.79,0,0,1,.37-.62h0l.17,0a1.74,1.74,0,0,0,1.48.8h.05a1.93,1.93,0,0,0,.49-.09A1.53,1.53,0,0,0,41.2,94l.12,0a1.79,1.79,0,0,0,2.4.3h.08l.17.15a1.58,1.58,0,0,0,.51.28,1.63,1.63,0,0,0,.59.1,1.79,1.79,0,0,0,1.2-.46,1.82,1.82,0,0,0,.93.25h.18a1.71,1.71,0,0,0,1.17-.6,1.69,1.69,0,0,0,.31.13,1.77,1.77,0,0,0,.52.08,1.75,1.75,0,0,0,1.53-.89,1.77,1.77,0,0,0,.86.22,1.61,1.61,0,0,0,.54-.08,1.52,1.52,0,0,0,.51-.25,1.59,1.59,0,0,0,.65-1.07l.11-.06c0,.2,0,.4,0,.59a2.38,2.38,0,0,0,0-.59A4.59,4.59,0,0,1,54,96.19a1.6,1.6,0,0,0-.12.37s0,0,0,.08a1.79,1.79,0,0,0,.17.68h0A2.37,2.37,0,0,1,53.65,99.49Z"/><path class="cls-8" d="M41.57,95.44a4.71,4.71,0,0,0,1.35,0l.31,0a3.89,3.89,0,0,1,1.65.2,1.61,1.61,0,0,1,1,1c0,.1,0,.22.05.34a1.76,1.76,0,0,0,.15.66.92.92,0,0,0,.73.46h.06a.59.59,0,0,0,.5-.22.69.69,0,0,0,.12-.5,2.74,2.74,0,0,0-.26-.84c0-.08-.07-.17-.11-.26a1,1,0,0,1,0-.87,1.74,1.74,0,0,1,.77-.52,1.74,1.74,0,0,0,1-.75,1.69,1.69,0,0,1-.31-.13,1.71,1.71,0,0,1-1.17.6h0a1.74,1.74,0,0,0-.71.58,1.41,1.41,0,0,0,0,1.24l.12.29a2.28,2.28,0,0,1,.22.7.26.26,0,0,1,0,.19.11.11,0,0,1-.1,0,.44.44,0,0,1-.33-.21,1.53,1.53,0,0,1-.11-.5,3.05,3.05,0,0,0,0-.41,2,2,0,0,0-1.31-1.33A3.83,3.83,0,0,0,44,95l.51-.21,0,0a1.58,1.58,0,0,1-.51-.28L42.8,95a.18.18,0,0,0-.07,0,3.58,3.58,0,0,1-1,0c-.41-.09-.83-.37-.85-.75a.22.22,0,0,0,0-.08,1.93,1.93,0,0,1-.49.09h0A1.45,1.45,0,0,0,41.57,95.44Z"/><path class="cls-8" d="M53.86,96.64s0-.06,0-.08a.85.85,0,0,0-.19-.1,2.05,2.05,0,0,0-.72-.12h-.41a2.48,2.48,0,0,0-.17-.37h0a4.79,4.79,0,0,0,.55-.46h0a1.77,1.77,0,0,1,.56.09.16.16,0,0,0,.1,0,.25.25,0,0,0,.23-.14.23.23,0,0,0-.14-.3,1.64,1.64,0,0,0-.38-.1,1.6,1.6,0,0,0,.3-.87.22.22,0,0,0-.24-.23h0a.24.24,0,0,0-.25.22,2,2,0,0,1-1,1.35,2.88,2.88,0,0,0-.26-.35,2.39,2.39,0,0,0,.94-1.93,1.52,1.52,0,0,1-.51.25,2,2,0,0,1-.84,1.4h0l-.09.07-.15.09a3.67,3.67,0,0,1-2,.43c-.18,0-.67,0-.84.32a.66.66,0,0,0,0,.44c.06.22.15.45.23.67a6.25,6.25,0,0,1,.25.77s0,.38,0,.38a2,2,0,0,1-.09.52,1.54,1.54,0,0,1-1.17.84A3.39,3.39,0,0,1,46,99.29a2.08,2.08,0,0,1-.65-.3.68.68,0,0,1-.2-.22l0-.07a1.81,1.81,0,0,1-.09-.82,1.41,1.41,0,0,0-.43-1.32A2,2,0,0,0,43,96.41h0a5.59,5.59,0,0,1-2.92-.19,2.78,2.78,0,0,1-1.77-1.92.31.31,0,0,0-.06-.13,1.87,1.87,0,0,0,.18,1,1.11,1.11,0,0,1,.09.19c0,.14,0,.28,0,.43a3.74,3.74,0,0,0,1.34.89l.19.06a1.38,1.38,0,0,0-.13.89.24.24,0,0,0,.24.19h0a.23.23,0,0,0,.21-.26,1.08,1.08,0,0,1,.12-.68,6.54,6.54,0,0,0,2.54,0h0a1.61,1.61,0,0,1,1.12,0,.46.46,0,0,1,.17.24,3.43,3.43,0,0,0-1.95.47l-.25.13a4.09,4.09,0,0,1-1.62.57,3.51,3.51,0,0,1-2.16-.87,1.85,1.85,0,0,0,.24.73h0a3.51,3.51,0,0,0,1.82.59h.13a4.68,4.68,0,0,0,1.84-.63l.24-.13a5.33,5.33,0,0,1-.23.63c-.08.21-.17.43-.24.66v0a1.93,1.93,0,0,0-1.2.28h0a.2.2,0,0,0-.1,0,1.14,1.14,0,0,1-.87-.12l-.4-.24A4.15,4.15,0,0,0,39,99h0l0,.14c0,.13,0,.26,0,.39a2.7,2.7,0,0,1,.31.2l.44.26a2.07,2.07,0,0,0,.69.22c-.24.37-.36.53-.26.95a6.15,6.15,0,0,0-.93-.65l0,0a2.39,2.39,0,0,0,.58.84,1.41,1.41,0,0,0,.23.18,3.59,3.59,0,0,0,.35.32,5.92,5.92,0,0,0,.48.35l.43.29a7.05,7.05,0,0,0,1.73.88,3.63,3.63,0,0,0,2.14-.05h0a3.9,3.9,0,0,0,.72-.33l.11,0a2.27,2.27,0,0,0,.55.2,4.41,4.41,0,0,1,.72-.26,4.76,4.76,0,0,1,.77-.13,2.09,2.09,0,0,1-1.15-1,.27.27,0,0,0-.34-.11.23.23,0,0,0-.11.31,2.5,2.5,0,0,0,.65.77,1.79,1.79,0,0,1-.46,0c-.12,0-.24-.07-.36-.09a.41.41,0,0,0-.19,0,1.79,1.79,0,0,0-.18-1.28l.21-.13a1.77,1.77,0,0,0,.46-.44,2.46,2.46,0,0,0,.24-.45,1.08,1.08,0,0,1,.08-.19,1.67,1.67,0,0,0,.36,1.13,4.55,4.55,0,0,0,1.34,1,5.65,5.65,0,0,0,.6.31l2.63-.22a1,1,0,0,0,.39-.11h0a1.33,1.33,0,0,0,.56-.15h0l.06-.1a1,1,0,0,0,.08-.64,3,3,0,0,0-1.78-2.14.08.08,0,0,0,0,0,2.15,2.15,0,0,0,.11-.64v0a2.66,2.66,0,0,1,2.06,1.4.25.25,0,0,0,.23.13c0-.12-.08-.25-.13-.37a2.11,2.11,0,0,0,.19-.23,2.82,2.82,0,0,0-.86-.86s0,0,0-.07a4.08,4.08,0,0,0-.1-1.77h.24a1.8,1.8,0,0,1,.54.08.36.36,0,0,1,.24.24.24.24,0,0,0,.25.21H54A1.79,1.79,0,0,1,53.86,96.64ZM43.58,103a6.36,6.36,0,0,1-2.75-1.48l-.09-.24a1.19,1.19,0,0,1,.4-1.18,1.42,1.42,0,0,1,1-.31,1.67,1.67,0,0,0,.46,1.45,1.42,1.42,0,0,0,.44.3,3.72,3.72,0,0,1-.89.2.24.24,0,0,0-.22.25.25.25,0,0,0,.25.2h0a4.64,4.64,0,0,0,1.52-.42,3.47,3.47,0,0,0,.64.06,3,3,0,0,0,1.12-.2,1,1,0,0,1,0,1A3.6,3.6,0,0,1,43.58,103Zm2.78-2.77a1.84,1.84,0,0,1-.19.37,1.53,1.53,0,0,1-.34.33,2.71,2.71,0,0,1-1.89.41,1.27,1.27,0,0,1-.28-.06l-.25-.08a1.56,1.56,0,0,1-.48-.28,1.24,1.24,0,0,1-.31-1.07,2.65,2.65,0,0,1,.08-.39s0,0,0,0c.06-.21.14-.41.22-.62a5.47,5.47,0,0,0,.33-1,2.21,2.21,0,0,1,1.19-.15l0,0v.22A2,2,0,0,0,44.64,99a4.06,4.06,0,0,0-.92,1.15.22.22,0,0,0,.11.31l.11,0a.26.26,0,0,0,.23-.13,3.67,3.67,0,0,1,.78-1,2.55,2.55,0,0,0,.85.41,5.35,5.35,0,0,0,.73.16A2.23,2.23,0,0,0,46.36,100.24Zm6.09,1.26a.57.57,0,0,1,0,.38,1,1,0,0,1-.56.35,3.86,3.86,0,0,1-1.36.32,3.57,3.57,0,0,1-1.63-.58,3.91,3.91,0,0,1-1.19-.89,1.09,1.09,0,0,1-.17-1.17l.2,0a2.06,2.06,0,0,0,1.54-1.12,1.72,1.72,0,0,0,.13-.66,4.34,4.34,0,0,1,.88.06h0a.24.24,0,0,0,.25-.19.23.23,0,0,0-.2-.26,5.1,5.1,0,0,0-1-.07,5.86,5.86,0,0,0-.28-.87q-.12-.33-.21-.63a.34.34,0,0,1,0-.15s0-.06.35,0h.23l0,0a2.12,2.12,0,0,1,1.09,1.08,3.32,3.32,0,0,1,.27,1.54,1.46,1.46,0,0,1-.07.51,2,2,0,0,1-.33.51l-.14.18-.21.27-.5.64a.22.22,0,0,0,.06.32.23.23,0,0,0,.14,0A.27.27,0,0,0,50,101l.29-.37a1.78,1.78,0,0,0,.81.72l.11,0a.25.25,0,0,0,.22-.13.23.23,0,0,0-.11-.31,1.25,1.25,0,0,1-.69-.74l.22-.29.13-.16A2.54,2.54,0,0,1,52.45,101.5Zm-.13-3.13a3.26,3.26,0,0,0-1-.27A3.18,3.18,0,0,0,51,96.87a2.59,2.59,0,0,0-.78-1,4,4,0,0,0,1.28-.44,3.25,3.25,0,0,1,.36.55h0v0l0,.06h0A3.93,3.93,0,0,1,52.32,98.37Z"/><path class="cls-9" d="M42.57,48c.06.27.33.44.57.57l1.35.78,1.27.74c.11.06.25.12.35,0s.08-.22.06-.34a4.09,4.09,0,0,0-1-2,2.06,2.06,0,0,0-2-.61C42.84,47.33,42.5,47.65,42.57,48Z"/><path class="cls-9" d="M40.78,52.57a.18.18,0,0,0,.16.15.87.87,0,0,0,.23,0,1.47,1.47,0,0,1,1.3.6c.14.19.3.46.54.42s.3-.27.31-.47a1.35,1.35,0,0,0-.9-1.28,1.52,1.52,0,0,0-1.55.38A.25.25,0,0,0,40.78,52.57Z"/><path class="cls-9" d="M42.12,50.47l-.35-.11a1.61,1.61,0,0,1,1.11-1,2.33,2.33,0,0,1,.53-.07l.17,0a1.21,1.21,0,0,0,.57-.17.4.4,0,0,0,.2-.4l.35-.07a.77.77,0,0,1-.34.77,1.48,1.48,0,0,1-.74.23l-.18,0a2.32,2.32,0,0,0-.47.06A1.26,1.26,0,0,0,42.12,50.47Z"/><path class="cls-9" d="M42.83,53.35,42.64,53a.75.75,0,0,0,.32-.81,1.39,1.39,0,0,0-.23-.43l-.15-.25a.9.9,0,0,1,0-1l.3.21a.59.59,0,0,0,.06.58l.13.22a1.92,1.92,0,0,1,.28.53A1.1,1.1,0,0,1,42.83,53.35Z"/><path class="cls-10" d="M46,52.54v3.27H44.12V52.64a1,1,0,0,0-1-1l-5.35.1-.11-.8,0-.36c0-.46,0-.88,0-1.25l5.55.37A2.82,2.82,0,0,1,46,52.54Z"/><rect class="cls-4" x="17.06" y="35.24" width="16.43" height="1"/><rect class="cls-4" x="60.95" y="35.24" width="16.43" height="1"/><rect class="cls-4" x="60.95" y="38.24" width="16.43" height="1"/><rect class="cls-4" x="66.6" y="41.24" width="10.78" height="1"/><rect class="cls-4" x="17.06" y="38.24" width="16.43" height="1"/><rect class="cls-4" x="17.06" y="41.24" width="10.75" height="1"/><rect class="cls-4" x="17.06" y="44.24" width="14.26" height="1"/><rect class="cls-4" x="17.06" y="47.24" width="14.26" height="1"/><rect class="cls-12" x="149.11" y="281.42" width="2.46" height="6.79"/><path class="cls-13" d="M157.06,291.37a4.7,4.7,0,1,1-4.69-5A4.84,4.84,0,0,1,157.06,291.37Z"/><rect class="cls-12" x="182.77" y="281.42" width="2.46" height="6.79"/><path class="cls-13" d="M190.71,291.37a4.69,4.69,0,1,1-4.68-5A4.83,4.83,0,0,1,190.71,291.37Z"/><rect class="cls-12" x="217.04" y="281.42" width="2.46" height="6.79"/><path class="cls-13" d="M211.55,291.37a4.7,4.7,0,1,0,4.69-5A4.84,4.84,0,0,0,211.55,291.37Z"/><rect class="cls-14" x="180.22" y="235.57" width="8.45" height="23.03"/><rect class="cls-15" x="178.18" y="254.62" width="12.53" height="23.03"/><polygon class="cls-15" points="147.4 283.88 221.44 283.88 221.44 279.29 184.33 274.7 147.4 279.29 147.4 283.88"/><path class="cls-16" d="M212.72,269.53c0,3.07,0,6-.13,8.67-.05,1.33-.12,2.61-.21,3.83,0,.63-.09,1.25-.14,1.85-.13,1.43-.29,2.76-.48,4-.12.85-.26,1.66-.41,2.42a26.86,26.86,0,0,1-.87,3.24v.8H192.67l-.41-10.47-.33-8.23-.63-15.93-.32-8.11-.54-13.78-1.1-27.55h21.12c.25,9.15.72,18.51,1.15,27.55l.06,1q.21,4.32.4,8.51c.06,1.43.12,2.84.18,4.24,0,.92.07,1.83.11,2.73,0,.46,0,.92,0,1.38,0,.05,0,.1,0,.15,0,.62,0,1.25.06,1.86l.06,2c0,.59,0,1.17.05,1.75s0,1.39,0,2.07c0,.15,0,.29,0,.43C212.68,265.87,212.71,267.73,212.72,269.53Z"/><path class="cls-17" d="M201.8,287.08c4.91,0,8.88.54,8.67,7.26H192.68C192.89,287.32,196.88,287.08,201.8,287.08Z"/><polygon class="cls-18" points="192.62 296.35 210.41 296.35 210.49 293.57 192.7 293.57 192.62 296.35"/><path class="cls-16" d="M179.26,210.28l-1.32,27.55-.66,13.78-.39,8.11-.47,9.87-.29,6.14-.4,8.15-.5,10.46H157.44v-.8s0,0,0,0c-.14-.65-.27-1.35-.38-2.11h0c-.08-.48-.15-1-.21-1.5h0c-.22-1.78-.38-3.8-.49-6,0-.81-.08-1.66-.11-2.53s-.06-2.06-.08-3.15c0-.42,0-.85,0-1.28,0-1.3,0-2.65,0-4s0-3,0-4.5v-.47l0-1.76c0-1.18,0-2.39.07-3.62,0-.93.05-1.86.07-2.81,0-1.68.09-3.39.14-5.13,0-1,.07-2,.1-3,0-.19,0-.39,0-.59,0-1.23.09-2.46.14-3.71,0-.73.05-1.46.08-2.19s0-1.46.08-2.2c.07-1.69.14-3.38.21-5.09.38-9.06.78-18.42,1.06-27.55Z"/><path class="cls-17" d="M166.17,287.08c-4.92,0-8.89.54-8.74,7.26h17.8C175.07,287.32,171.08,287.08,166.17,287.08Z"/><polygon class="cls-18" points="175.27 296.35 157.48 296.35 157.42 293.57 175.21 293.57 175.27 296.35"/><path class="cls-19" d="M212.59,278.2c-.05,1.33-.12,2.61-.21,3.83,0,.63-.09,1.25-.14,1.85-.13,1.43-.29,2.76-.48,4-.09-1.33-.18-2.67-.24-4q-.15-2.91-.19-5.84c0-.41,0-.83,0-1.24l-1.56,1.05L208.11,279a11.15,11.15,0,0,0,1-1.19,12.43,12.43,0,0,0,2.4-5.82,14.21,14.21,0,0,1-5.73,2.73c2.16-1.85,3.6-2.73,5.07-5.14a52.09,52.09,0,0,0,.29-9.82c-.07-1.8-.14-3.55-.07-5.33,0-.93.07-1.85.11-2.78.17-4.25.34-8.51.5-12.75q.21,4.32.4,8.51c.06,1.43.12,2.84.18,4.24,0,.92.07,1.83.11,2.73,0,.46,0,.92,0,1.38,0,.05,0,.1,0,.15,0,.62,0,1.25.06,1.86l.06,2c0,.59,0,1.17.05,1.75s0,1.39,0,2.07c0,.15,0,.29,0,.43,0,1.91.07,3.76.07,5.56C212.74,272.6,212.7,275.5,212.59,278.2Z"/><path class="cls-19" d="M166.35,261.52a7.88,7.88,0,0,1-4.51-1.8,14.61,14.61,0,0,1-3.6-4.79c-.15,1.57-.3,3.17-.44,4.79-.52,6-1,12.28-1.35,18.45-.07,1.06-.14,2.12-.2,3.18,0-1-.06-2.06-.08-3.15,0-.42,0-.85,0-1.28,0-1.3,0-2.65,0-4s0-3,0-4.5v-.47c0-.58,0-1.16,0-1.76,0-1.18,0-2.39.07-3.62,0-.92,0-1.86.07-2.81,0-1.68.09-3.39.14-5.13,0-1,.07-2,.1-3,0-.19,0-.39,0-.59,0-1.22.09-2.46.14-3.71,0-.73.05-1.46.08-2.19s0-1.46.08-2.2a51.62,51.62,0,0,0,2.39,8.69,24,24,0,0,0,4.76,8.11A10.75,10.75,0,0,0,166.35,261.52Z"/><path class="cls-19" d="M179.26,210.28l-1.32,27.55-.66,13.78-.39,8.11-.47,9.87-.29,6.14-.4,8.15-.5,10.46H164l-6.5-.77h0v0h0l1.75-1.14a29.69,29.69,0,0,0,6-5.3,28,28,0,0,0,2.43-3.22,29.22,29.22,0,0,0,3.54-7.54,29.67,29.67,0,0,0,1.29-6.93l.77-9.69.65-8.11,1.1-13.78H157.09c.38-9.06.78-18.42,1.06-27.55Z"/><path class="cls-19" d="M210.47,293.55h0v0h0l-6.49.77H192.67l-.41-10.47-.33-8.23-.63-15.93-.32-8.11-.54-13.78-1.1-27.55h21.12c.25,9.15.72,18.51,1.15,27.55H193.39l1,13.78.57,8.11.69,9.69a29.35,29.35,0,0,0,1.2,6.84,29,29,0,0,0,3.51,7.63,27.83,27.83,0,0,0,2.41,3.22,29.25,29.25,0,0,0,6,5.3l1.7,1.14Z"/><path class="cls-12" d="M189.58,163.78l-.77,1.84a1.32,1.32,0,0,1-1.22.81H160.8a1.31,1.31,0,0,1-1.21-.81l-.77-1.84a1.31,1.31,0,0,0-1.21-.81h-2.33v9.11h37.83V163h-2.32A1.31,1.31,0,0,0,189.58,163.78Z"/><path class="cls-12" d="M189.58,154.68l-.77,1.83a1.32,1.32,0,0,1-1.22.81H160.8a1.31,1.31,0,0,1-1.21-.81l-.77-1.83a1.31,1.31,0,0,0-1.21-.81h-2.33V163h37.83v-9.1h-2.32A1.31,1.31,0,0,0,189.58,154.68Z"/><path class="cls-12" d="M189.58,145.57l-.77,1.83a1.32,1.32,0,0,1-1.22.81H160.8a1.31,1.31,0,0,1-1.21-.81l-.77-1.83a1.31,1.31,0,0,0-1.21-.81h-2.33v9.11h37.83v-9.11h-2.32A1.31,1.31,0,0,0,189.58,145.57Z"/><path class="cls-9" d="M159.31,158.73c.87,9-.78,21.88.08,29.87v0H206.6v0c0-.06,0-.16,0-.31a58.27,58.27,0,0,0,.23-6.26c0-3.36-.2-7-.32-10.67a99,99,0,0,1,.18-13,28.71,28.71,0,0,1,.53-3.37c1.07-4.81,1.49-10.93,2.89-22l0,0c-5.94-2.47-13.72-5.85-15-7.08-2.51,1-9.49,1.25-12.08,1.54h0c-.4,0-.9-.09-1.48-.14-3.14-.26-8.47-.58-10.6-1.4-1.29,1.23-9.12,4.62-15.06,7.1,1.4,11.06,1.82,17.18,2.89,22A30.41,30.41,0,0,1,159.31,158.73Z"/><path class="cls-14" d="M206.46,171.36l-3.11,17.24v0H218v0L219.35,168c-1.64-10.68-4.94-22.52-9.21-35h0l-12.82,3.38,6.37,24.23Z"/><path class="cls-3" d="M181.51,188.6H218l7.23-24.2c-1.64-10.68-6.44-22.71-15.07-31.45h0c-5.94-2.47-13.72-5.85-15-7.08-2.51,1-13.57,37.78-13.57,37.78C181,170.6,181.51,188.6,181.51,188.6Z"/><path class="cls-3" d="M182.33,188.6H148l-8-20.66c1.65-10.68,9.54-23.68,15.82-35h0c5.94-2.47,13.72-5.85,15-7.08,2.51,1,11.78,37.78,11.78,37.78C183.14,170.6,182.33,188.6,182.33,188.6Z"/><path class="cls-20" d="M174.74,119.79l.06,2.2h0l.08,2.67,0,1,.24,8.29,5.23.1,2.53,0,.22,0h0l2.75,0,5.1.1.16-8.6,0-1.19v0l0-2.67s0,0,0,0l.05-2.51Z"/><path class="cls-7" d="M183.12,88.53c-7.4,0-13.29,4.84-12.75,13.6a23.81,23.81,0,0,0,.38,3c-1.64-.93-3.09.7-2.51,3.19.41,1.76,1.27,4.12,2.24,4.47,1.17.43,1.52-.3,1.59-.32.52,2.53.73,4.79,1.64,6.14a42.3,42.3,0,0,0,2.65,3.68c1.74,2,3.19,2.55,6.51,2.57h0c3.32,0,4.77-.47,6.54-2.49a42,42,0,0,0,2.7-3.65c.92-1.33,1.16-3.59,1.71-6.11a1.25,1.25,0,0,0,1.59.34c1-.34,1.86-2.69,2.29-4.44.61-2.49-.81-4.13-2.46-3.22a22.2,22.2,0,0,0,.41-3C196.34,93.54,190.51,88.6,183.12,88.53Z"/><path class="cls-15" d="M172.46,91.07c-2.84,3.31-3.73,7-2.62,13.81,1.11.62,1.7,1.45,2.12,4.83.81.23,1.16.28,1.89.54-4.41-18,2.58-18.36,4.5-18.74a48.64,48.64,0,0,1,9.5.06c1.91.4,8.9.81,4.25,18.79.74-.24,1.09-.29,1.9-.51.46-3.37,1.06-4.19,2.18-4.8,1.2-6.8,0-10.22-2.45-13.84C190.35,86.19,177.54,85.16,172.46,91.07Z"/><path class="cls-15" d="M187.52,88.56a5.52,5.52,0,0,1,2.6.82c1.14.62,4,4.84,3.44,5.83-2.46,4-10.1,5.18-15.48,5.33a5,5,0,0,0,1.8-2.22,14.38,14.38,0,0,1-9.33.75c1-2.64,2-5.38,4-7.29a12.07,12.07,0,0,1,6.12-2.84A35.25,35.25,0,0,1,187.52,88.56Z"/><path class="cls-21" d="M191,139.07a25.58,25.58,0,0,0,5-12.75l-4.75-2.64A16,16,0,0,1,183,134.1Z"/><path class="cls-21" d="M175,139.07a25.56,25.56,0,0,1-5-12.75l4.74-2.64A16,16,0,0,0,183,134.1Z"/><path class="cls-14" d="M181.51,163.66c.22-.29.41-.58.63-.87l.53-.71c7-9.56,16.41-22.2,16.41-22.2s-5.32-2.77-4.94-3.18l5.83.2L198.9,128l-5.34-3.17c-3.87,12.8-7.73,23.67-11.15,35.6-.18.62-.36,1.26-.53,1.89C181.76,162.79,181.64,163.22,181.51,163.66Z"/><path class="cls-14" d="M166.91,139.88s8.59,12,15,22.48l.26.43.53-.71c-.08-.55-.17-1.08-.26-1.61-2.19-13-6.12-22.86-10-35.6L167.09,128,166,136.9l5.83-.2C172.23,137.11,166.91,139.88,166.91,139.88Z"/><path class="cls-22" d="M181,170.07a1.19,1.19,0,1,0,1.19-1.18A1.19,1.19,0,0,0,181,170.07Z"/><path class="cls-23" d="M161.71,148a5.21,5.21,0,0,0-1.69,3.24c-.34,2.39.41,4.88,1.06,7.07l2.35,7.87h-.77l-2.26-7.58c-.65-2.19-1.47-4.92-1.1-7.55a6.08,6.08,0,0,1,2-3.82,2.7,2.7,0,0,1,2.55-.59l-.15.89A2.12,2.12,0,0,0,161.71,148Z"/><path class="cls-23" d="M174.17,166.21h-.74l1-9.08c.25-2.28.53-4.86-.23-7.14a5.18,5.18,0,0,0-2.25-2.89,2.15,2.15,0,0,0-2-.11l-.31-.84a2.7,2.7,0,0,1,2.62.12,6.09,6.09,0,0,1,2.65,3.4c.83,2.51.53,5.35.28,7.62Z"/><path class="cls-24" d="M168.43,147.5l1.72-.29a.47.47,0,0,0,.33-.53l-.07-.71a.46.46,0,0,0-.41-.47l-1.75,0a.46.46,0,0,0-.38.54l.09,1C168,147.33,168.2,147.54,168.43,147.5Z"/><path class="cls-24" d="M165.24,147.79l-1.75,0a.46.46,0,0,1-.42-.46l-.06-.71a.45.45,0,0,1,.32-.53l1.73-.3a.46.46,0,0,1,.46.46l.09,1A.44.44,0,0,1,165.24,147.79Z"/><path class="cls-11" d="M171.44,166.21l-.48-4.92a5.48,5.48,0,0,0-.86-2.68,2.41,2.41,0,0,0-1.91-.79,2.92,2.92,0,0,0-2.31.82c-.9,1.11-.87,3.36-.54,5.09q.21,1.17.39,2.31l0,.17h-1c-.12-.76-.25-1.52-.39-2.29-.18-.95-.66-4.19.75-5.93a3.9,3.9,0,0,1,3.15-1.21A3.41,3.41,0,0,1,171,158a6.48,6.48,0,0,1,1.05,3.18l.48,5Z"/><path class="cls-11" d="M169.43,166.21c-.14-1.77-.49-3.73-1.43-3.81-.34,0-.68.39-.74.78a6.26,6.26,0,0,0,.06,1.48c0,.2,0,.38.05.56,0,.33.07.66.11,1h-1c0-.3-.08-.6-.1-.91s0-.34-.06-.53a7.79,7.79,0,0,1,0-1.74,1.84,1.84,0,0,1,1.91-1.66c.95.08,2,.74,2.32,4.84Z"/><rect class="cls-22" x="161.97" y="164.68" width="13.43" height="3.26"/><path class="cls-11" d="M171.62,176.34l1-.13a14.17,14.17,0,0,1,.58-6.17l.24-.69a10.24,10.24,0,0,0,.61-2.19,5.25,5.25,0,0,0-.68-3.55,2,2,0,0,0-2.33-.55,1.85,1.85,0,0,0-1.38,1.62h1c0-.23.29-.5.68-.64a1.07,1.07,0,0,1,1.17.21,4.3,4.3,0,0,1,.47,2.78,10.14,10.14,0,0,1-.55,2c-.09.23-.17.47-.25.71A15.16,15.16,0,0,0,171.62,176.34Z"/><rect class="cls-25" x="170.93" y="175.54" width="2.08" height="2.86"/><path class="cls-22" d="M167.82,181.71a4.15,4.15,0,1,0,4.15-4.15A4.15,4.15,0,0,0,167.82,181.71Z"/><circle class="cls-24" cx="171.97" cy="181.71" r="1.96"/><polygon class="cls-26" points="201.54 142.62 203.69 158.75 179.18 164.56 163.67 162.18 164.77 142.9 152.77 165.82 172.17 177.37 191.98 177.37 220.17 177.37 201.54 142.62"/><path class="cls-3" d="M229.49,170.24a7.38,7.38,0,0,1-4.39,7l-.14.07a7.4,7.4,0,0,1-9.76-3.77l-.9-1.6-1-1.78c-1.9-3.48-3.69-7-5.31-10.51q-1.22-2.61-2.28-5.24a106.16,106.16,0,0,1-3.9-11,7.38,7.38,0,0,1,3.76-9.75l.14-.07a7.38,7.38,0,0,1,9.75,3.77l3.71,8.35.37.83.54,1.22.5,1.12.15.34.14.33.76,1.71.29.64.36.82.91,2.05,5.65,12.73A7.43,7.43,0,0,1,229.49,170.24Z"/><path class="cls-27" d="M166.89,167.75a18.74,18.74,0,0,0,5.79,0,38.66,38.66,0,0,1,3.85-.65c3.47-.25,6.77,1.33,9.89,2.86l7,3.47a1.21,1.21,0,0,1,.62.51,1.09,1.09,0,0,1-.85,1.57,36,36,0,0,1-8.56,0c-1.23-.2-1.93-.93-3.17-.82a17.08,17.08,0,0,0-2.81.65,18.8,18.8,0,0,1-11.94-.79A37.25,37.25,0,0,0,166.89,167.75Z"/><path class="cls-3" d="M170.9,167.45l-.71,8.26c-.51.14-20.93,2.43-23,2.43h-1.61a7.13,7.13,0,0,1-5.83-4.62,7.21,7.21,0,0,1-.37-3.47l0-.14a7.41,7.41,0,0,1,8.24-6.24l2.85.57,11.81,2.26Z"/><path class="cls-3" d="M221.64,178.38a5.65,5.65,0,0,1-.7-.11l-.91-.16q-4.32-.78-8.34-1.72c-.32-.09-.64-.15-1-.23-1.23-.31-2.44-.62-3.62-.95l-.6-.17a78.86,78.86,0,0,1-8-2.74c-.84-.33-1.64-.68-2.43-1.05l1.24-8.78,9.91,1.39h0l.2,0,9-.25,3.28-.09,2.68-.08a7.41,7.41,0,0,1,7,7.76v.15a7.46,7.46,0,0,1-.74,2.84A7.36,7.36,0,0,1,221.64,178.38Z"/><path class="cls-28" d="M204,164.4a2.13,2.13,0,0,0,2.62.95h0a1.22,1.22,0,0,0,.63-.91,1.82,1.82,0,0,0-.31-1.25l-3.73-5.7a2,2,0,0,0-2.48-.9l-.05,0a1.51,1.51,0,0,0-.34,2.23Z"/><path class="cls-11" d="M200.2,145.43H176.59a1.34,1.34,0,0,0-1.34,1.34v28a1.34,1.34,0,0,0,1.34,1.34H200.2a1.34,1.34,0,0,0,1.34-1.34v-28A1.34,1.34,0,0,0,200.2,145.43Z"/><path class="cls-29" d="M195.22,170.38c3.08,1.91,5.83,4,8.88,1,2.55-2.53,3.81-4.25,3.35-7.48l-4.2-3.94Z"/><path class="cls-27" d="M195.2,157.2a1.7,1.7,0,0,0,.62,2.34l5.38,3.11a1.69,1.69,0,0,0,2.33-.62h0a1.71,1.71,0,0,0-.62-2.33l-5.38-3.12a1.71,1.71,0,0,0-2.33.62Z"/><path class="cls-27" d="M192.58,159.58a1.72,1.72,0,0,0,.6,2.35l6.27,3.66a1.71,1.71,0,0,0,2.34-.59h0a1.72,1.72,0,0,0-.59-2.35L194.93,159a1.72,1.72,0,0,0-2.35.59Z"/><path class="cls-27" d="M191.75,163a1.71,1.71,0,0,0,.6,2.34l5.35,3.17a1.71,1.71,0,0,0,2.34-.6h0a1.71,1.71,0,0,0-.59-2.34l-5.35-3.17a1.72,1.72,0,0,0-2.35.6Z"/><path class="cls-27" d="M191.58,166.53a1.44,1.44,0,0,0,.5,2l3.78,2.25a1.45,1.45,0,0,0,2-.5h0a1.45,1.45,0,0,0-.5-2L193.56,166a1.44,1.44,0,0,0-2,.5Z"/><path class="cls-3" d="M213.54,38.23a25.65,25.65,0,0,1-.67,5.85,25.23,25.23,0,0,1-3.31,7.9,25.67,25.67,0,1,1,4-13.75Z"/><path class="cls-20" d="M191,48.73l-1.41-.14-2-.52-3.32-3a1.48,1.48,0,0,0-1.65-.23l-1.08-1a1.5,1.5,0,0,0-2.12.12l0,0a1.49,1.49,0,0,0-.29.5,1.58,1.58,0,0,0-1.34.73l0,0a1.62,1.62,0,0,0,.47,2.26l5.34,3.5,0,0,.16.08.14.06.15,0,.17,0h.06l6.35.67a1.64,1.64,0,0,0,1.8-1.45v0A1.61,1.61,0,0,0,191,48.73Z"/><path class="cls-20" d="M202.48,42.78l-5,1a3,3,0,0,1-.94.11l-5.81-.23A1.62,1.62,0,0,0,189,45.2v0a1.63,1.63,0,0,0,1.56,1.7l3.75.17S202.92,42.65,202.48,42.78Z"/><path class="cls-7" d="M212.87,44.08a25.23,25.23,0,0,1-3.31,7.9l-3.92-2.21-3.45.86a37.21,37.21,0,0,1-10,2.29c-.41,0-.8.1-1.09.1-1.51,0-6.34-.49-6.34-.49L178.1,50a1.62,1.62,0,0,1-.89-2.12v0a1.53,1.53,0,0,1,.51-.66,1.61,1.61,0,0,1,1.61-.23l5.54,2.27,5.94-.48,0,0c.16-.11,1.15-.79,2.54-1.65,2.54-1.57,6.42-3.76,9.11-4.27h0l.34-.05,4.06.29Z"/><path class="cls-11" d="M181.25,44.22c0,.19-.38.35-.85.35s-.84-.16-.84-.35.38-.35.84-.35S181.25,44,181.25,44.22Z"/><polygon class="cls-30" points="180.02 44.22 180.79 44.22 181.09 39 179.72 39 180.02 44.22"/><rect class="cls-30" x="175.44" y="21.3" width="9.93" height="17.41" rx="2.78"/><path class="cls-30" d="M185.37,30V24.08a2.77,2.77,0,0,0-2.78-2.78h-4.37a2.77,2.77,0,0,0-2.78,2.78V30Z"/><path class="cls-31" d="M176.73,30.37h7.35v5.27a1.92,1.92,0,0,1-1.92,1.92h-3.51a1.92,1.92,0,0,1-1.92-1.92Z"/><path class="cls-9" d="M176.49,30.13v5.51a2.16,2.16,0,0,0,2.16,2.16h3.51a2.16,2.16,0,0,0,2.16-2.16V30.13Zm7.35,5.51a1.68,1.68,0,0,1-1.68,1.68h-3.51A1.68,1.68,0,0,1,177,35.64v-5h6.87Z"/><rect class="cls-11" x="175.09" y="28.98" width="10.64" height="1.62"/><path class="cls-9" d="M178.49,25.61V21.48c0-.06,0-.12,0-.18h3.81v4.31a1.91,1.91,0,0,1-1.91,1.91A1.91,1.91,0,0,1,178.49,25.61Z"/><path class="cls-9" d="M175.44,24.29v-.21a2.77,2.77,0,0,1,2.78-2.78h4.37a2.77,2.77,0,0,1,2.78,2.78v.21Z"/><path class="cls-32" d="M179.24,23.21a1.16,1.16,0,0,1,1.16-1.16h0a1.16,1.16,0,0,1,1.17,1.16v2.4a1.16,1.16,0,0,1-1.17,1.16h0a1.16,1.16,0,0,1-1.16-1.16Z"/><path class="cls-11" d="M180.4,22.52a.69.69,0,0,1,.7.69v2.4a.7.7,0,0,1-1.39,0v-2.4A.69.69,0,0,1,180.4,22.52Z"/><rect class="cls-9" x="179.07" y="38.71" width="2.66" height="1.14"/><path class="cls-12" d="M178.23,31.94a.13.13,0,0,0-.08,0,.08.08,0,0,0-.06,0s0,0-.05.05l-.33.52a.16.16,0,0,0,0,.07.1.1,0,0,0,0,.07.14.14,0,0,0,0,.09.09.09,0,0,0,.15,0l.17-.3v2.7a.1.1,0,0,0,0,.09.29.29,0,0,0,.1,0l.09,0a.13.13,0,0,0,0-.09V32A.12.12,0,0,0,178.23,31.94Z"/><path class="cls-12" d="M180.31,34.22s0,0-.08,0H180v-.88a.13.13,0,0,0,0-.09l-.1,0a.24.24,0,0,0-.09,0,.1.1,0,0,0,0,.09v.88h-.81l.95-2.07a.15.15,0,0,0,0-.07.12.12,0,0,0,0-.09.15.15,0,0,0-.09,0h-.07a.18.18,0,0,0-.06.08l-1,2.24a.19.19,0,0,0,0,.08.32.32,0,0,0,0,.09.1.1,0,0,0,.08,0h1.05v.67a.1.1,0,0,0,0,.09.24.24,0,0,0,.09,0l.1,0a.13.13,0,0,0,0-.09v-.67h.22a.09.09,0,0,0,.08,0,.38.38,0,0,0,0-.1A.12.12,0,0,0,180.31,34.22Z"/><path class="cls-12" d="M180.86,34.9a.17.17,0,0,0-.26,0,.21.21,0,0,0-.06.16.2.2,0,0,0,.06.14.16.16,0,0,0,.26,0,.2.2,0,0,0,.06-.14A.21.21,0,0,0,180.86,34.9Z"/><path class="cls-12" d="M182.92,32.43a.75.75,0,0,0-.18-.3.61.61,0,0,0-.27-.16.93.93,0,0,0-.34,0,.91.91,0,0,0-.33,0,.61.61,0,0,0-.27.16.91.91,0,0,0-.19.3,1.53,1.53,0,0,0-.06.45v1.41a1.44,1.44,0,0,0,.06.45.81.81,0,0,0,.19.3.62.62,0,0,0,.27.17,1,1,0,0,0,.67,0,.62.62,0,0,0,.27-.17.69.69,0,0,0,.18-.3,1.18,1.18,0,0,0,.07-.45V32.88A1.25,1.25,0,0,0,182.92,32.43Zm-.21,1.86a.73.73,0,0,1-.15.53.55.55,0,0,1-.43.17.58.58,0,0,1-.43-.17.78.78,0,0,1-.15-.53V32.88a.75.75,0,0,1,.15-.52.54.54,0,0,1,.43-.17.52.52,0,0,1,.43.17.7.7,0,0,1,.15.52Z"/><circle class="cls-3" cx="131.21" cy="68.28" r="25.65" transform="matrix(0.16, -0.99, 0.99, 0.16, 42.95, 186.97)"/><polygon class="cls-33" points="123.55 60.87 123.55 80.23 123.55 84.28 124.61 84.28 124.61 80.23 124.61 60.87 123.55 60.87"/><rect class="cls-30" x="119.97" y="80.91" width="8.22" height="1.33"/><polygon class="cls-30" points="127.13 58.85 121.03 58.85 121.03 80.91 121.96 80.91 121.96 59.48 126.2 59.48 126.2 80.91 127.13 80.91 127.13 58.85"/><polygon class="cls-4" points="121.96 59.48 121.96 61.78 121.96 62.27 126.2 62.27 126.2 61.78 126.2 59.48 121.96 59.48"/><rect class="cls-33" x="121.03" y="84.28" width="6.1" height="1.44"/><rect class="cls-30" x="121.53" y="77.77" width="2.55" height="0.75"/><rect class="cls-30" x="121.53" y="75.7" width="1.28" height="0.75"/><rect class="cls-30" x="121.53" y="73.63" width="2.55" height="0.75"/><rect class="cls-30" x="121.53" y="71.56" width="1.28" height="0.75"/><rect class="cls-30" x="121.53" y="69.49" width="2.55" height="0.75"/><rect class="cls-30" x="121.53" y="67.43" width="1.28" height="0.75"/><rect class="cls-30" x="121.53" y="65.36" width="2.55" height="0.75"/><rect class="cls-30" x="121.53" y="63.29" width="1.28" height="0.75"/><polygon class="cls-34" points="124.7 55.81 123.46 55.81 122.91 58.85 125.25 58.85 124.7 55.81"/><polygon class="cls-30" points="124.26 48.22 123.9 46.27 123.9 55.81 124.26 55.81 124.26 48.22"/><path class="cls-30" d="M136,70.43v-.84h-4.1v.84a2.28,2.28,0,0,1-.45,1.35v0a2.26,2.26,0,0,0-.45,1.35V84.73a1,1,0,0,0,1,1h3.94a1,1,0,0,0,1-1V73.15a2.25,2.25,0,0,0-.44-1.35v0A2.28,2.28,0,0,1,136,70.43Z"/><path class="cls-3" d="M136,72.08a2.83,2.83,0,0,1-.54-1.65v-1.2h-3.12v1.2a2.76,2.76,0,0,1-.55,1.66,1.74,1.74,0,0,0-.35,1h4.92A1.81,1.81,0,0,0,136,72.08Z"/><path class="cls-14" d="M131.46,73.14h0V84.73a.49.49,0,0,0,.49.5,6,6,0,0,1,3.94,0,.49.49,0,0,0,.49-.5V73.15h-4.92Z"/><rect class="cls-34" x="131.54" y="68.7" width="4.76" height="1.07" rx="0.36"/><rect class="cls-30" x="131.27" y="72.9" width="2.11" height="0.49"/><rect class="cls-30" x="131.27" y="74.95" width="2.11" height="0.49"/><rect class="cls-30" x="131.27" y="77.01" width="2.11" height="0.49"/><rect class="cls-30" x="131.27" y="79.07" width="2.11" height="0.49"/><rect class="cls-30" x="131.27" y="81.12" width="2.11" height="0.49"/><rect class="cls-30" x="131.27" y="83.18" width="2.11" height="0.49"/><path class="cls-30" d="M143.68,70.43v-.84h-4.1v.84a2.28,2.28,0,0,1-.45,1.35v0a2.25,2.25,0,0,0-.44,1.35V84.73a1,1,0,0,0,1,1h3.94a1,1,0,0,0,1-1V73.15a2.25,2.25,0,0,0-.44-1.35v0A2.28,2.28,0,0,1,143.68,70.43Z"/><path class="cls-3" d="M143.73,72.08a2.83,2.83,0,0,1-.54-1.65v-1.2h-3.12v1.2a2.82,2.82,0,0,1-.55,1.66,1.74,1.74,0,0,0-.35,1h4.92A1.81,1.81,0,0,0,143.73,72.08Z"/><path class="cls-14" d="M139.17,73.14h0V84.73a.49.49,0,0,0,.49.5,6,6,0,0,1,3.94,0,.49.49,0,0,0,.49-.5V73.15h-4.92Z"/><rect class="cls-34" x="139.25" y="68.7" width="4.76" height="1.07" rx="0.36"/><rect class="cls-30" x="138.98" y="72.9" width="2.1" height="0.49"/><rect class="cls-30" x="138.98" y="74.95" width="2.1" height="0.49"/><rect class="cls-30" x="138.98" y="77.01" width="2.1" height="0.49"/><rect class="cls-30" x="138.98" y="79.07" width="2.1" height="0.49"/><rect class="cls-30" x="138.98" y="81.12" width="2.1" height="0.49"/><rect class="cls-30" x="138.98" y="83.18" width="2.1" height="0.49"/><rect class="cls-15" x="80.32" y="177.17" width="7" height="122.96"/><rect class="cls-15" x="261.84" y="177.17" width="7" height="122.96"/><rect class="cls-3" x="66.78" y="177.17" width="214.57" height="74.43"/><rect class="cls-35" x="57.46" y="172.02" width="233.2" height="5.41"/><rect class="cls-15" x="274.34" y="177.17" width="7" height="126.52"/><rect class="cls-6" x="66.78" y="177.17" width="214.57" height="20.88"/><rect class="cls-15" x="66.78" y="177.17" width="7" height="126.52"/><path class="cls-15" d="M223.43,166.83l6.58-30a3.47,3.47,0,0,1,3.21-2.64h40a2.06,2.06,0,0,1,2.06,2.64l-6.58,30a3.47,3.47,0,0,1-3.21,2.64h-40A2.06,2.06,0,0,1,223.43,166.83Z"/><path class="cls-12" d="M226.9,169.47h40a3.46,3.46,0,0,0,3.21-2.64l6.58-30a2.06,2.06,0,0,0-2.06-2.64h-40a3.47,3.47,0,0,0-3.22,2.64l-6.57,30A2.05,2.05,0,0,0,226.9,169.47Z"/><path class="cls-3" d="M249.05,151.82a2.11,2.11,0,0,0,2.11,2.7,3.54,3.54,0,0,0,3.29-2.7,2.1,2.1,0,0,0-2.11-2.7A3.55,3.55,0,0,0,249.05,151.82Z"/><polygon class="cls-12" points="198.35 172.08 209.21 172.08 264.41 172.08 264.41 169.47 198.35 169.47 198.35 172.08"/><rect class="cls-15" x="223.54" y="169.47" width="40.87" height="2.61"/><circle class="cls-3" cx="247" cy="53.5" r="25.65"/><rect class="cls-14" x="230.57" y="42.35" width="10.59" height="15.66" rx="1.8"/><path class="cls-36" d="M236,54.7a1.22,1.22,0,0,1,.17-.15,1.33,1.33,0,0,1,1.85,1.85,1.22,1.22,0,0,1-.15.17l-.17.15a1.32,1.32,0,0,1-1.7-.15,1.31,1.31,0,0,1-.14-1.7A1.15,1.15,0,0,1,236,54.7Z"/><path class="cls-37" d="M236,56.57a.75.75,0,0,0,.17.14,1.31,1.31,0,0,1,0-1.53,1.15,1.15,0,0,1,.14-.17,1.22,1.22,0,0,1,.17-.15,1.32,1.32,0,0,1,1.53,0,.75.75,0,0,0-.14-.17,1.31,1.31,0,0,0-1.7-.15,1.22,1.22,0,0,0-.17.15,1.15,1.15,0,0,0-.14.17A1.31,1.31,0,0,0,236,56.57Z"/><path class="cls-36" d="M232,54.7a1.22,1.22,0,0,1,.17-.15,1.33,1.33,0,0,1,1.85,1.85.8.8,0,0,1-.15.17l-.17.15a1.32,1.32,0,0,1-1.84-1.85A1.15,1.15,0,0,1,232,54.7Z"/><path class="cls-37" d="M232,56.57a.75.75,0,0,0,.17.14,1.31,1.31,0,0,1,0-1.53,1.15,1.15,0,0,1,.14-.17,1.22,1.22,0,0,1,.17-.15,1.34,1.34,0,0,1,1.54,0,1.22,1.22,0,0,0-.15-.17,1.31,1.31,0,0,0-1.7-.15,1.22,1.22,0,0,0-.17.15,1.15,1.15,0,0,0-.14.17A1.32,1.32,0,0,0,232,56.57Z"/><path class="cls-36" d="M236,51.06l.17-.14a1.32,1.32,0,0,1,1.85,1.84,1.82,1.82,0,0,1-.32.32,1.32,1.32,0,0,1-1.7-.15,1.31,1.31,0,0,1-.14-1.7A1.15,1.15,0,0,1,236,51.06Z"/><path class="cls-37" d="M236,52.93a.75.75,0,0,0,.17.14,1.31,1.31,0,0,1,0-1.53,1.15,1.15,0,0,1,.14-.17l.17-.14a1.31,1.31,0,0,1,1.53,0,.75.75,0,0,0-.14-.17,1.31,1.31,0,0,0-1.7-.14l-.17.14a1.15,1.15,0,0,0-.14.17A1.31,1.31,0,0,0,236,52.93Z"/><path class="cls-36" d="M232,51.06l.17-.14a1.32,1.32,0,0,1,1.85,1.84.8.8,0,0,1-.15.17,1.22,1.22,0,0,1-.17.15,1.32,1.32,0,0,1-1.84-1.85A1.15,1.15,0,0,1,232,51.06Z"/><path class="cls-37" d="M232,52.93a.75.75,0,0,0,.17.14,1.31,1.31,0,0,1,0-1.53,1.15,1.15,0,0,1,.14-.17l.17-.14a1.32,1.32,0,0,1,1.54,0,1.22,1.22,0,0,0-.15-.17,1.31,1.31,0,0,0-1.7-.14l-.17.14a1.15,1.15,0,0,0-.14.17A1.32,1.32,0,0,0,232,52.93Z"/><path class="cls-36" d="M236,47.42l.17-.14a1.32,1.32,0,0,1,1.85,1.84,1.22,1.22,0,0,1-.15.17.8.8,0,0,1-.17.15,1.32,1.32,0,0,1-1.84-1.85A1.15,1.15,0,0,1,236,47.42Z"/><path class="cls-37" d="M236,49.29a1.22,1.22,0,0,0,.17.15,1.32,1.32,0,0,1,0-1.54,1.15,1.15,0,0,1,.14-.17l.17-.14a1.31,1.31,0,0,1,1.53,0,.75.75,0,0,0-.14-.17,1.31,1.31,0,0,0-1.7-.14l-.17.14a1.15,1.15,0,0,0-.14.17A1.31,1.31,0,0,0,236,49.29Z"/><path class="cls-36" d="M232,47.42l.17-.14a1.32,1.32,0,0,1,1.85,1.84,1.82,1.82,0,0,1-.32.32,1.32,1.32,0,0,1-1.84-1.85A1.15,1.15,0,0,1,232,47.42Z"/><path class="cls-37" d="M232,49.29a1.22,1.22,0,0,0,.17.15,1.32,1.32,0,0,1,0-1.54,1.15,1.15,0,0,1,.14-.17l.17-.14a1.32,1.32,0,0,1,1.54,0,1.22,1.22,0,0,0-.15-.17,1.31,1.31,0,0,0-1.7-.14l-.17.14a1.15,1.15,0,0,0-.14.17A1.32,1.32,0,0,0,232,49.29Z"/><path class="cls-36" d="M236,43.78l.17-.14a1.33,1.33,0,0,1,1.85,1.85,1.14,1.14,0,0,1-.15.16.8.8,0,0,1-.17.15A1.32,1.32,0,0,1,235.89,44,1.15,1.15,0,0,1,236,43.78Z"/><path class="cls-37" d="M236,45.66l.17.14a1.32,1.32,0,0,1,0-1.54,1.15,1.15,0,0,1,.14-.17l.17-.14A1.31,1.31,0,0,1,238,44a.75.75,0,0,0-.14-.17,1.32,1.32,0,0,0-1.7-.14l-.17.14a1.15,1.15,0,0,0-.14.17A1.32,1.32,0,0,0,236,45.66Z"/><path class="cls-36" d="M232,43.78l.17-.14a1.33,1.33,0,0,1,1.85,1.85.75.75,0,0,1-.15.16.8.8,0,0,1-.17.15A1.32,1.32,0,0,1,231.89,44,1.15,1.15,0,0,1,232,43.78Z"/><path class="cls-37" d="M232,45.66l.17.14a1.32,1.32,0,0,1,0-1.54,1.15,1.15,0,0,1,.14-.17l.17-.14a1.32,1.32,0,0,1,1.54,0,1.22,1.22,0,0,0-.15-.17,1.32,1.32,0,0,0-1.7-.14l-.17.14a1.15,1.15,0,0,0-.14.17A1.34,1.34,0,0,0,232,45.66Z"/><path class="cls-38" d="M235,56.92a.13.13,0,0,1,.13.14v.27a.13.13,0,0,1-.13.13.13.13,0,0,1-.14-.13v-.27A.14.14,0,0,1,235,56.92Z"/><path class="cls-38" d="M235,44.06a.13.13,0,0,1,.13.13v.54a.13.13,0,0,1-.13.13.13.13,0,0,1-.14-.13v-.54A.13.13,0,0,1,235,44.06Zm0,1.42a.14.14,0,0,1,.13.14v.54a.13.13,0,0,1-.13.13.13.13,0,0,1-.14-.13v-.54A.14.14,0,0,1,235,45.48Zm0,1.43a.13.13,0,0,1,.13.14v.54a.13.13,0,0,1-.13.13.13.13,0,0,1-.14-.13v-.54A.14.14,0,0,1,235,46.91Zm0,1.43a.13.13,0,0,1,.13.14V49a.13.13,0,0,1-.13.14.14.14,0,0,1-.14-.14v-.53A.14.14,0,0,1,235,48.34Zm0,1.43a.13.13,0,0,1,.13.14v.53a.13.13,0,0,1-.13.14.14.14,0,0,1-.14-.14v-.53A.14.14,0,0,1,235,49.77Zm0,1.43a.13.13,0,0,1,.13.14v.53A.13.13,0,0,1,235,52a.14.14,0,0,1-.14-.14v-.53A.14.14,0,0,1,235,51.2Zm0,1.43a.13.13,0,0,1,.13.14v.53a.13.13,0,0,1-.13.14.14.14,0,0,1-.14-.14v-.53A.14.14,0,0,1,235,52.63Zm0,1.43a.13.13,0,0,1,.13.14v.53a.13.13,0,0,1-.13.14.14.14,0,0,1-.14-.14V54.2A.14.14,0,0,1,235,54.06Zm0,1.43a.13.13,0,0,1,.13.14v.53a.13.13,0,0,1-.13.14.14.14,0,0,1-.14-.14v-.53A.14.14,0,0,1,235,55.49Z"/><path class="cls-38" d="M235,42.89a.13.13,0,0,1,.13.14v.27a.13.13,0,0,1-.13.13.13.13,0,0,1-.14-.13V43A.14.14,0,0,1,235,42.89Z"/><rect class="cls-11" x="237.28" y="42.35" width="13.82" height="15.73"/><path class="cls-34" d="M241.85,58.08h9.24V42.35h-9.71C239.47,48.52,243.29,51.1,241.85,58.08Z"/><path class="cls-34" d="M240.18,50.19a16.36,16.36,0,0,1,.38,7.78l0,.11h.58c1.43-7-2.38-9.56-.47-15.73H240A13.65,13.65,0,0,0,240.18,50.19Z"/><rect class="cls-14" x="238.15" y="52.12" width="0.7" height="4.7"/><rect class="cls-14" x="239.31" y="53.46" width="0.5" height="3.36"/><path class="cls-3" d="M243.3,47.42A2.66,2.66,0,1,1,246,50.08,2.66,2.66,0,0,1,243.3,47.42Z"/><path class="cls-11" d="M244,47.42a1.95,1.95,0,1,1,2,1.95A1.95,1.95,0,0,1,244,47.42Z"/><rect class="cls-14" x="243.75" y="51.24" width="0.98" height="5.48"/><rect class="cls-14" x="245.41" y="53.89" width="0.55" height="2.83"/><rect class="cls-14" x="246.64" y="52.62" width="0.55" height="4.1"/><rect class="cls-14" x="247.87" y="53.46" width="0.55" height="3.25"/><path class="cls-39" d="M260.65,50v17.7a1.39,1.39,0,0,1-1.39,1.39H247.32a1.38,1.38,0,0,1-1.38-1.39V50a8.93,8.93,0,0,1,1.2-4.46l2.6-4.44a3.33,3.33,0,0,0,.45-1.66V38.16h6.21v1.32a3.23,3.23,0,0,0,.45,1.66l2.59,4.44A8.83,8.83,0,0,1,260.65,50Z"/><path class="cls-36" d="M256.86,39.57h-7.13v-4a.77.77,0,0,1,.77-.77h5.59a.77.77,0,0,1,.77.77Z"/><g class="cls-40"><path d="M250.31,35.89a.29.29,0,0,0-.29.29v3.39h.58V36.18A.29.29,0,0,0,250.31,35.89Z"/><path d="M251.31,35.89a.29.29,0,0,0-.3.29v3.39h.59V36.18A.29.29,0,0,0,251.31,35.89Z"/><path d="M252.3,35.89a.29.29,0,0,0-.29.29v3.39h.58V36.18A.29.29,0,0,0,252.3,35.89Z"/><path d="M253.3,35.89a.3.3,0,0,0-.3.29v3.39h.59V36.18A.29.29,0,0,0,253.3,35.89Z"/><path d="M254.29,35.89a.29.29,0,0,0-.29.29v3.39h.58V36.18A.29.29,0,0,0,254.29,35.89Z"/><path d="M255.29,35.89a.29.29,0,0,0-.29.29v3.39h.58V36.18A.29.29,0,0,0,255.29,35.89Z"/><path d="M256.28,35.89a.29.29,0,0,0-.29.29v3.39h.59V36.18A.29.29,0,0,0,256.28,35.89Z"/></g><rect class="cls-14" x="245.94" y="51.4" width="14.71" height="12.11"/><rect class="cls-41" x="247.17" y="53" width="12.25" height="1.95"/><rect class="cls-41" x="247.17" y="55.8" width="12.25" height="0.62"/><rect class="cls-41" x="247.17" y="57.16" width="12.25" height="0.62"/><rect class="cls-41" x="247.17" y="58.52" width="5.61" height="0.62"/><rect class="cls-41" x="247.17" y="59.89" width="5.61" height="0.62"/><rect class="cls-41" x="247.17" y="61.29" width="5.61" height="0.62"/><rect class="cls-31" x="253.75" y="58.52" width="5.67" height="3.38"/><path class="cls-42" d="M251,40v.5a2.38,2.38,0,0,1-.33,1.22l-2.72,4.65a8.89,8.89,0,0,0-1.2,4.45V68.58h.43l1.18-17.9a9.51,9.51,0,0,1,1.51-4.55l2.91-3.9a2.46,2.46,0,0,0,.48-1.29l.06-.93Z"/><path class="cls-34" d="M240.12,61.59a1.53,1.53,0,0,0-1.87-1.09l-2.58.67.78,3,2.58-.68A1.54,1.54,0,0,0,240.12,61.59Z"/><path class="cls-14" d="M232.83,61.92a1.53,1.53,0,0,0,.78,3l2.84-.74-.78-3Z"/><g class="cls-40"><path class="cls-3" d="M234.05,61.6l1.74-.14,2.66-.22a1.54,1.54,0,0,1,1.63,1.25,1.53,1.53,0,0,0-1.83-2l-2.58.67Z"/></g><path class="cls-9" d="M237.82,64.84a1.53,1.53,0,0,0-1.51-1.55l-2.67,0,0,3.06,2.67,0A1.53,1.53,0,0,0,237.82,64.84Z"/><path class="cls-14" d="M230.71,63.22a1.53,1.53,0,1,0,0,3.06l2.93,0,0-3.06Z"/><g class="cls-43"><path class="cls-3" d="M229.51,65.66a1.54,1.54,0,0,1,1.19-1.81l2.87-.59h0l-2.88,0a1.53,1.53,0,0,0-1.55,1.51,1.51,1.51,0,0,0,.38,1Z"/><path class="cls-3" d="M229.51,65.66a1.54,1.54,0,0,1,1.19-1.81l2.87-.59h0l-2.88,0a1.53,1.53,0,0,0-1.55,1.51,1.51,1.51,0,0,0,.38,1Z"/></g><path class="cls-10" d="M242.73,63.22a1.53,1.53,0,0,0-1.92-1l-2.54.79.91,2.93,2.54-.79A1.54,1.54,0,0,0,242.73,63.22Z"/><path class="cls-14" d="M235.47,63.87a1.53,1.53,0,0,0,.91,2.93l2.8-.87L238.27,63Z"/><g class="cls-43"><path class="cls-3" d="M235.31,66.35a1.54,1.54,0,0,1,.51-2.11l1.59-1-1.94.61a1.53,1.53,0,0,0,.37,3A1.64,1.64,0,0,1,235.31,66.35Z"/></g><path class="cls-11" d="M231.49,65.89a1.54,1.54,0,0,0,1.15,1.84l2.6.6.69-3-2.6-.61A1.53,1.53,0,0,0,231.49,65.89Z"/><path class="cls-14" d="M238.09,69a1.53,1.53,0,1,0,.69-3l-2.85-.66-.69,3Z"/><g class="cls-40"><path class="cls-3" d="M232,66.92a1.52,1.52,0,0,1,1.44-1.61l1.84-.11-2-.46a1.53,1.53,0,0,0-1.16,2.79A1.53,1.53,0,0,1,232,66.92Z"/></g><circle class="cls-3" cx="288" cy="100.31" r="25.65"/><path class="cls-25" d="M298.78,95.79a46.8,46.8,0,0,0,.62,10.62c.05.25-.38.46-1,.46h0c-.58,0-1-.21-1-.46a48,48,0,0,0,.62-10.62,1.14,1.14,0,0,1-.57-.36,1.15,1.15,0,0,1-.2-.29.42.42,0,0,1,0-.1,1.26,1.26,0,0,1-.08-.43v-.25l.14-3.84a.06.06,0,0,1,.06-.06h0a.06.06,0,0,1,.06.06l.09,2.84a.2.2,0,0,0,.17.22h0a.2.2,0,0,0,.17-.22l.07-2.84a.06.06,0,0,1,.06-.06h0a.06.06,0,0,1,.06.06l.09,2.84a.2.2,0,0,0,.18.22h0a.2.2,0,0,0,.17-.22l.07-2.84a.06.06,0,0,1,.06-.06h0a.06.06,0,0,1,.06.06l.09,2.84c0,.12.07.22.17.22h0a.2.2,0,0,0,.18-.22l.06-2.84a.06.06,0,0,1,.06-.06h0a.06.06,0,0,1,.06.06l.14,3.17,0,.69v.23a.85.85,0,0,1,0,.23A1.21,1.21,0,0,1,298.78,95.79Z"/><path class="cls-44" d="M297.75,106.43a1.21,1.21,0,0,0,.67.15h0a1.16,1.16,0,0,0,.66-.15,46.55,46.55,0,0,1-.67-7.38A46.54,46.54,0,0,1,297.75,106.43Z"/><path class="cls-44" d="M299.65,94.38l-2.38.66a1.26,1.26,0,0,1-.08-.43v-.25l2.43-.67Z"/><path class="cls-44" d="M299.67,94.61a.85.85,0,0,1,0,.23l-2.13.59a1.15,1.15,0,0,1-.2-.29l2.35-.65Z"/><circle class="cls-25" cx="287.99" cy="98.93" r="8.45"/><path class="cls-44" d="M280.41,98.94a8.08,8.08,0,0,1,5.83-7.77.08.08,0,0,0,.05-.1.09.09,0,0,0-.09-.06h0a8.1,8.1,0,0,0,.76,16,0,0,0,0,0,.05,0,0,0,0,0,0,0-.06A8.07,8.07,0,0,1,280.41,98.94Z"/><circle class="cls-44" cx="287.99" cy="98.93" r="4.25"/><path class="cls-25" d="M279.21,93.8c0,1.49-.79,2.24-1.76,2.24s-1.76-.75-1.76-2.24.79-3.14,1.76-3.14S279.21,92.31,279.21,93.8Z"/><path class="cls-25" d="M277.8,96l.09,0H277l.09,0a41.1,41.1,0,0,1-.6,9.82c-.06.25.37,1.09.94,1.09h0c.57,0,1-.84.94-1.09A41.1,41.1,0,0,1,277.8,96Z"/><path class="cls-44" d="M276.78,105.79c.07,0,.28.79.66.79h0c.38,0,.59-.74.66-.79a37.41,37.41,0,0,1-.67-6.62A37.41,37.41,0,0,1,276.78,105.79Z"/><path class="cls-44" d="M279,93.75c0,1.33-.7,2-1.57,2s-1.57-.68-1.57-2,.7-2.81,1.57-2.81S279,92.42,279,93.75Z"/><path class="cls-44" d="M278.52,92.34c-.26,1.3-.82,2.42-2,2.7a1.14,1.14,0,0,0,1,.58c.8,0,1.29-.69,1.29-1.81A4.41,4.41,0,0,0,278.52,92.34Z"/><rect class="cls-11" x="276.95" y="78.9" width="3.49" height="8.81"/><rect class="cls-10" x="281.65" y="82.19" width="3.49" height="5.52"/><rect class="cls-34" x="286.35" y="80.96" width="3.49" height="6.75"/><rect class="cls-4" x="291.04" y="77.71" width="3.49" height="10"/><rect class="cls-21" x="295.74" y="84.34" width="3.49" height="3.37"/><polygon class="cls-15" points="299.54 118.28 299.54 118.37 277.01 118.37 277.01 109.63 277.09 109.63 277.09 118.28 299.54 118.28"/><polygon class="cls-15" points="276.8 109.8 277.05 108.86 277.3 109.8 276.8 109.8"/><polygon class="cls-15" points="299.37 118.58 300.31 118.33 299.37 118.07 299.37 118.58"/><path class="cls-15" d="M283.92,109.37v.27H284v-.27Zm0,.42v.29H284v-.29Zm0,.43v.29H284v-.29Zm0,.44V111H284v-.29Zm0,.43v.29H284v-.29Zm0,.43v.3H284v-.3Zm0,2H284v-.25h-.08Zm0-1.26H284V112h-.08Zm0-1v.18H284v-.18Zm0,1.19v.29H284v-.29Zm0,.44v.29H284v-.29Zm0,.43v.29H284v-.29Zm0,.43V114H284v-.29Zm0,.44v.29H284v-.29Zm0,.43v.29H284v-.29Zm0,1.34H284v0h-.08Zm0-1.48H284v-.29h-.08Zm0-.73V114H284v-.29Zm0,1.6H284V115h-.08Zm0,.32H284v-.19h-.08Zm0-.18v.29H284v-.29Zm0,.44v.28H284v-.28Zm0,.43v.29H284v-.29Zm0,.44V117H284v-.28Zm0,.43v.29H284v-.29Zm0,.43v.29H284v-.29Zm0,.44v.29H284V118Z"/><path class="cls-15" d="M290.84,109.37v.27h.07v-.27Zm0,.42v.29h.07v-.29Zm0,.43v.29h.07v-.29Zm0,.44V111h.07v-.29Zm0,.43v.29h.07v-.29Zm0,.43v.3h.07v-.3Zm0,.44v.29h.07V112Zm0,.43v.29h.07v-.29Zm0,.44v.29h.07v-.29Zm0,.43v.29h.07v-.29Zm0,.43V114h.07v-.29Zm0,.44v.29h.07v-.29Zm0,.43v.29h.07v-.29Zm0,.44v.29h.07V115Zm0,.43v.29h.07v-.29Zm0,.44v.28h.07v-.28Zm0,.43v.29h.07v-.29Zm0,.44V117h.07v-.28Zm0,.43v.29h.07v-.29Zm0,.43v.29h.07v-.29Zm0,.44v.29h.07V118Z"/><path class="cls-15" d="M297.75,109.37v.27h.07v-.27Zm0,.42v.29h.07v-.29Zm0,.43v.29h.07v-.29Zm0,.44V111h.07v-.29Zm0,.43v.29h.07v-.29Zm0,.43v.3h.07v-.3Zm0,.44v.29h.07V112Zm0,.72h.07v-.29h-.07Zm0-1.56v.08h.07v-.08Zm0,1.71v.29h.07v-.29Zm0,.43v.29h.07v-.29Zm0,.43V114h.07v-.29Zm0,.44v.29h.07v-.29Zm0,.43v.29h.07v-.29Zm0,.44v.29h.07V115Zm0,.43v.29h.07v-.29Zm0,.44v.28h.07v-.28Zm0,.43v.29h.07v-.29Zm0,.44V117h.07v-.28Zm0,.43v.29h.07v-.29Zm0,.43v.29h.07v-.29Zm0,.44v.29h.07V118Z"/><path class="cls-15" d="M277.05,115.9V116h.1v-.07Zm.24,0V116h.29v-.07Zm.43,0V116H278v-.07Zm.44,0V116h.29v-.07Zm.43,0V116h.29v-.07Zm.44,0V116h.29v-.07Zm.43,0V116h.29v-.07Zm.43,0V116h.29v-.07Zm.44,0V116h.29v-.07Zm.43,0V116h.29v-.07Zm.44,0V116h.29v-.07Zm.43,0V116h.29v-.07Zm.43,0V116h.29v-.07Zm.44,0V116h.29v-.07Zm.43,0V116h.29v-.07Zm.44,0V116h.28v-.07Zm.87,0V116h.28v-.07Zm-.44,0V116h.29v-.07Zm.44,0V116h.28v-.07Zm.43,0V116H285v-.07Zm.43,0V116h.29v-.07Zm.44,0V116h.29v-.07Zm.43,0V116h.29v-.07Zm.43,0V116h.3v-.07Zm.44,0V116h.29v-.07Zm.43,0V116h.29v-.07Zm.44,0V116H288v-.07Zm.43,0V116h.29v-.07Zm.43,0V116h.29v-.07Zm.44,0V116h.29v-.07Zm.43,0V116h.29v-.07Zm.44,0V116h.29v-.07Zm.43,0V116h.29v-.07Zm.44,0V116H291v-.07Zm.43,0V116h.29v-.07Zm.44,0V116h.28v-.07Zm-.44.07h.29v-.07h-.29Zm.87-.07V116h.29v-.07Zm-.87.07h.29v-.07h-.29Zm1.3-.07V116h.29v-.07Zm.44,0V116h.29v-.07Zm.43,0V116h.29v-.07Zm.43,0V116h.3v-.07Zm.44,0V116h.29v-.07Zm.43,0V116h.29v-.07Zm.44,0V116h.29v-.07Zm.43,0V116h.29v-.07Zm.43,0V116h.29v-.07Zm.44,0V116h.29v-.07Zm.43,0V116h.29v-.07Zm.44,0V116h.29v-.07Zm.43,0V116H298v-.07Zm.44,0V116h.28v-.07Zm-.31.07H298v-.07h-.16Zm.74-.07V116h.29v-.07Zm-.43.07h.28v-.07h-.28Zm-.31,0H298v-.07h-.16Z"/><path class="cls-15" d="M277.05,113.51v.07h.1v-.07Zm.24,0v.07h.29v-.07Zm.43,0v.07H278v-.07Zm.44,0v.07h.29v-.07Zm.43,0v.07h.29v-.07Zm.44,0v.07h.29v-.07Zm.43,0v.07h.29v-.07Zm.43,0v.07h.29v-.07Zm.44,0v.07h.29v-.07Zm.43,0v.07h.29v-.07Zm.44,0v.07h.29v-.07Zm.43,0v.07h.29v-.07Zm.43,0v.07h.29v-.07Zm.44,0v.07h.29v-.07Zm.43,0v.07h.29v-.07Zm.44,0v.07h.28v-.07Zm.43,0v.07h.29v-.07Zm.44,0v.07h.28v-.07Zm.43,0v.07H285v-.07Zm.43,0v.07h.29v-.07Zm.44,0v.07h.29v-.07Zm.43,0v.07h.29v-.07Zm.43,0v.07h.3v-.07Zm.44,0v.07h.29v-.07Zm.43,0v.07h.29v-.07Zm.44,0v.07H288v-.07Zm.43,0v.07h.29v-.07Zm.43,0v.07h.29v-.07Zm.44,0v.07h.29v-.07Zm.43,0v.07h.29v-.07Zm.44,0v.07h.29v-.07Zm.43,0v.07h.29v-.07Zm.44,0v.07H291v-.07Zm.43,0v.07h.29v-.07Zm.44,0v.07h.28v-.07Zm.43,0v.07h.29v-.07Zm.43,0v.07h.29v-.07Zm.44,0v.07h.29v-.07Zm.43,0v.07h.29v-.07Zm.43,0v.07h.3v-.07Zm.44,0v.07h.29v-.07Zm.43,0v.07h.29v-.07Zm.44,0v.07h.29v-.07Zm.43,0v.07h.29v-.07Zm.43,0v.07h.29v-.07Zm.44,0v.07h.29v-.07Zm.43,0v.07h.29v-.07Zm.44,0v.07h.29v-.07Zm.43,0v.07H298v-.07Zm.44,0v.07h.28v-.07Zm.43,0v.07h.29v-.07Zm-.43.07h.28v-.07h-.28Z"/><path class="cls-15" d="M277.05,111.12v.08h.1v-.08Zm.24,0v.08h.29v-.08Zm.43,0v.08H278v-.08Zm.44,0v.08h.29v-.08Zm.43,0v.08h.29v-.08Zm.44,0v.08h.29v-.08Zm.43,0v.08h.29v-.08Zm.43,0v.08h.29v-.08Zm.44,0v.08h.29v-.08Zm.43,0v.08h.29v-.08Zm.44,0v.08h.29v-.08Zm.43,0v.08h.29v-.08Zm.43,0v.08h.29v-.08Zm.44,0v.08h.29v-.08Zm.43,0v.08h.29v-.08Zm.44,0v.08h.28v-.08Zm.43,0v.08h.29v-.08Zm.44,0v.08h.28v-.08Zm.43,0v.08H285v-.08Zm-.43.08h.28v-.08h-.28Zm.86-.08v.08h.29v-.08Zm-.43.08H285v-.08h-.29Zm-.43,0h.28v-.08h-.28Zm1.3-.08v.08h.29v-.08Zm-.44.08h.29v-.08h-.29Zm-.43,0H285v-.08h-.29Zm1.3-.08v.08h.29v-.08Zm-.43.08h.29v-.08h-.29Zm-.44,0h.29v-.08h-.29Zm1.3-.08v.08h.3v-.08Zm-.43.08h.29v-.08H286Zm-.43,0h.29v-.08h-.29Zm1.3-.08v.08h.29v-.08Zm-.44.08h.3v-.08h-.3Zm-.43,0h.29v-.08H286Zm1.3-.08v.08h.29v-.08Zm-.43.08h.29v-.08h-.29Zm-.44,0h.3v-.08h-.3Zm1.31-.08v.08H288v-.08Zm-.44.08h.29v-.08h-.29Zm-.43,0h.29v-.08h-.29Zm1.3-.08v.08h.29v-.08Zm-.43.08H288v-.08h-.29Zm-.44,0h.29v-.08h-.29Zm1.3-.08v.08h.29v-.08Zm-.43.08h.29v-.08h-.29Zm-.43,0H288v-.08h-.29Zm1.3-.08v.08h.29v-.08Zm-.44.08h.29v-.08h-.29Zm-.43,0h.29v-.08h-.29Zm1.3-.08v.08h.29v-.08Zm-.43.08h.29v-.08H289Zm-.44,0h.29v-.08h-.29Zm1.31-.08v.08h.29v-.08Zm.43,0v.08h.29v-.08Zm.44,0v.08H291v-.08Zm.43,0v.08h.29v-.08Zm-.34,0v.08H291v-.08Zm.78,0v.08h.28v-.08Zm-.44.08h.29v-.08h-.29Zm-.34-.08v.08H291v-.08Zm1.21,0v.08h.29v-.08Zm-.43.08h.28v-.08h-.28Zm-.44,0h.29v-.08h-.29Zm1.3-.08v.08h.29v-.08Zm.44,0v.08h.29v-.08Zm.43,0v.08h.29v-.08Zm.43,0v.08h.3v-.08Zm.44,0v.08h.29v-.08Zm.43,0v.08h.29v-.08Zm.44,0v.08h.29v-.08Zm.43,0v.08h.29v-.08Zm.43,0v.08h.29v-.08Zm.44,0v.08h.29v-.08Zm.43,0v.08h.29v-.08Zm.44,0v.08h.29v-.08Zm.43,0v.08H298v-.08Zm.44,0v.08h.28v-.08Zm-.31.08H298v-.08h-.16Zm.74-.08v.08h.29v-.08Zm-.43.08h.28v-.08h-.28Zm-.31,0H298v-.08h-.16Z"/><polygon class="cls-11" points="298.43 112.01 298.43 112.44 292.31 112.44 290.9 113.43 290.84 113.48 290.79 113.51 290.75 113.54 287.4 115.9 287.3 115.97 287.29 115.97 287.27 115.97 287.13 115.96 286.84 115.93 286.7 115.91 286.62 115.9 285.4 115.77 284 115.62 283.92 115.61 280.68 115.26 279.94 115.9 279.89 115.94 277.18 118.28 277.07 118.37 277.01 118.37 277.01 117.86 277.09 117.79 279.2 115.97 279.28 115.9 279.29 115.9 280.54 114.82 283.92 115.18 284 115.19 287.19 115.53 289.81 113.69 289.95 113.58 290.05 113.51 290.84 112.96 290.9 112.91 292.18 112.01 298.43 112.01"/><path class="cls-19" d="M177.28,251.61l-.39,8.11H156.32c0-1.68.09-3.39.14-5.13,0-1,.07-2,.1-3Z"/><polygon class="cls-19" points="188.67 254.62 190.71 254.62 190.71 259.71 178.18 259.71 178.18 254.62 180.22 254.62 180.22 251.6 188.67 251.6 188.67 254.62"/><path class="cls-19" d="M212.54,259.72H191.3l-.32-8.11h21.27c0,.92.07,1.83.11,2.73,0,.46,0,.92,0,1.38,0,.05,0,.1,0,.15,0,.62,0,1.25.06,1.86Z"/><path class="cls-15" d="M55.75,242.46a25.71,25.71,0,0,1-20-9.5c-7.84-9.2-11.15-23.65-8.63-37.72a3.46,3.46,0,0,1,6.82,1.22c-2.13,11.9.64,24.46,7.08,32a19,19,0,0,0,15.15,7.06,3.46,3.46,0,0,1,.14,6.92Z"/><path class="cls-11" d="M12.93,210.68H52.7a7.15,7.15,0,0,0,7.12-7.75l-4.25-49.61a7.14,7.14,0,0,0-7.12-6.54h-32a7.14,7.14,0,0,0-7.12,6.64L5.8,203A7.15,7.15,0,0,0,12.93,210.68Z"/><path class="cls-45" d="M66.76,203.5a7.91,7.91,0,0,1-.16,1.55,7.16,7.16,0,0,1-7,5.63H19.84A7.15,7.15,0,0,1,12.71,203l3.56-49.61a7.14,7.14,0,0,1,7.12-6.63h32a3,3,0,0,1,.42,0,4.41,4.41,0,0,1,.73.08,4.26,4.26,0,0,1,.62.13,7.13,7.13,0,0,1,5.35,6.3l1.3,15.19,1.47,17.19v.05l1.47,17.19A5.44,5.44,0,0,1,66.76,203.5Z"/><rect class="cls-12" x="22.56" y="288.78" width="2.46" height="6.79"/><path class="cls-13" d="M30.51,298.73a4.84,4.84,0,0,1-4.69,5,5,5,0,0,1,0-9.95A4.83,4.83,0,0,1,30.51,298.73Z"/><rect class="cls-12" x="56.22" y="288.78" width="2.46" height="6.79"/><path class="cls-13" d="M64.17,298.73a4.7,4.7,0,1,1-4.69-5A4.84,4.84,0,0,1,64.17,298.73Z"/><rect class="cls-12" x="90.49" y="288.78" width="2.46" height="6.79"/><path class="cls-13" d="M85,298.73a4.7,4.7,0,1,0,4.69-5A4.84,4.84,0,0,0,85,298.73Z"/><rect class="cls-14" x="53.67" y="242.93" width="8.46" height="23.03"/><rect class="cls-24" x="51.63" y="261.97" width="12.53" height="23.03"/><polygon class="cls-24" points="20.85 291.24 94.89 291.24 94.89 286.65 57.79 282.06 20.85 286.65 20.85 291.24"/><path class="cls-45" d="M92.17,233.76V242a3.71,3.71,0,0,1-2.44,3.5,3.53,3.53,0,0,1-1.3.24h-58a3.82,3.82,0,0,1-3.82-3.82v-8A3.82,3.82,0,0,1,30.46,230h58a3.74,3.74,0,0,1,2.9,1.38,4.44,4.44,0,0,1,.41.62c.06.12.12.25.17.38A3.62,3.62,0,0,1,92.17,233.76Z"/><path class="cls-20" d="M127.58,190l1.18-.2,1.72-.59,2.71-3a1.17,1.17,0,0,1,1.39-.3l.88-1a1.14,1.14,0,0,1,1.79,0l0,0a1.52,1.52,0,0,1,.27.48,1.29,1.29,0,0,1,1.15.65l0,0a1.76,1.76,0,0,1-.32,2.22L134,192l-.05,0a.57.57,0,0,1-.13.08.41.41,0,0,1-.11.07l-.12.05-.15,0h-.05l-5.35.95a1.42,1.42,0,0,1-1.56-1.33v0A1.59,1.59,0,0,1,127.58,190Z"/><path class="cls-7" d="M117.3,191.41s-2.36-3.91-1.45-6.45c0,0-33-9.64-33.79-9.41a7.89,7.89,0,0,0-5,4.06c-.89,1.8,7.35,8.63,8,11.74C90.06,192.79,117.3,191.41,117.3,191.41Z"/><path class="cls-10" d="M94.45,178.81l-8-39a8.32,8.32,0,0,0-9.74-6.61l-.17,0A8.34,8.34,0,0,0,69.94,143l.28,1.57,10.06,41.88Z"/><path class="cls-13" d="M134.4,300.52a27.19,27.19,0,0,1-12,3l-3.55,0-9.07,0h-.88l-1.22.05-.2,0-.27,0-1.19,0-2.2.09c-.26,0-.51,0-.77,0a5.91,5.91,0,0,1-1.25-.14l-2.31-.45a.74.74,0,0,1-.44-.31.3.3,0,0,1,0-.12.56.56,0,0,1,0-.2,2.89,2.89,0,0,1,0-.44c0-.73,0-1.88.12-3.15,0-.39,0-.8.08-1.21s0-.59.07-.88v0c.19-2.14.41-4.16.54-4.63l0-.09c.08-.3.59-1.23,1-2.51a8.91,8.91,0,0,0,.41-3c0-.17,0-.33,0-.49l3.39-.24,4-.27.37,0,4.25-.29a7.17,7.17,0,0,0,.84,1.58,14.42,14.42,0,0,0,4.81,3.7,5.2,5.2,0,0,0,.66.29h0c1.35.49,3.56.76,5.75,1.33.54.16,1,.29,1.54.41,2.85.71,5.2,1.15,6.44,2.31,1.22.81,1.17,2.57,1.51,4.69,0,0,0,.09,0,.12A.76.76,0,0,1,134.4,300.52Z"/><path class="cls-46" d="M124.2,223.29c-.06,1-3.89,43.91-5,68.46h0l-13.37,4-6.82,2v0c-2.89-16.83-1.23-51.91.61-63.81.32-2.09.64-4,1-5.66.87-4.65,1.58-7.54,1.65-7.82a10.57,10.57,0,0,1,2.1-4.35,11.05,11.05,0,0,1,9.66-4.13l.22,0a10.92,10.92,0,0,1,7.3,3.74,10.54,10.54,0,0,1,2.08,3.62l.18.55A10.81,10.81,0,0,1,124.2,223.29Z"/><path class="cls-46" d="M110.08,232.82H110l-8.45-.38c-2.34-.09-5-.21-7.86-.34-4.84-.2-10.17-.43-15.16-.66-9.93-.44-18.47-.83-18.81-.91-23.33-2.67-10.32-32.26-9.51-32.46l.65-.36-.65.36,19.93,6.56,24.5,2c20.72,1.67,18.08,1.41,19.58,1.79,5.38,1.35,9.43,5.52,10.15,10.5a6.46,6.46,0,0,1,.15,1.22C125,227,118.55,233.38,110.08,232.82Z"/><path class="cls-20" d="M79.45,140.08a13.06,13.06,0,0,0,7.36,2.49l6.3-20.14c-1.3-.36-8.13-3.71-13.2-6.28l-5.8,12.76-.82,1.77a.8.8,0,0,0-.22.12C71.6,131.64,76.44,138.09,79.45,140.08Z"/><path class="cls-39" d="M90,163.91v.16c-.14,1.65-.38,3.82-.78,6.37-.5,3.18-1.23,6.93-2.19,11-.57,2.38-1.21,4.84-1.94,7.34a118.44,118.44,0,0,1-4.88,13.72c-.09.26-.19.49-.3.73-.43,1-.88,1.93-1.32,2.85-.66,1.35-1.35,2.64-2,3.87-4.34,7.61-9.79,13.27-16.34,14.1a30.88,30.88,0,0,1-13-1.7l-3.4-1.15c-4-7.41-3.18-12.62-2.12-23.06v0a1.21,1.21,0,0,1,.05-.14c.21-.78.47-1.67.73-2.64,3.06-11,4.71-32,7.73-45.53a49.75,49.75,0,0,1,2.36-8,13,13,0,0,1,1.72-3c6.7-8.25,19-8,19-8l0,0a38.14,38.14,0,0,0,7.45,8.11c2.47,2.07,4.86,3.58,6.08,3.77,0,0,.45,1,1,2.71C89.07,149.08,91,156.39,90,163.91Z"/><path class="cls-47" d="M125.68,300.52a27.12,27.12,0,0,1-12,3l-3.54,0-9.07,0h-.88l-1.22.05-.2,0-.28,0-1.18,0-2.21.09c-.25,0-.5,0-.76,0a5.91,5.91,0,0,1-1.25-.14l-2.31-.45a.71.71,0,0,1-.44-.31.19.19,0,0,1,0-.12.54.54,0,0,1,0-.2c0-.12,0-.27,0-.44,0-.73,0-1.88.11-3.15,0-.39,0-.8.09-1.21s0-.59.07-.88v0a43.77,43.77,0,0,1,.54-4.63l0-.09c.08-.3.59-1.23,1-2.51a9.18,9.18,0,0,0,.41-3,3.89,3.89,0,0,0,0-.49l3.39-.24,4-.27.38,0,4.25-.29a7.15,7.15,0,0,0,.83,1.58,14.56,14.56,0,0,0,4.82,3.7,4.18,4.18,0,0,0,.66.29h0c1.35.49,3.56.76,5.74,1.33.54.16,1,.29,1.55.41,2.84.71,5.2,1.15,6.44,2.31,1.22.81,1.17,2.57,1.51,4.69,0,0,0,.09,0,.12A.74.74,0,0,1,125.68,300.52Z"/><path class="cls-4" d="M115.35,223.31a31.83,31.83,0,0,1-.33,5.77c-1.78,13.45-2.25,27.14-3,40.7q-.61,10.52-1.2,21l-20.28,6.87s-.17.05-.17,0A120,120,0,0,1,89,282.91a351.87,351.87,0,0,1,.77-37.46,165.65,165.65,0,0,1,2.91-21.72c1.18-5.56,4.23-11.11,10.41-11.78l.34,0a10.88,10.88,0,0,1,11,6.67A15.29,15.29,0,0,1,115.35,223.31Z"/><path class="cls-4" d="M115.46,223.6a10.69,10.69,0,0,1-.36,1.09,12.49,12.49,0,0,1-5.16,6.08,14.14,14.14,0,0,1-4.77,1.83,14.93,14.93,0,0,1-3.81.22l-.1,0-1.44-.05-.63,0-3.09-.13c-1-.05-2.07-.12-3.28-.17l-.91,0-.74,0c-1.91-.07-4-.16-6.2-.26-2.66-.12-5.47-.23-8.27-.37a3,3,0,0,1-.52,0c-2.15-.07-4.29-.16-6.37-.26l-.59,0c-6.29-.28-11.95-.54-15.25-.71-1.77-.09-2.86-.16-3-.19a22.25,22.25,0,0,1-2.82-.5,16.25,16.25,0,0,1-4-1.5,11.07,11.07,0,0,1-1.63-1l0,0v0a12,12,0,0,1-4.22-5.75A22.78,22.78,0,0,1,37.39,211c0-.12,0-.24,0-.36,1-6.71,3.69-12.54,4.05-12.63l.17,0L47.57,200l1.37.46,4.79,1.58,7.69,2.55,5.18.42,12,1c2.71.21,5.14.4,7.3.59l14.23,1.13c5.17.42,4.37.39,5.34.64a14.32,14.32,0,0,1,6.47,3.54,11.92,11.92,0,0,1,3.7,7,7.4,7.4,0,0,1,.16,1.23A10.87,10.87,0,0,1,115.46,223.6Z"/><path class="cls-7" d="M101.53,113.26a21.92,21.92,0,0,1,0,3.14,17.81,17.81,0,0,1-.92,1.78l.28.84,1.25,3.8a1.68,1.68,0,0,1-1.42,2.12l-.34.06-1.19.21a3,3,0,0,0,0,.4c0,.57-.09,1.53-.12,2.53h0c0,1.17-.08,2.42-.12,3.2,0,.48,0,.78,0,.78A8.5,8.5,0,0,1,97.34,136a4.06,4.06,0,0,1-3.79,1.76l-3.34-.43a2.48,2.48,0,0,0-.39-.1c-3.91-1.08-9-6.15-8.43-12.55a4.28,4.28,0,0,1,0-.49.93.93,0,0,1-.23,0,0,0,0,0,0,0,0,4.21,4.21,0,0,0-.88,0c-2.44.1-5.7,1.46-5.68-.69,0-2.69-2.54-6.9-2.48-10.43,1-7.74,3.84-11.2,7.18-12.62.24-.1.44-.19.68-.27,3.22-1.1,6.76-.57,9.49-.3a13.28,13.28,0,0,1,10.91,8.33h0A17.72,17.72,0,0,1,101.53,113.26Z"/><path class="cls-15" d="M74.6,127.09c10.32,3.3,5.54-9.32,5.54-9.32s2.5.25,3.25,1.4c1.32.25,2.14.3,3.23.51,1.88-13.21-.56-16,13.77-11.51,3.14-2.72,3.29-8.64-12.29-10.35-7.8-.86-15,3-16.46,10.74C70.81,113.05,70.11,115.54,74.6,127.09Z"/><path class="cls-7" d="M78.26,118.62c-.22,2.45,1.58,5.47,3.18,5.61s1.61-1.85,1.86-4.29c.16-1.62.78-3.88-.93-4.56C80.88,114.79,78.59,115,78.26,118.62Z"/><path class="cls-6" d="M115.81,220.14a10.94,10.94,0,0,1-.35,3.47c-.12,1.18-.57,5.47-1.18,11.55a7.16,7.16,0,0,1-2-.8,6.22,6.22,0,0,1-2.36-3.59c-.4-1.22-.64-2.54-1-3.77-1.5-5.54-5.73-10.09-10.77-12.85a3.37,3.37,0,0,0-.38-.19,38.78,38.78,0,0,0-16.17-4c-1.7-.09-3.37-.09-5.09-.09-2.57,0-5.14,0-7.71-.07-7.55-.33-15-1.94-22.36-3.54a19.33,19.33,0,0,0,7.24-4.22,20.6,20.6,0,0,0,6.86-13.56,38.62,38.62,0,0,0-.35-7.59Q58.13,161.45,56,142c3.52,15.47,7.45,31.78,18.56,43.1a14.72,14.72,0,0,0,5.11,3.73,6.84,6.84,0,0,0,5.47-.07,118.44,118.44,0,0,1-4.88,13.72c-.09.26-.19.49-.3.73-.43,1-.88,1.93-1.32,2.85,2.71.21,5.14.4,7.31.59,20.72,1.65,18.08,1.39,19.56,1.77,5.4,1.37,9.46,5.52,10.17,10.52A7.28,7.28,0,0,1,115.81,220.14Z"/><path class="cls-7" d="M104.25,201.82s-3.7,5.85-3.68,5.78S69.4,192.87,68.76,192.37c-2.65-2.06-2.55-3-3.33-5.92-.51-1.93,12-3.63,14.62-5.38C84.63,183.63,104.25,201.82,104.25,201.82Z"/><path class="cls-10" d="M80.05,181.07l-8.42-40.59A8.33,8.33,0,0,0,61.88,134l-.16,0a8.23,8.23,0,0,0-6.62,9.62l.28,1.55,10.05,41.28Z"/><path class="cls-20" d="M128,187.93c.76-.08,3-1.47,2.38-2.82-.37-.79-1.69-.07-3.07.16-1.18.19-4.59.3-4.59.3a2.39,2.39,0,0,1-.8-.07l-.84-.24c1.36,1,2.32,2.43,3.85,3.28Z"/><path class="cls-7" d="M139.22,188.55v0a1.3,1.3,0,0,0-1.83-.77l-4.61,2.46-5-.19s-2.26-1.13-3-1.59c-1.26-.82-2.48-3.29-4.91-3.53a10.77,10.77,0,0,0-2.46-.17l-3.43.48-.17,6.18,4.41,1a27.69,27.69,0,0,0,8.52,1.77c.35,0,.68.06.92,0,1.28-.08,5.35-.77,5.35-.77s5.55-2.77,5.55-2.77A1.71,1.71,0,0,0,139.22,188.55Z"/><path class="cls-7" d="M110.16,217.85l.69,3.4a3.58,3.58,0,0,0,.72,1.8,1.24,1.24,0,0,0,1.73.19,1.57,1.57,0,0,0,1.46,1.5,1.55,1.55,0,0,0,1.53-1.42,1.12,1.12,0,0,0,1.54-.15,2.11,2.11,0,0,0,.43-1.62,2.29,2.29,0,0,0,.9-1.83,7.79,7.79,0,0,0-.47-2.65l-1.39-4.6a7.92,7.92,0,0,0-1-2.29,7.42,7.42,0,0,0-1.75-1.6,70.37,70.37,0,0,0-10.79-7c-1.17,1.53-2.35,3-3.53,4.58a1.4,1.4,0,0,0-.28.47,1.45,1.45,0,0,0,0,.62,8.23,8.23,0,0,0,4,5.35c.55.3,1.13.53,1.7.78a11.54,11.54,0,0,1,3,1.73,3.8,3.8,0,0,1,.89,1A5.6,5.6,0,0,1,110.16,217.85Z"/><path class="cls-6" d="M102.18,225.84q-1,2.08-1.91,4.21h0c-.32.76-.63,1.51-.92,2.28l-.15.38c-7.14,18.6-7.76,39.33-8.23,59.41a72.9,72.9,0,0,1-2-9.2v0a351.87,351.87,0,0,1,.77-37.46,3.53,3.53,0,0,1-1.3.24H85.06a13,13,0,0,0-3-5.61c-3-3.19-7.71-4-12.06-4.59l-16.8-2.36A33.09,33.09,0,0,1,44,230.91a13.56,13.56,0,0,1-1.68-.9h5.86a16.25,16.25,0,0,1-4-1.5,11.07,11.07,0,0,1-1.63-1l0,0v0a12,12,0,0,1-4.22-5.75A22.78,22.78,0,0,1,37.39,211c0-.12,0-.24,0-.36H34.67a76.72,76.72,0,0,1,1.65-7.51c3.88-15.06,8.7-31.86,12.58-46.93,0,0,0,0,0,0s0,0,0,0c-.33,14.16-6.22,30.6-1.35,43.89l.12.33c-2.12-.58-4.38.92-5.36,2.9a12.58,12.58,0,0,0-.82,6.48c0,.31,0,.62.07.93.32,3.91,1.21,8,3.59,10.94h0a11,11,0,0,0,1.58,1.62,10.6,10.6,0,0,0,1.48,1c3.84,2.26,8.79,2.21,13.34,1.95,7.39-.41,14.79-1,22.17-.5,2.8.2,5.64.57,8.46.76a32.37,32.37,0,0,0,8.8-.38C101.39,226,101.79,225.94,102.18,225.84Z"/><rect class="cls-19" x="53.67" y="245.7" width="8.46" height="8.11"/><path class="cls-48" d="M285.13,52.45a7.44,7.44,0,1,0,7.44,7.44A7.44,7.44,0,0,0,285.13,52.45ZM290,61.33h-3.46v3.46h-2.89V61.33h-3.46V58.44h3.46V55h2.89v3.46H290Z"/><g class="cls-49"><path class="cls-3" d="M162.41,64.69l-.06.06a4.13,4.13,0,0,0,0,5.85l4.86,4.86,5.91-5.91-4.86-4.86A4.15,4.15,0,0,0,162.41,64.69Z"/><path class="cls-3" d="M177.86,76.09a2.86,2.86,0,0,1,0,4l-.06.06a2.87,2.87,0,0,1-4.06,0l-4.8-4.79-.89.89,4.79,4.8a4.14,4.14,0,0,0,5.86,0l.05-.06a4.13,4.13,0,0,0,0-5.85L174,70.39l-.9.9Z"/></g><path class="cls-48" d="M218.5,71.08A2.13,2.13,0,0,0,216.37,69h-12a2.14,2.14,0,0,0-2.13,2.13v3.38H218.5Zm-1.67,1.71H203.9V71.08a.47.47,0,0,1,.46-.46h12a.46.46,0,0,1,.46.46Zm2.41,5.53v2.31h-1.67V78.32a1.26,1.26,0,0,0-1.26-1.25H204.43a1.25,1.25,0,0,0-1.26,1.25v2.31H201.5V78.32a2.93,2.93,0,0,1,2.93-2.92h11.88A2.93,2.93,0,0,1,219.24,78.32Zm-1.67,13.34h1.67v1.88a2.94,2.94,0,0,1-2.93,2.93H204.43a2.93,2.93,0,0,1-2.93-2.93V91.66h1.67v1.88a1.26,1.26,0,0,0,1.26,1.26h11.88a1.27,1.27,0,0,0,1.26-1.26ZM201.5,81.87h17.74v8.54H201.5Z"/><polygon class="cls-48" points="125.02 137.04 122.66 132.95 117.74 135.79 117.74 130.1 113.01 130.1 113.01 135.79 108.09 132.95 105.73 137.04 110.65 139.88 105.73 142.72 108.09 146.81 113.01 143.97 113.01 149.65 117.74 149.65 117.74 143.97 122.66 146.81 125.02 142.72 120.1 139.88 125.02 137.04"/><polygon class="cls-48" points="229.61 22.45 228.08 19.8 224.9 21.64 224.9 17.97 221.84 17.97 221.84 21.64 218.66 19.8 217.13 22.45 220.31 24.29 217.13 26.13 218.66 28.78 221.84 26.94 221.84 30.62 224.9 30.62 224.9 26.94 228.08 28.78 229.61 26.13 226.43 24.29 229.61 22.45"/><g class="cls-49"><polygon class="cls-3" points="119.02 116.96 101.33 93.43 106.12 89.83 123.81 113.36 124.56 112.79 106.03 88.15 99.73 92.88 118.27 117.53 119.02 116.96"/><polygon class="cls-3" points="91.3 75.11 100.42 86.78 99.98 87.11 91.3 75.11"/><rect class="cls-3" x="116.33" y="115.02" width="11.03" height="1.41" transform="translate(-45.09 96.48) rotate(-36.95)"/><polygon class="cls-3" points="104.33 90.39 104.22 90.29 102.29 91.74 102.37 91.87 104.33 90.39"/><polygon class="cls-3" points="100.68 86.59 99.72 87.31 101.66 90.65 103.35 89.38 100.68 86.59"/><rect class="cls-3" x="125.12" y="115.8" width="1.02" height="9.95" transform="translate(-47.37 99.78) rotate(-36.95)"/><rect class="cls-3" x="116.01" y="101.15" width="1.02" height="15.02" transform="translate(-41.92 91.85) rotate(-36.94)"/><rect class="cls-3" x="121.32" y="115.65" width="1.02" height="0.16" transform="translate(-45.08 96.33) rotate(-36.9)"/><polygon class="cls-3" points="112.41 102.35 113.91 101.23 112.31 99.11 108.52 101.96 110.12 104.08 111.6 102.96 112.41 102.35"/><polygon class="cls-3" points="126.38 126.43 127.86 128.39 132.32 125.03 130.85 123.07 129.02 124.44 128.21 125.06 126.38 126.43"/><rect class="cls-3" x="103.49" y="96.06" width="2.07" height="0.87" transform="translate(-37.02 82.2) rotate(-36.95)"/><rect class="cls-3" x="106.69" y="100.32" width="2.07" height="0.87" transform="translate(-38.93 84.97) rotate(-36.94)"/><rect class="cls-3" x="109.88" y="104.57" width="2.07" height="0.87" transform="translate(-40.84 87.76) rotate(-36.95)"/><rect class="cls-3" x="113.08" y="108.82" width="2.07" height="0.87" transform="translate(-42.76 90.54) rotate(-36.95)"/><rect class="cls-3" x="116.28" y="113.07" width="2.07" height="0.87" transform="translate(-44.67 93.31) rotate(-36.95)"/></g><g class="cls-49"><polygon class="cls-3" points="175.94 1.92 198.4 0.85 198.62 5.43 176.16 6.5 176.19 7.21 199.72 6.1 199.44 0.09 175.9 1.2 175.94 1.92"/><polygon class="cls-3" points="214.29 2.4 203 3.15 202.97 2.72 214.29 2.4"/><rect class="cls-3" x="174.97" y="0.02" width="1.08" height="8.42" transform="matrix(1, -0.05, 0.05, 1, 0, 8.31)"/><polygon class="cls-3" points="199.03 4.06 199.14 4.04 199.06 2.19 198.95 2.19 199.03 4.06"/><polygon class="cls-3" points="203.01 3.39 202.96 2.48 200.02 2.26 200.1 3.88 203.01 3.39"/><rect class="cls-3" x="166.89" y="4.06" width="7.6" height="0.78" transform="translate(-0.02 8.1) rotate(-2.72)"/><rect class="cls-3" x="176.52" y="3.52" width="11.48" height="0.78" transform="translate(0.02 8.62) rotate(-2.71)"/><rect class="cls-3" x="175.45" y="3.83" width="0.12" height="0.78" transform="translate(0 8.24) rotate(-2.69)"/><polygon class="cls-3" points="188.01 4.02 188.07 5.45 190.1 5.36 189.93 1.74 187.9 1.83 187.97 3.24 188.01 4.02"/><polygon class="cls-3" points="166.79 2.5 164.92 2.59 165.13 6.85 166.99 6.76 166.91 5.02 166.88 4.24 166.79 2.5"/><rect class="cls-3" x="194.76" y="0.76" width="0.67" height="1.58" transform="translate(0.14 9.23) rotate(-2.71)"/><rect class="cls-3" x="190.7" y="0.96" width="0.67" height="1.58" transform="translate(0.13 9.03) rotate(-2.71)"/><rect class="cls-3" x="186.64" y="1.15" width="0.67" height="1.58" transform="translate(0.12 8.85) rotate(-2.71)"/><rect class="cls-3" x="182.58" y="1.34" width="0.67" height="1.58" transform="translate(0.1 8.67) rotate(-2.72)"/><rect class="cls-3" x="178.52" y="1.53" width="0.67" height="1.58" transform="translate(0.09 8.46) rotate(-2.71)"/></g><g class="cls-49"><path class="cls-3" d="M148.19,114.71v-4.56h-1.28v4.56a3.89,3.89,0,0,1-2.13,3.47l-.35.18v1.47l0,.41.36.18A4,4,0,0,1,147,124v4.54h1.28V124a5.24,5.24,0,0,0-2.61-4.55v-.31A5.16,5.16,0,0,0,148.19,114.71Z"/><path class="cls-3" d="M139.7,110.15v4.56a5.16,5.16,0,0,0,2.48,4.42v.33a5.12,5.12,0,0,0-2.36,4.31v4.76h1.29v-4.76a3.82,3.82,0,0,1,2-3.38l.33-.19,0-1.85-.35-.18a3.88,3.88,0,0,1-2.11-3.46v-4.56Z"/><path class="cls-3" d="M143.53,117.4l.41.22.45-.23a2.56,2.56,0,0,0,1.33-1.85h-3.55A2.54,2.54,0,0,0,143.53,117.4Z"/><path class="cls-3" d="M144.45,121.44l-.52-.25-.43.24a2.74,2.74,0,0,0-1.43,2.41v3.55h4V124A2.87,2.87,0,0,0,144.45,121.44Z"/><rect class="cls-3" x="138.87" y="107.9" width="10.27" height="1.69"/><rect class="cls-3" x="138.87" y="129.06" width="10.27" height="1.69"/></g><g class="cls-49"><path class="cls-3" d="M243.84,93.68,229,108.54a3.36,3.36,0,0,0,0,4.75l6.4,6.41a3.36,3.36,0,0,0,4.75,0L255,104.84a3.35,3.35,0,0,0,0-4.74l-6.4-6.41A3.36,3.36,0,0,0,243.84,93.68Zm.31.32a2.93,2.93,0,0,1,4.12,0l6.4,6.41a2.92,2.92,0,0,1,0,4.12l-14.88,14.86a2.91,2.91,0,0,1-4.11,0l-6.4-6.41a2.9,2.9,0,0,1,0-4.11Z"/><path class="cls-3" d="M251,97.72a.25.25,0,0,1,0,.34l-.33.33a.24.24,0,0,1-.33,0,.22.22,0,0,1,0-.33l.33-.34A.24.24,0,0,1,251,97.72Z"/><path class="cls-3" d="M246,102.68a.24.24,0,0,1,0,.33l-.66.66a.24.24,0,0,1-.33,0,.22.22,0,0,1,0-.33l.66-.66A.24.24,0,0,1,246,102.68Z"/><path class="cls-3" d="M242.46,106.2a.24.24,0,0,1,0,.33l-.66.66a.23.23,0,1,1-.33-.33l.66-.66A.24.24,0,0,1,242.46,106.2Z"/><path class="cls-3" d="M247.75,100.92a.24.24,0,0,1,0,.33l-.66.66a.23.23,0,0,1-.33-.33l.66-.66A.22.22,0,0,1,247.75,100.92Z"/><path class="cls-3" d="M244.23,104.44a.24.24,0,0,1,0,.33l-.67.66a.23.23,0,1,1-.33-.33l.66-.66A.25.25,0,0,1,244.23,104.44Z"/><path class="cls-3" d="M249.52,99.16a.24.24,0,0,1,0,.33l-.66.66a.25.25,0,0,1-.34,0,.24.24,0,0,1,0-.33l.66-.66A.23.23,0,0,1,249.52,99.16Z"/><path class="cls-3" d="M240.7,108a.24.24,0,0,1,0,.33L240,109a.24.24,0,0,1-.33,0,.22.22,0,0,1,0-.33l.66-.66A.24.24,0,0,1,240.7,108Z"/><path class="cls-3" d="M237.17,111.48a.24.24,0,0,1,0,.33l-.66.66a.23.23,0,1,1-.33-.33l.66-.66A.24.24,0,0,1,237.17,111.48Z"/><path class="cls-3" d="M235.41,113.24a.24.24,0,0,1,0,.33l-.66.66a.24.24,0,0,1-.33,0,.22.22,0,0,1,0-.33l.66-.66A.24.24,0,0,1,235.41,113.24Z"/><path class="cls-3" d="M238.94,109.72a.24.24,0,0,1,0,.33l-.67.66a.23.23,0,0,1-.33-.33l.66-.66A.25.25,0,0,1,238.94,109.72Z"/><path class="cls-3" d="M233.65,115a.24.24,0,0,1,0,.33l-.34.33a.22.22,0,0,1-.33,0,.24.24,0,0,1,0-.33l.33-.33A.25.25,0,0,1,233.65,115Z"/><path class="cls-3" d="M247.55,99.21a2.45,2.45,0,1,1,0-3.46A2.46,2.46,0,0,1,247.55,99.21Z"/><path class="cls-3" d="M252.91,104.57a2.45,2.45,0,1,1,0-3.46A2.46,2.46,0,0,1,252.91,104.57Z"/><path class="cls-3" d="M243.2,103.56a2.45,2.45,0,1,1,0-3.46A2.44,2.44,0,0,1,243.2,103.56Z"/><path class="cls-3" d="M248.56,108.92a2.45,2.45,0,1,1,0-3.46A2.44,2.44,0,0,1,248.56,108.92Z"/><path class="cls-3" d="M238.84,107.92a2.45,2.45,0,1,1,0-3.46A2.44,2.44,0,0,1,238.84,107.92Z"/><path class="cls-3" d="M244.2,113.28a2.45,2.45,0,1,1,0-3.46A2.44,2.44,0,0,1,244.2,113.28Z"/><circle class="cls-3" cx="232.75" cy="110.55" r="2.45"/><path class="cls-3" d="M239.84,117.64a2.45,2.45,0,1,1,0-3.46A2.44,2.44,0,0,1,239.84,117.64Z"/></g><path class="cls-48" d="M276.92,22.63c-.31-1.62-3.15-1.51-3.62-3.09-.27-.9.42-1.78,1.14-2.37s1.59-1.14,1.87-2c.45-1.43-1-2.92-2.53-3a4.4,4.4,0,0,0-2.66.9.78.78,0,0,1-1.25-.63,4.85,4.85,0,0,0-.36-2.23,2.21,2.21,0,0,0-2.61-1.05c-.56.26-1.21,1.76-1.42,2.36A1,1,0,0,1,264,12a5.68,5.68,0,0,0-2.68-1.29,2.32,2.32,0,0,0-2.09,2.11c-.05,1.18,2.37,2.55,2.16,3.72a3.25,3.25,0,0,1-1.71,2,9.06,9.06,0,0,0-2.25,1.54,1.93,1.93,0,0,0-.23,2.48c.72.8,2,.47,3,0s2.14-1,3.06-.45,1,1.92.71,3a9,9,0,0,0-.78,3.17,2.74,2.74,0,0,0,5.31.71c.5-1.38-.08-3.16.94-4.22a3.06,3.06,0,0,1,2.78-.56,9.38,9.38,0,0,0,2.91.4C276.13,24.46,277.11,23.6,276.92,22.63ZM262,20.4a.86.86,0,1,1,.94-.86A.9.9,0,0,1,262,20.4Zm.94-5.74a1.84,1.84,0,0,1,3.67,0,1.84,1.84,0,0,1-3.67,0Zm3.41,12.13a.86.86,0,1,1,0-1.72.86.86,0,1,1,0,1.72Zm1.44-4.72a2.89,2.89,0,0,1-3-2.75,3,3,0,0,1,6,0A2.89,2.89,0,0,1,267.79,22.07Zm2-6.61a1.21,1.21,0,1,1,1.2,1.1A1.16,1.16,0,0,1,269.77,15.46Zm2.41,7.47a.86.86,0,1,1,0-1.72.86.86,0,1,1,0,1.72Z"/><path class="cls-48" d="M109.64,39.39a3.32,3.32,0,0,0-.72.62l-6.69-5.45a2.55,2.55,0,1,0-4.4.1,2.47,2.47,0,0,0,1.07,1l-1.71,6.09a3.93,3.93,0,1,0,3.65,4.47l7.54-2.45a2.2,2.2,0,0,0,.15.31,3.38,3.38,0,1,0,1.11-4.65Zm-8.78,5.84a3.8,3.8,0,0,0-2.78-3.35l1.68-6a2.48,2.48,0,0,0,1.58-.36,1.91,1.91,0,0,0,.32-.24l6.74,5.49a3.4,3.4,0,0,0-.31,2.13Z"/><path class="cls-48" d="M163.27,97.71a2.55,2.55,0,0,0-.57-.47L166,91.33a2,2,0,1,0-.69-3.38,2,2,0,0,0-.59,1l-4.94-.48a3,3,0,0,0-.75-1.66,3.07,3.07,0,1,0-2.19,5.1l2.93,5.48a1.06,1.06,0,0,0-.21.16,2.65,2.65,0,1,0,3.73.21Zm-5.71-6a3.28,3.28,0,0,0,1.2-.65,3.09,3.09,0,0,0,1-2l4.88.48a1.94,1.94,0,0,0,.49,1.16,2.39,2.39,0,0,0,.23.22l-3.3,6a2.72,2.72,0,0,0-1.69.06Z"/><path class="cls-48" d="M293.59,160.13l5.79-1.12a2.46,2.46,0,0,0,3,1.3,2.49,2.49,0,0,0,1.59-3.14,2.4,2.4,0,0,0-1-1.26l2-5.92a3.81,3.81,0,1,0-.74-7.4,4,4,0,0,0-.9.45l-3.91-4.51a2.45,2.45,0,0,0,.5-2.36,2.49,2.49,0,0,0-3.14-1.59,2.46,2.46,0,0,0-1.66,2.62l-5.51,1.07h0a3.51,3.51,0,1,0-6.66,2.19,3.48,3.48,0,0,0,1.23,1.7L282,148.64a2.32,2.32,0,0,0-.45.06,2.48,2.48,0,0,0,1.46,4.74l3.2,3.69a4.15,4.15,0,1,0,7.42,3Zm-9.54-7.34a2.43,2.43,0,0,0-.83-4l2.1-6.07a3.49,3.49,0,0,0,4.47-3.21l5.79-1.12a2.45,2.45,0,0,0,2.77.94s.06,0,.09,0l4,4.6a3.81,3.81,0,0,0-.61,3.53,3.77,3.77,0,0,0,2,2.24l-2,5.82a2.57,2.57,0,0,0-1,.12,2.48,2.48,0,0,0-1.7,2.21l-5.57,1.08a3.49,3.49,0,0,0-.12-.54,4.14,4.14,0,0,0-5.24-2.65,4.21,4.21,0,0,0-1.11.59Z"/><path class="cls-48" d="M148.59,39.91l3.45-.67a1.47,1.47,0,0,0,1.78.78,1.46,1.46,0,0,0,.35-2.63l1.21-3.53a2.2,2.2,0,0,0,1-.09,2.27,2.27,0,1,0-1.42-4.31,2.37,2.37,0,0,0-.53.26L152.08,27a1.46,1.46,0,0,0,.29-1.41,1.47,1.47,0,0,0-2.86.61l-3.28.64h0a2.09,2.09,0,1,0-4,1.31,2,2,0,0,0,.73,1l-1.33,3.87c-.09,0-.18,0-.27,0a1.5,1.5,0,0,0-.95,1.88,1.48,1.48,0,0,0,1.82,1l1.91,2.2a2.45,2.45,0,0,0-.38,2.26,2.47,2.47,0,0,0,4.8-.47Zm-5.69-4.37a1.48,1.48,0,0,0,.37-1.5,1.46,1.46,0,0,0-.86-.89l1.25-3.62a2.1,2.1,0,0,0,1.24,0,2.08,2.08,0,0,0,1.42-1.89l3.45-.67a1.49,1.49,0,0,0,1.66.56s0,0,0,0l2.38,2.74a2.26,2.26,0,0,0,.81,3.44l-1.2,3.47a1.29,1.29,0,0,0-.58.07,1.47,1.47,0,0,0-1,1.32l-3.32.64a1.94,1.94,0,0,0-.07-.33,2.48,2.48,0,0,0-3.12-1.57,2.25,2.25,0,0,0-.67.35Z"/></g></g></g></svg>