<?xml version="1.0"?>
<svg xmlns="http://www.w3.org/2000/svg" xmlns:xlink="http://www.w3.org/1999/xlink" version="1.1" id="Capa_1" x="0px" y="0px" viewBox="0 0 481.089 481.089" style="enable-background:new 0 0 481.089 481.089;" xml:space="preserve" width="512px" height="512px" class=""><g><g>
	<path style="fill:#EAE8CA;" d="M212.144,248.289l48-10.4v-24.8c-8-2.4-16-4-24-4v-34.4l0,0c-4,1.6-7.2,2.4-11.2,3.2h-0.8   c-1.6,0-4,0.8-5.6,0.8h-0.8c-4,0-7.2,0-11.2,0h-0.8c-1.6,0-4-0.8-5.6-0.8h-0.8c-4-0.8-7.2-2.4-11.2-3.2l0,0v33.6c-8,0-16,1.6-24,4   v24.8L212.144,248.289z" data-original="#EAE8CA" class=""/>
	<path style="fill:#EAE8CA;" d="M200.144,177.889c1.6,0,4,0.8,5.6,0.8h0.8c4,0,7.2,0,11.2,0h0.8c1.6,0,4-0.8,5.6-0.8h0.8   c4-0.8,7.2-2.4,11.2-3.2c3.2-1.6,7.2-3.2,10.4-5.6c28.8-20,45.6-36.8,45.6-72v-4l-56-28.8l-104,18.4c0,1.6,0,4,0,5.6v8   c0,4,0,8,0.8,12c0,1.6,0.8,3.2,0.8,4.8s0.8,4,1.6,5.6s1.6,3.2,1.6,5.6c0.8,1.6,0.8,2.4,1.6,4s1.6,4,3.2,5.6   c0.8,0.8,0.8,2.4,1.6,3.2c1.6,1.6,2.4,4,4,5.6c0.8,0.8,1.6,1.6,1.6,2.4c1.6,1.6,3.2,4,5.6,5.6c0.8,0.8,1.6,1.6,1.6,1.6   c2.4,1.6,4,4,6.4,5.6c0.8,0,0.8,0.8,1.6,0.8c2.4,2.4,5.6,4,8.8,6.4c1.6,0.8,3.2,2.4,4,3.2c3.2,2.4,6.4,4,10.4,5.6s7.2,2.4,11.2,3.2   C199.344,177.889,200.144,177.889,200.144,177.889z" data-original="#EAE8CA" class=""/>
</g><path style="fill:#6A9FD3;" d="M292.144,221.089c-9.6-4.8-20-8-32-9.6v1.6v24.8l-48,10.4l-48-10.4v-24.8v-1.6  c-12,1.6-22.4,5.6-32,9.6v3.2v70.4c0,9.6,10.4,17.6,24,17.6h112c13.6,0,24-8,24-17.6v-6.4v-56V221.089z" data-original="#6A9FD3" class=""/><g>
	<path style="fill:#EAE8CA;" d="M132.144,296.289v-1.6v-70.4c-29.6,28.8-48,79.2-48,120c0,19.2,0.8,60,13.6,72h26.4l-2.4-12.8   C118.544,380.289,121.744,317.089,132.144,296.289z" data-original="#EAE8CA" class=""/>
	<path style="fill:#EAE8CA;" d="M379.344,136.289h0.8H379.344l-4.8,74.4c-0.8,12-11.2,21.6-24,21.6h-58.4v56l92.8-20   c11.2-2.4,19.2-12,19.2-23.2v-124.8h-24L379.344,136.289z" data-original="#EAE8CA" class=""/>
</g><g>
	<polygon style="fill:#6A9FD3;" points="316.144,112.289 316.144,160.289 348.144,160.289 348.144,136.289 348.144,112.289  " data-original="#6A9FD3" class=""/>
	<rect x="420.144" y="112.289" style="fill:#6A9FD3;" width="32" height="48" data-original="#6A9FD3" class=""/>
</g><path style="fill:#E8B408;" d="M161.744,25.889c-4,3.2-8,7.2-12,12c0,0.8-0.8,0.8-0.8,1.6c-1.6,1.6-2.4,3.2-4,4.8  c-0.8,0.8-0.8,1.6-1.6,2.4c-0.8,1.6-1.6,3.2-2.4,4.8c-0.8,0.8-0.8,1.6-1.6,3.2s-0.8,2.4-1.6,4c0,0.8-0.8,1.6-0.8,2.4v0.8  c-0.8,1.6-0.8,3.2-1.6,4c0,0.8-0.8,1.6-0.8,2.4c-0.8,1.6-0.8,3.2-0.8,5.6c0,0.8,0,1.6-0.8,2.4c0,1.6-0.8,4-0.8,5.6v0.8l104-18.4  l56,28v-4c0-45.6-38.4-83.2-85.6-80c-2.4,0-4.8,0.8-8,0.8c-0.8,0-1.6,0-2.4,0.8c-1.6,0-3.2,0.8-4.8,0.8c-0.8,0-2.4,0.8-3.2,0.8  c-1.6,0-2.4,0.8-4,1.6c-0.8,0.8-2.4,0.8-3.2,1.6c-0.8,0.8-2.4,0.8-3.2,1.6s-2.4,0.8-3.2,1.6s-1.6,0.8-3.2,1.6  c-1.6,0.8-2.4,1.6-3.2,2.4c-0.8,0.8-1.6,0.8-2.4,1.6C164.144,23.489,163.344,25.089,161.744,25.889L161.744,25.889L161.744,25.889z" data-original="#E8B408" class=""/><polygon style="fill:#6A9FD3;" points="28.144,392.289 28.144,440.289 60.144,440.289 60.144,416.289 60.144,392.289 " data-original="#6A9FD3" class=""/><path style="fill:#EAE8CA;" d="M148.144,312.289c10.4,25.6,10.4,54.4,0,80h16v8h112l-3.2-10.4c-8-24-7.2-50.4,2.4-74.4l0.8-3.2h-8  h-112H148.144z" data-original="#EAE8CA" class=""/><path style="fill:#E8B408;" d="M163.344,157.089c-2.4-1.6-4.8-4-6.4-5.6c-0.8-0.8-1.6-1.6-1.6-1.6c-1.6-1.6-4-3.2-5.6-5.6  c-0.8-0.8-1.6-1.6-1.6-2.4c-1.6-1.6-3.2-3.2-4-5.6c-0.8-0.8-1.6-2.4-1.6-3.2c-0.8-1.6-2.4-3.2-3.2-5.6c-0.8-1.6-0.8-2.4-1.6-4  s-1.6-3.2-1.6-5.6c-0.8-1.6-0.8-4-1.6-5.6c0-1.6-0.8-3.2-0.8-4.8c-1.6-2.4-1.6-6.4-1.6-11.2v-8c0-1.6,0-4,0-5.6l0,0l0,0  c0-0.8,0-2.4,0-3.2c0-0.8,0-1.6,0-2.4s0-0.8,0-1.6l0,0c0-1.6,0.8-2.4,0.8-4c0-0.8,0.8-1.6,0.8-2.4l0,0c0,0,0,0,0-0.8  c0.8-1.6,0.8-3.2,1.6-5.6c0-0.8,0.8-1.6,0.8-2.4c0.8-1.6,1.6-3.2,2.4-5.6c0,0,0-0.8,0.8-0.8l0,0c0,0,0-0.8,0.8-0.8  c0.8-1.6,1.6-2.4,2.4-4l0.8-0.8c0.8-1.6,1.6-3.2,3.2-4.8c0-0.8,0.8-0.8,0.8-1.6c0.8-1.6,1.6-3.2,3.2-4.8c0.8-0.8,0.8-0.8,1.6-1.6  c0.8-1.6,2.4-2.4,3.2-4l0.8-0.8c0.8-0.8,2.4-2.4,3.2-3.2s0.8-0.8,1.6-1.6c-4-0.8-8-1.6-12.8-1.6c-31.2,0-56,24.8-56,56v120  c32,0,60.8-13.6,81.6-35.2l0,0c-3.2-2.4-5.6-4-8.8-6.4C164.144,157.889,164.144,157.889,163.344,157.089z" data-original="#E8B408" class=""/><path style="fill:#6A9FD3;" d="M108.144,480.289L108.144,480.289c0-25.6,8.8-60,24.8-80h143.2l7.2,8.8c16,20,24.8,45.6,24.8,71.2  l0,0H108.144z" data-original="#6A9FD3" class=""/><path style="fill:#2163B8" d="M452.144,104.289h-32c-4.8,0-8,3.2-8,8v8c0-4.8-3.2-8-8-8h-24c-4,0-8,3.2-8,7.2l-0.8,8.8h-15.2v-16  c0-4.8-3.2-8-8-8h-32c-4.8,0-8,3.2-8,8v48c0,4.8,3.2,8,8,8h32c4.8,0,8-3.2,8-8v-16h14.4l-4,65.6c-0.8,8-8,14.4-16,14.4h-50.4v-3.2  c0-3.2-1.6-5.6-4.8-7.2c-10.4-4.8-21.6-8.8-34.4-10.4c-1.6,0-2.4,0-4,0c-4.8-1.6-8.8-2.4-13.6-3.2v-21.6c2.4-1.6,4.8-2.4,7.2-4  c27.2-19.2,48.8-37.6,48.8-78.4v-4v-4c0-24-10.4-48-28-64c-2.4-2.4-4.8-4.8-8-6.4c-9.6-7.2-20-12-31.2-14.4  c-7.2-3.2-16.8-4-25.6-3.2c-3.2,0-5.6,0.8-8,0.8c-0.8,0-2.4,0.8-3.2,0.8c-1.6,0-3.2,0.8-4.8,0.8s-3.2,0.8-4,1.6  c-0.8,0-2.4,0.8-3.2,0.8c-1.6,0.8-3.2,0.8-4.8,1.6c-0.8,0-1.6,0.8-3.2,0.8c-1.6,0.8-3.2,1.6-4.8,2.4c-0.8,0.8-1.6,0.8-2.4,1.6  c-1.6,0.8-3.2,1.6-4.8,3.2c-0.8,0.8-1.6,0.8-1.6,1.6c-0.8,0.8-1.6,0.8-1.6,1.6c-40-7.2-75.2,24-75.2,63.2v120c0,4.8,3.2,8,8,8  c31.2,0,60-12,82.4-32.8c1.6,1.6,4,2.4,5.6,3.2v21.6c-4.8,0.8-8.8,1.6-13.6,3.2c-1.6-0.8-2.4-0.8-4,0c-12,2.4-24,5.6-34.4,10.4  c-2.4,1.6-4.8,4-4.8,7.2l0,0c-28,29.6-48,79.2-48,123.2c0,21.6,0.8,47.2,7.2,64h-15.2v-16c0-4.8-3.2-8-8-8h-32c-4.8,0-8,3.2-8,8v48  c0,4.8,3.2,8,8,8h32c4.8,0,8-3.2,8-8v-16h29.6h16c-8.8,17.6-13.6,36.8-13.6,56h16c0-13.6,3.2-27.2,8-40l0,0c0,4.8,3.2,8,8,8h32  c4.8,0,8-3.2,8-8v-32h100l4.8,5.6c15.2,18.4,23.2,41.6,23.2,65.6h16c0-28-9.6-54.4-26.4-76l-6.4-8l-3.2-9.6  c-7.2-22.4-6.4-46.4,2.4-68.8l0.8-0.8c10.4-4,17.6-12.8,17.6-22.4l0,0l86.4-18.4c14.4-3.2,25.6-16,25.6-31.2v-84.8c0,4.8,3.2,8,8,8  h32c4.8,0,8-3.2,8-8v-48C460.144,107.489,456.944,104.289,452.144,104.289z M340.144,152.289h-16v-32h16V152.289z M52.144,432.289  h-16v-32h16V432.289z M241.744,161.889c-3.2,1.6-5.6,3.2-8.8,4.8l0,0c-3.2,1.6-6.4,2.4-9.6,3.2h-0.8c-1.6,0-3.2,0.8-4.8,0.8h-0.8  c-3.2,0-6.4,0-8.8,0h-0.8c-1.6,0-3.2-0.8-4.8-0.8h-0.8c-3.2-0.8-6.4-1.6-9.6-3.2l0,0c-3.2-1.6-6.4-3.2-8.8-4.8  c-1.6-0.8-3.2-2.4-4.8-3.2c-2.4-1.6-5.6-4-8-5.6c-0.8-0.8-1.6-1.6-2.4-2.4c-1.6-1.6-3.2-3.2-4.8-4s-2.4-2.4-4-3.2  c-0.8-0.8-2.4-2.4-3.2-3.2c-1.6-1.6-2.4-3.2-4-4.8c-0.8-0.8-1.6-1.6-2.4-2.4c-0.8-1.6-2.4-3.2-3.2-4.8c-0.8-0.8-0.8-1.6-1.6-2.4  c-0.8-1.6-1.6-4-2.4-5.6c0-0.8-0.8-1.6-0.8-2.4c-0.8-2.4-0.8-4-1.6-6.4c0-0.8-0.8-1.6-0.8-2.4c0.8-5.6,0.8-8.8,0.8-12.8v-7.2  l94.4-16.8l48.8,24.8C284.144,126.689,270.544,141.889,241.744,161.889z M173.744,26.689c0.8-0.8,2.4-0.8,3.2-1.6s1.6-0.8,2.4-1.6  c0.8-0.8,1.6-0.8,3.2-1.6c0.8-0.8,1.6-0.8,3.2-1.6c0.8,0,1.6-0.8,3.2-0.8c0.8,0,2.4-0.8,3.2-0.8s1.6-0.8,2.4-0.8  c1.6,0,2.4-0.8,4-0.8c0.8,0,1.6,0,2.4-0.8c2.4,0,4-0.8,6.4-0.8c20-1.6,39.2,5.6,54.4,19.2c1.6,1.6,3.2,3.2,4.8,4.8  c0.8,0.8,0.8,0.8,1.6,1.6c0.8,1.6,1.6,2.4,3.2,4c0.8,0.8,0.8,1.6,1.6,2.4c0.8,1.6,1.6,2.4,2.4,4c0.8,0.8,0.8,1.6,1.6,2.4  c0.8,1.6,1.6,2.4,1.6,4c0,0.8,0.8,1.6,0.8,2.4c0.8,1.6,1.6,3.2,1.6,4.8c0,0.8,0,0.8,0.8,1.6c0.8,2.4,1.6,4,1.6,6.4  c0,0.8,0,1.6,0,1.6c0,1.6,0.8,2.4,0.8,4l-44-21.6c-1.6-0.8-2.4-0.8-4-0.8c-0.8,0-0.8,0-1.6,0l-92.8,16.8c0-0.8,0.8-2.4,0.8-3.2  c0-1.6,0.8-2.4,0.8-4c0-0.8,0.8-1.6,0.8-3.2c0.8-1.6,1.6-3.2,1.6-4.8c0-0.8,0.8-0.8,0.8-1.6c0.8-2.4,2.4-4,3.2-6.4c0,0,0,0,0-0.8  c1.6-2.4,2.4-4,4-5.6l0,0c3.2-4,7.2-8,11.2-11.2l0,0c1.6-1.6,4-3.2,6.4-4C172.944,27.489,173.744,27.489,173.744,26.689z   M100.144,80.289c0-24.8,19.2-45.6,43.2-48c-0.8,1.6-2.4,3.2-3.2,4l-0.8,0.8c-1.6,1.6-2.4,4-3.2,5.6c0,0,0,0.8-0.8,0.8  c-0.8,3.2-1.6,4.8-3.2,7.2v0.8l0,0c-0.8,2.4-1.6,4-2.4,6.4l0,0v0.8c-0.8,1.6-1.6,4-1.6,5.6c0,0.8,0,1.6-0.8,2.4  c0,1.6-0.8,3.2-0.8,4.8c0,1.6,0,2.4-0.8,4c0,1.6,0,2.4-0.8,4c0,2.4,0,5.6,0,8v8c0,3.2,0,6.4,0.8,9.6c0,0.8,0,1.6,0,3.2  c0,2.4,0.8,5.6,1.6,8c0,0.8,0.8,2.4,0.8,3.2c0.8,1.6,0.8,3.2,1.6,4.8c0,0.8,0.8,2.4,1.6,3.2c0.8,2.4,2.4,4.8,3.2,6.4  c0,0.8,0.8,1.6,1.6,2.4c6.4,11.2,16,20,26.4,28.8c-16.8,15.2-38.4,24-60.8,26.4C100.144,192.289,100.144,80.289,100.144,80.289z   M188.144,216.289c4.8,0,8-3.2,8-8v-23.2c0.8,0,0.8,0,1.6,0c2.4,0.8,4,0.8,6.4,0.8c0.8,0,0.8,0,1.6,0c2.4,0,4,0.8,6.4,0.8  s4,0,6.4-0.8c0.8,0,0.8,0,1.6,0c2.4,0,4-0.8,6.4-0.8c0.8,0,0.8,0,1.6,0v23.2c0,4.8,3.2,8,8,8c5.6,0,10.4,0.8,16,2.4v12.8l-40,8.8  l-40-8.8v-12.8C177.744,217.089,182.544,216.289,188.144,216.289z M141.744,317.089c8,21.6,8,44.8,0.8,67.2h-10.4  c-1.6,0-2.4,0-3.2,0.8c-0.8-21.6,1.6-52,6.4-71.2C136.944,315.489,139.344,316.289,141.744,317.089z M92.144,344.289  c0-33.6,12.8-71.2,32-98.4v48.8c-10.4,24-14.4,86.4-10.4,110.4l0.8,3.2h-13.6C96.944,401.889,92.144,385.089,92.144,344.289z   M156.144,432.289h-16v-32h8h8V432.289z M172.144,392.289c0-4.8-3.2-8-8-8h-4.8c6.4-20.8,6.4-43.2,0-64h105.6  c-7.2,23.2-7.2,48.8,0.8,72l0,0H172.144z M284.144,294.689c0,4-7.2,9.6-16,9.6h-112c-8.8,0-16-4.8-16-9.6v-68.8  c4.8-2.4,10.4-4,16-5.6v16.8c0,4,2.4,7.2,6.4,8l48,10.4c0.8,0,2.4,0,3.2,0l48-10.4c4-0.8,6.4-4,6.4-8v-16.8c5.6,1.6,11.2,3.2,16,5.6  v6.4v56L284.144,294.689L284.144,294.689z M396.144,245.089c0,7.2-5.6,14.4-12.8,16l-83.2,17.6v-38.4h50.4c16.8,0,30.4-12.8,32-29.6  l4.8-82.4h8.8V245.089z M444.144,152.289h-16v-32h16V152.289z" data-original="#222426" class="active-path" data-old_color="#222426"/></g> </svg>
