<?xml version="1.0"?>
<svg xmlns="http://www.w3.org/2000/svg" height="512px" viewBox="0 0 480 480" width="512px" class=""><g><path d="m240 448c-114.875 0-208-93.125-208-208s93.125-208 208-208 208 93.125 208 208c-.128906 114.820312-93.179688 207.871094-208 208zm0-352c-79.527344 0-144 64.472656-144 144s64.472656 144 144 144 144-64.472656 144-144c-.09375-79.492188-64.507812-143.90625-144-144zm0 0" fill="#78b9eb" data-original="#78B9EB" class=""/><path d="m200 328v-48h-48v-80h48v-48h80v48h48v80h-48v48zm0 0" fill="#78b9eb" data-original="#78B9EB" class=""/><g fill="#1a6fb0"><path d="m240 0c-132.546875 0-240 107.453125-240 240s107.453125 240 240 240 240-107.453125 240-240c-.148438-132.484375-107.515625-239.851562-240-240zm0 464c-123.710938 0-224-100.289062-224-224s100.289062-224 224-224 224 100.289062 224 224c-.140625 123.652344-100.347656 223.859375-224 224zm0 0" data-original="#1A6FB0" class="active-path" style="fill:#3762CC" data-old_color="#1A6FB0"/><path d="m240 24c-119.292969 0-216 96.707031-216 216s96.707031 216 216 216 216-96.707031 216-216c-.132812-119.238281-96.761719-215.867188-216-216zm0 416c-110.457031 0-200-89.542969-200-200s89.542969-200 200-200 200 89.542969 200 200c-.125 110.40625-89.59375 199.875-200 200zm0 0" data-original="#1A6FB0" class="active-path" style="fill:#3762CC" data-old_color="#1A6FB0"/><path d="m240 88c-83.949219 0-152 68.050781-152 152s68.050781 152 152 152 152-68.050781 152-152c-.09375-83.910156-68.089844-151.90625-152-152zm0 288c-75.109375 0-136-60.890625-136-136s60.890625-136 136-136 136 60.890625 136 136c-.082031 75.074219-60.925781 135.917969-136 136zm0 0" data-original="#1A6FB0" class="active-path" style="fill:#3762CC" data-old_color="#1A6FB0"/><path d="m328 192h-40v-40c0-4.417969-3.582031-8-8-8h-80c-4.417969 0-8 3.582031-8 8v40h-40c-4.417969 0-8 3.582031-8 8v80c0 4.417969 3.582031 8 8 8h40v40c0 4.417969 3.582031 8 8 8h80c4.417969 0 8-3.582031 8-8v-40h40c4.417969 0 8-3.582031 8-8v-80c0-4.417969-3.582031-8-8-8zm-8 80h-40c-4.417969 0-8 3.582031-8 8v40h-64v-40c0-4.417969-3.582031-8-8-8h-40v-64h40c4.417969 0 8-3.582031 8-8v-40h64v40c0 4.417969 3.582031 8 8 8h40zm0 0" data-original="#1A6FB0" class="active-path" style="fill:#3762CC" data-old_color="#1A6FB0"/></g></g> </svg>
